<svg width="62" height="62" viewBox="0 0 62 62" fill="none" xmlns="http://www.w3.org/2000/svg">
<g clip-path="url(#clip0_622_6908)">
<path d="M48.1337 0.0566406H13.6221C6.09826 0.0566406 -0.000976562 5.9098 -0.000976562 13.13V48.864C-0.000976562 56.0843 6.09826 61.9374 13.6221 61.9374H48.1337C55.6575 61.9374 61.7568 56.0843 61.7568 48.864V13.13C61.7568 5.9098 55.6575 0.0566406 48.1337 0.0566406Z" fill="url(#paint0_linear_622_6908)"/>
<path d="M31 14.5566C27.7366 14.5566 24.5465 15.5243 21.8331 17.3374C19.1197 19.1504 17.0048 21.7274 15.756 24.7424C14.5071 27.7573 14.1804 31.0749 14.8171 34.2756C15.4537 37.4763 17.0252 40.4163 19.3327 42.7239C21.6403 45.0315 24.5803 46.6029 27.781 47.2396C30.9817 47.8763 34.2993 47.5495 37.3143 46.3007C40.3293 45.0518 42.9062 42.937 44.7193 40.2236C46.5323 37.5101 47.5 34.32 47.5 31.0566C47.4948 26.6822 45.7548 22.4883 42.6616 19.3951C39.5683 16.3018 35.3745 14.5618 31 14.5566ZM31 44.5566C28.33 44.5566 25.7199 43.7649 23.4998 42.2815C21.2797 40.7981 19.5494 38.6897 18.5276 36.2229C17.5059 33.7561 17.2385 31.0417 17.7594 28.4229C18.2803 25.8042 19.5661 23.3987 21.4541 21.5107C23.3421 19.6227 25.7475 18.3369 28.3663 17.816C30.985 17.2951 33.6994 17.5625 36.1662 18.5843C38.633 19.6061 40.7414 21.3364 42.2248 23.5564C43.7082 25.7765 44.5 28.3866 44.5 31.0566C44.4956 34.6357 43.0719 38.067 40.5411 40.5978C38.0103 43.1286 34.5791 44.5523 31 44.5566Z" fill="white"/>
<path d="M32.5 30.4356V22.0566C32.5 21.6588 32.342 21.2773 32.0607 20.996C31.7794 20.7147 31.3978 20.5566 31 20.5566C30.6022 20.5566 30.2206 20.7147 29.9393 20.996C29.658 21.2773 29.5 21.6588 29.5 22.0566V31.0566C29.5001 31.4544 29.6582 31.8359 29.9395 32.1171L34.4395 36.6171C34.7224 36.8904 35.1013 37.0416 35.4946 37.0382C35.8879 37.0347 36.2641 36.877 36.5422 36.5989C36.8203 36.3208 36.9781 35.9445 36.9815 35.5512C36.9849 35.1579 36.8337 34.779 36.5605 34.4961L32.5 30.4356Z" fill="white"/>
</g>
<defs>
<linearGradient id="paint0_linear_622_6908" x1="30.8779" y1="0.0566406" x2="30.8779" y2="61.9374" gradientUnits="userSpaceOnUse">
<stop stop-color="#C2F2D2"/>
<stop offset="0.0001" stop-color="#A3DFB7"/>
<stop offset="0.0002" stop-color="#88D6A4"/>
<stop offset="1" stop-color="#22A383"/>
</linearGradient>
<clipPath id="clip0_622_6908">
<rect width="61.7578" height="61.8808" fill="white" transform="translate(0 0.0566406)"/>
</clipPath>
</defs>
</svg>
