<svg width="62" height="62" viewBox="0 0 62 62" fill="none" xmlns="http://www.w3.org/2000/svg">
<g clip-path="url(#clip0_622_6847)">
<path d="M48.1337 0.0566406H13.6221C6.09826 0.0566406 -0.000976562 5.9098 -0.000976562 13.13V48.864C-0.000976562 56.0843 6.09826 61.9374 13.6221 61.9374H48.1337C55.6575 61.9374 61.7568 56.0843 61.7568 48.864V13.13C61.7568 5.9098 55.6575 0.0566406 48.1337 0.0566406Z" fill="url(#paint0_linear_622_6847)"/>
<path d="M21.4434 21.1567C21.5809 22.3942 21.5809 24.2504 22.4746 25.1442C22.6809 25.4192 23.1621 25.5567 23.5059 25.3504C23.7809 25.9692 24.0559 26.5879 24.3996 27.1379C25.4996 29.3379 27.0121 31.3317 29.4871 32.0192C30.0371 32.1567 30.6559 32.2254 31.2746 32.1567C33.8184 31.9504 35.8121 29.9567 37.1184 27.8942C37.2559 27.6879 38.6309 25.3504 38.4934 25.2817C38.8371 25.4879 39.2496 25.3504 39.5246 25.0754C40.2121 24.1129 40.4871 22.8754 40.5559 21.7067C40.5559 21.6379 40.5559 21.6379 40.5559 21.5692C40.4871 19.5067 40.4184 17.4442 39.5934 15.5192C38.4934 12.9754 35.3996 10.2942 32.5121 11.1879C31.6871 11.0504 30.9996 10.5692 30.1746 10.4317C27.9059 10.1567 25.4309 11.5317 24.0559 13.2504C22.6121 15.1067 21.7184 17.7192 21.4434 20.9504V21.1567ZM29.5559 30.3692C29.4871 30.3692 29.4871 30.3692 29.5559 30.3692C28.3184 29.8879 27.3559 28.9254 26.5996 27.8254C25.9809 26.9317 25.2934 25.9692 24.8809 24.9379C24.4684 23.9067 24.3309 22.8067 24.4684 21.7067C24.6059 20.4692 24.8809 19.3692 25.3621 18.4067C25.7059 17.6504 26.3934 18.2692 26.8746 18.5442C27.8371 19.0942 28.9371 19.4379 30.1059 19.7817C30.5184 19.9192 30.9309 19.9879 31.2746 20.1254C32.8559 20.5379 34.4371 20.8817 36.0184 21.2254C36.5684 21.3629 37.1184 21.5692 37.3246 22.0504C37.5309 22.5317 37.3246 23.4254 37.1871 23.8379C36.9809 24.3879 36.7746 25.0067 36.4996 25.5567C36.3621 25.9004 36.1559 26.3129 35.9496 26.6567C35.5371 27.3442 35.1246 28.0317 34.5746 28.6504C34.2309 28.9942 33.8871 29.3379 33.5434 29.6129C33.4746 29.6817 33.4059 29.6817 33.3371 29.7504C33.0621 29.9567 32.7184 30.1629 32.3746 30.3004C31.4809 30.6442 30.6559 30.7129 29.8996 30.5067C29.7621 30.5067 29.6246 30.4379 29.5559 30.3692Z" fill="white"/>
<path d="M31.7554 45.1506V46.4568V49.0693H30.7242V46.4568C30.7242 46.0443 30.7242 45.5631 30.7242 45.0818C30.7242 44.1881 30.7929 43.2256 30.6554 42.4006C30.5867 41.8506 30.3117 41.4381 29.8992 41.0943C29.6242 40.8193 29.2804 40.6818 28.9367 40.4756C28.4554 40.2006 27.9742 39.9256 27.4929 39.5131C26.5304 38.6193 26.2554 37.2443 26.1867 36.0756C26.1179 35.3881 26.1867 34.7693 26.2554 34.3568C26.5992 34.3568 26.9429 34.2881 27.2867 34.2881C27.2867 34.4943 27.1492 35.1818 27.2179 36.0068C27.2867 36.9693 27.4929 38.0693 28.1804 38.7568C28.5242 39.1006 28.9367 39.3068 29.4179 39.5818C29.7617 39.7881 30.1742 39.9943 30.5179 40.2693C30.7242 40.4068 30.8617 40.5443 30.9992 40.6818C31.1367 40.8881 31.2742 41.0256 31.4117 41.2318C31.5492 41.5068 31.6867 41.8506 31.6867 42.2631C31.8242 43.1568 31.7554 44.1881 31.7554 45.1506Z" fill="white"/>
<path d="M35.8121 36.1445C35.8121 36.3508 35.7434 36.4883 35.6746 36.6945C35.3996 37.8633 34.5059 39.5133 32.0309 40.8883C31.8934 40.682 31.7559 40.4758 31.6184 40.2695L31.5496 40.2008C31.4809 40.132 31.4809 40.132 31.4121 40.0633C33.8184 38.6883 34.5746 37.1758 34.7121 36.0758C34.8496 35.2508 34.6434 34.4945 34.6434 34.4258C34.6434 34.4258 35.5371 34.4258 35.7434 34.4945C35.8121 34.7695 35.8809 35.3883 35.8121 36.1445Z" fill="white"/>
<path d="M29.2809 44.5314C29.6226 44.5314 29.8996 44.2544 29.8996 43.9127C29.8996 43.571 29.6226 43.2939 29.2809 43.2939C28.9391 43.2939 28.6621 43.571 28.6621 43.9127C28.6621 44.2544 28.9391 44.5314 29.2809 44.5314Z" fill="white"/>
<path d="M29.2809 48.2443C29.6226 48.2443 29.8996 47.9673 29.8996 47.6256C29.8996 47.2839 29.6226 47.0068 29.2809 47.0068C28.9391 47.0068 28.6621 47.2839 28.6621 47.6256C28.6621 47.9673 28.9391 48.2443 29.2809 48.2443Z" fill="white"/>
<path d="M48.3246 47.9691C48.2559 45.2191 48.1871 42.4691 47.9121 39.9254C47.8434 39.7879 47.8434 39.5816 47.7746 39.4441C47.4996 38.6191 47.1559 37.8629 46.6059 37.1754C45.7809 36.2816 44.6809 36.0754 43.5809 35.7316C43.0309 35.5254 42.4121 35.3879 41.8621 35.1816C41.0371 34.9754 40.2121 34.7691 39.3871 34.7004C39.2496 34.7004 39.1809 34.7004 39.0434 34.7004C38.6309 34.6316 38.1496 34.6316 37.7371 34.5629C37.3246 34.5629 36.9809 34.4941 36.5684 34.4941C36.6371 34.9066 36.7059 35.4566 36.5684 36.1441C36.9121 36.1441 37.2559 36.2129 37.5309 36.2129C38.0121 36.2816 38.4934 36.2816 38.9746 36.3504C39.2496 36.3504 39.5934 36.4191 39.8684 36.4879C40.2121 36.5566 40.5559 36.6254 40.9684 36.6941C40.9684 38.6879 40.6934 40.7504 40.1434 42.6754V42.7441H40.0746C39.7309 42.7441 39.3871 42.8816 39.1121 43.0879C38.6996 43.4316 38.4934 43.9129 38.4934 44.3941C38.4934 45.2879 39.2496 46.0441 40.1434 46.0441C40.6934 46.0441 41.2434 45.7691 41.5871 45.2879C41.7934 45.0129 41.8621 44.7379 41.8621 44.3941C41.8621 43.7754 41.5871 43.2254 41.0371 42.9504H40.9684V42.8816C41.5184 40.8879 41.7934 38.8941 41.7934 36.9691C41.9996 37.0379 42.2059 37.1066 42.4121 37.1066L43.5121 37.3816H43.5809C44.4746 37.6566 45.0246 37.7941 45.3684 38.2066C45.7121 38.6191 46.0559 39.1691 46.2621 39.8566C46.3309 39.9941 46.3309 40.0629 46.3309 40.2004C46.6059 42.2629 46.6059 44.4629 46.6746 46.8004V48.0379C46.6746 48.6566 46.7434 49.3441 46.7434 50.1691H15.1871C15.1871 49.4129 15.2559 48.6566 15.2559 48.0379C15.2559 47.6254 15.2559 47.2129 15.2559 46.8004C15.3246 44.4629 15.3934 42.2629 15.5996 40.2004C15.5996 40.0629 15.6684 39.9941 15.6684 39.9254C15.8746 39.2379 16.1496 38.6191 16.5621 38.2066C16.9746 37.7254 17.5934 37.5879 18.1434 37.4504C19.0371 37.1754 19.8621 36.9691 20.7559 36.8316V36.9004C20.7559 37.1066 20.6871 37.3129 20.6871 37.5191C20.6184 38.2066 20.5496 38.8941 20.5496 39.5129V39.5816C20.6184 40.0629 20.5496 40.2004 20.4809 40.2691C19.7246 40.4754 19.1746 41.0941 19.0371 41.8504C18.8996 42.4004 18.6934 44.6691 18.8309 45.3566C18.9684 45.8379 19.3121 46.2504 19.7246 46.4566C19.8621 46.7316 20.1371 46.9379 20.4809 46.8691C20.8934 46.8004 21.1684 46.4566 21.1684 46.0441C21.0996 45.6316 20.7559 45.3566 20.3434 45.3566C20.2059 45.3566 20.1371 45.4254 19.9996 45.4941H19.9309L19.8621 45.4254C19.7246 45.2879 19.6559 45.1504 19.5871 45.0129C19.4496 44.6004 19.6559 42.5379 19.7934 41.9879C19.9309 41.3691 20.4121 41.0254 20.9621 40.9566C21.5809 40.8879 22.0621 41.2316 22.3371 41.7816C22.5434 42.2629 23.0934 44.3254 23.0246 44.7379C23.0246 44.8754 22.9559 45.0816 22.8871 45.2191V45.2879H22.8184C22.6809 45.2191 22.6121 45.2191 22.4746 45.2191C22.0621 45.2879 21.7871 45.6316 21.7871 46.0441C21.8559 46.4566 22.1996 46.7316 22.6121 46.7316C22.8871 46.7316 23.1621 46.4566 23.2309 46.1816C23.5746 45.8379 23.8496 45.4254 23.9184 44.9441C23.9184 44.8754 23.9184 44.8754 23.9184 44.8066C23.9184 43.9816 23.3684 41.9879 23.1621 41.5066C22.8184 40.8191 22.1996 40.3379 21.4434 40.2004C21.3059 40.2004 21.2371 40.2004 21.5809 36.6254C22.8184 36.4191 24.0559 36.2129 25.2934 36.1441C25.2246 35.4566 25.2934 34.9066 25.3621 34.4941C23.0246 34.7004 20.6871 35.1129 18.3496 35.8004C17.2496 36.1441 16.1496 36.3504 15.3246 37.2441C14.8434 37.8629 14.4996 38.6191 14.2246 39.4441C14.1559 39.5816 14.1559 39.7879 14.0871 39.9254C13.8121 42.4691 13.7434 45.2191 13.6746 47.9691C13.6746 48.9316 13.6059 49.8254 13.5371 50.7879C13.5371 51.2691 13.9496 51.6816 14.4309 51.6816H47.5684C48.0496 51.6816 48.4621 51.2691 48.4621 50.7879C48.3934 49.8941 48.3246 48.9316 48.3246 47.9691Z" fill="white"/>
</g>
<defs>
<linearGradient id="paint0_linear_622_6847" x1="30.8779" y1="0.0566406" x2="30.8779" y2="61.9374" gradientUnits="userSpaceOnUse">
<stop stop-color="#C2F2D2"/>
<stop offset="0.0001" stop-color="#A3DFB7"/>
<stop offset="0.0002" stop-color="#88D6A4"/>
<stop offset="1" stop-color="#22A383"/>
</linearGradient>
<clipPath id="clip0_622_6847">
<rect width="61.7578" height="61.8808" fill="white" transform="translate(0 0.0566406)"/>
</clipPath>
</defs>
</svg>
