<svg width="248" height="56" viewBox="0 0 248 56" fill="none" xmlns="http://www.w3.org/2000/svg">
<g clip-path="url(#clip0_622_6931)">
<path d="M62.2461 25.7719C62.1498 25.4792 61.8856 25.2713 61.573 25.2436L57.3276 24.8647L55.6488 21.0033C55.525 20.7203 55.2431 20.5371 54.9299 20.5371C54.6167 20.5371 54.3347 20.7203 54.211 21.004L52.5322 24.8647L48.286 25.2436C47.974 25.2719 47.7105 25.4792 47.6137 25.7719C47.5168 26.0646 47.6063 26.3856 47.8423 26.588L51.0514 29.3537L50.1051 33.4501C50.0358 33.7513 50.1548 34.0626 50.4091 34.2433C50.5458 34.3403 50.7057 34.3897 50.867 34.3897C51.006 34.3897 51.144 34.3529 51.2677 34.2801L54.9299 32.1292L58.5907 34.2801C58.8585 34.4385 59.1962 34.424 59.45 34.2433C59.7044 34.0621 59.8232 33.7506 59.754 33.4501L58.8077 29.3537L62.0168 26.5885C62.2528 26.3856 62.3429 26.0651 62.2461 25.7719Z" fill="#FFC107"/>
</g>
<g clip-path="url(#clip1_622_6931)">
<path d="M38.1407 25.7036L29.0799 25.7031C28.6798 25.7031 28.3555 26.0218 28.3555 26.415V29.2595C28.3555 29.6526 28.6798 29.9714 29.0798 29.9714H34.1824C33.6236 31.3964 32.5808 32.5897 31.2503 33.348L33.426 37.0492C36.9161 35.0656 38.9795 31.5852 38.9795 27.6892C38.9795 27.1344 38.9379 26.7378 38.8547 26.2913C38.7914 25.952 38.4917 25.7036 38.1407 25.7036Z" fill="#167EE6"/>
<path d="M27.8728 34.2457C25.3757 34.2457 23.1958 32.9049 22.025 30.9209L18.2588 33.0542C20.1754 36.3186 23.7658 38.5168 27.8728 38.5168C29.8875 38.5168 31.7886 37.9837 33.4262 37.0547V37.0496L31.2505 33.3483C30.2553 33.9155 29.1037 34.2457 27.8728 34.2457Z" fill="#12B347"/>
<path d="M33.4265 37.055V37.0499L31.2508 33.3486C30.2556 33.9158 29.1041 34.246 27.873 34.246V38.5171C29.8878 38.5171 31.7889 37.984 33.4265 37.055Z" fill="#0F993E"/>
<path d="M21.1118 27.6019C21.1118 26.3923 21.4477 25.2607 22.0248 24.2827L18.2586 22.1494C17.308 23.7537 16.7656 25.6169 16.7656 27.6019C16.7656 29.5869 17.308 31.45 18.2586 33.0543L22.0248 30.921C21.4477 29.9431 21.1118 28.8114 21.1118 27.6019Z" fill="#FFD500"/>
<path d="M27.8728 20.9576C29.5011 20.9576 30.9968 21.5262 32.1651 22.4721C32.4533 22.7054 32.8722 22.6885 33.1362 22.4291L35.1871 20.4136C35.4866 20.1193 35.4653 19.6374 35.1453 19.3646C33.1879 17.6959 30.6411 16.6865 27.8728 16.6865C23.7658 16.6865 20.1754 18.8848 18.2588 22.1491L22.025 24.2824C23.1958 22.2984 25.3757 20.9576 27.8728 20.9576Z" fill="#FF4B26"/>
<path d="M32.1654 22.4721C32.4536 22.7054 32.8725 22.6885 33.1365 22.4291L35.1874 20.4136C35.4869 20.1193 35.4655 19.6374 35.1456 19.3646C33.1882 17.6958 30.6414 16.6865 27.873 16.6865V20.9576C29.5013 20.9576 30.9971 21.5262 32.1654 22.4721Z" fill="#D93F21"/>
</g>
<g clip-path="url(#clip2_622_6931)">
<path d="M169.642 26.8644C169.642 32.5334 165.415 37.2322 159.89 38.084V30.1474H162.583L163.096 26.8644H159.89V24.734C159.89 23.8356 160.338 22.9602 161.774 22.9602H163.231V20.1652C163.231 20.1652 161.908 19.9434 160.644 19.9434C158.004 19.9434 156.279 21.5157 156.279 24.3622V26.8644H153.344V30.1474H156.279V38.084C150.754 37.2322 146.527 32.5334 146.527 26.8644C146.527 20.592 151.702 15.5068 158.085 15.5068C164.467 15.5068 169.642 20.592 169.642 26.8644Z" fill="#1877F2"/>
<path d="M162.584 30.1474L163.096 26.8644H159.891V24.7339C159.891 23.8357 160.339 22.9602 161.774 22.9602H163.232V20.1652C163.232 20.1652 161.909 19.9434 160.645 19.9434C158.005 19.9434 156.279 21.5157 156.279 24.3622V26.8644H153.345V30.1474H156.279V38.0839C156.868 38.1746 157.471 38.2219 158.085 38.2219C158.699 38.2219 159.302 38.1746 159.891 38.0839V30.1474H162.584Z" fill="white"/>
</g>
<path d="M68.3083 21.3126H77.3483V23.7726H70.8683V27.1926C71.4083 26.5326 72.5083 26.0126 73.7283 26.0126C77.1283 26.0126 78.2883 28.5726 78.2883 30.8326C78.2883 33.8126 76.5683 35.9326 73.2483 35.9326C70.1083 35.9326 68.3083 34.1926 68.0683 31.8126H70.7883C71.0283 32.8326 71.8483 33.5726 73.2083 33.5726C74.8483 33.5726 75.5883 32.4126 75.5883 30.8726C75.5883 29.2326 74.7683 28.3326 73.1883 28.3326C72.0283 28.3326 71.2883 28.9726 70.9883 29.8726H68.3083V21.3126ZM83.6794 34.4326C83.6794 35.3526 82.9594 36.0726 81.9794 36.0726C80.9594 36.0726 80.2394 35.3526 80.2394 34.4326C80.2394 33.5126 80.9594 32.7926 81.9794 32.7926C82.9594 32.7926 83.6794 33.5126 83.6794 34.4326ZM85.6147 28.4526C85.6147 24.2326 86.8947 21.0726 91.0147 21.0726C95.1347 21.0726 96.4147 24.2326 96.4147 28.4526C96.4147 32.7126 95.1347 35.8926 91.0147 35.8926C86.8947 35.8926 85.6147 32.7126 85.6147 28.4526ZM93.6547 28.4526C93.6547 25.9526 93.3747 23.6726 91.0147 23.6726C88.6547 23.6726 88.3747 25.9526 88.3747 28.4526C88.3747 31.0526 88.6547 33.2926 91.0147 33.2926C93.3747 33.2926 93.6547 31.0526 93.6547 28.4526Z" fill="#0B0B0B"/>
<path d="M202.861 21.3126H211.901V23.7726H205.421V27.1926C205.961 26.5326 207.061 26.0126 208.281 26.0126C211.681 26.0126 212.841 28.5726 212.841 30.8326C212.841 33.8126 211.121 35.9326 207.801 35.9326C204.661 35.9326 202.861 34.1926 202.621 31.8126H205.341C205.581 32.8326 206.401 33.5726 207.761 33.5726C209.401 33.5726 210.141 32.4126 210.141 30.8726C210.141 29.2326 209.321 28.3326 207.741 28.3326C206.581 28.3326 205.841 28.9726 205.541 29.8726H202.861V21.3126ZM218.232 34.4326C218.232 35.3526 217.512 36.0726 216.532 36.0726C215.512 36.0726 214.792 35.3526 214.792 34.4326C214.792 33.5126 215.512 32.7926 216.532 32.7926C217.512 32.7926 218.232 33.5126 218.232 34.4326ZM220.167 28.4526C220.167 24.2326 221.447 21.0726 225.567 21.0726C229.687 21.0726 230.967 24.2326 230.967 28.4526C230.967 32.7126 229.687 35.8926 225.567 35.8926C221.447 35.8926 220.167 32.7126 220.167 28.4526ZM228.207 28.4526C228.207 25.9526 227.927 23.6726 225.567 23.6726C223.207 23.6726 222.927 25.9526 222.927 28.4526C222.927 31.0526 223.207 33.2926 225.567 33.2926C227.927 33.2926 228.207 31.0526 228.207 28.4526Z" fill="#0B0B0B"/>
<path d="M196.8 25.7719C196.703 25.4792 196.439 25.2713 196.127 25.2436L191.881 24.8647L190.203 21.0033C190.079 20.7203 189.797 20.5371 189.484 20.5371C189.17 20.5371 188.888 20.7203 188.765 21.004L187.086 24.8647L182.84 25.2436C182.528 25.2719 182.264 25.4792 182.167 25.7719C182.071 26.0646 182.16 26.3856 182.396 26.588L185.605 29.3537L184.659 33.4501C184.59 33.7513 184.709 34.0626 184.963 34.2433C185.1 34.3403 185.259 34.3897 185.421 34.3897C185.56 34.3897 185.698 34.3529 185.821 34.2801L189.484 32.1292L193.144 34.2801C193.412 34.4385 193.75 34.424 194.004 34.2433C194.258 34.0621 194.377 33.7506 194.308 33.4501L193.361 29.3537L196.57 26.5885C196.807 26.3856 196.897 26.0651 196.8 25.7719Z" fill="#FFC107"/>
<rect x="1.0918" y="0.5" width="111.463" height="54.3525" rx="6.5" stroke="#8A8A8A"/>
<rect x="135.547" y="0.5" width="111.463" height="54.3525" rx="6.5" stroke="#8A8A8A"/>
<defs>
<clipPath id="clip0_622_6931">
<rect width="14.7092" height="14.4551" fill="white" transform="translate(47.5752 20.2266)"/>
</clipPath>
<clipPath id="clip1_622_6931">
<rect width="22.2139" height="21.8301" fill="white" transform="translate(16.7656 16.6865)"/>
</clipPath>
<clipPath id="clip2_622_6931">
<rect width="23.1145" height="22.7151" fill="white" transform="translate(146.527 15.5068)"/>
</clipPath>
</defs>
</svg>
