<svg width="1037" height="202" viewBox="0 0 1037 202" fill="none" xmlns="http://www.w3.org/2000/svg">
<g clip-path="url(#clip0_622_5802)">
<path d="M278.424 35.0307C278.07 34.0316 277.098 33.322 275.949 33.2275L260.341 31.9343L254.169 18.7534C253.714 17.7874 252.677 17.1621 251.526 17.1621C250.374 17.1621 249.338 17.7874 248.883 18.7557L242.711 31.9343L227.1 33.2275C225.953 33.3242 224.984 34.0316 224.628 35.0307C224.272 36.0298 224.601 37.1257 225.468 37.8165L237.266 47.2573L233.787 61.2401C233.533 62.2682 233.97 63.331 234.905 63.9476C235.408 64.2789 235.996 64.4475 236.589 64.4475C237.1 64.4475 237.607 64.3218 238.062 64.0733L251.526 56.7313L264.985 64.0733C265.97 64.6139 267.211 64.5646 268.144 63.9476C269.079 63.3291 269.516 62.266 269.262 61.2401L265.783 47.2573L277.581 37.8184C278.448 37.1257 278.78 36.0317 278.424 35.0307Z" fill="#FFC107"/>
</g>
<g clip-path="url(#clip1_622_5802)">
<path d="M347.949 34.0131C347.595 33.014 346.624 32.3044 345.475 32.2099L329.866 30.9168L323.694 17.7358C323.239 16.7698 322.203 16.1445 321.051 16.1445C319.9 16.1445 318.863 16.7698 318.408 17.7381L312.236 30.9168L296.625 32.2099C295.478 32.3066 294.509 33.014 294.153 34.0131C293.797 35.0122 294.126 36.1081 294.994 36.7989L306.792 46.2397L303.313 60.2225C303.058 61.2506 303.496 62.3134 304.431 62.93C304.933 63.2613 305.521 63.43 306.114 63.43C306.625 63.43 307.132 63.3042 307.587 63.0558L321.051 55.7137L334.51 63.0558C335.495 63.5963 336.736 63.547 337.669 62.93C338.605 62.3115 339.042 61.2484 338.787 60.2225L335.308 46.2397L347.106 36.8008C347.974 36.1081 348.305 35.0141 347.949 34.0131Z" fill="#FFC107"/>
</g>
<g clip-path="url(#clip2_622_5802)">
<path d="M417.474 33.0151C417.12 32.016 416.149 31.3063 415 31.2118L399.392 29.9187L393.22 16.7378C392.765 15.7718 391.728 15.1465 390.577 15.1465C389.425 15.1465 388.389 15.7718 387.933 16.74L381.761 29.9187L366.15 31.2118C365.003 31.3086 364.035 32.016 363.679 33.0151C363.323 34.0142 363.651 35.1101 364.519 35.8009L376.317 45.2417L372.838 59.2245C372.584 60.2526 373.021 61.3153 373.956 61.932C374.459 62.2633 375.046 62.4319 375.639 62.4319C376.151 62.4319 376.658 62.3062 377.113 62.0577L390.577 54.7156L404.035 62.0577C405.02 62.5983 406.262 62.549 407.195 61.932C408.13 61.3134 408.567 60.2503 408.312 59.2245L404.833 45.2417L416.632 35.8028C417.499 35.1101 417.831 34.0161 417.474 33.0151Z" fill="#FFC107"/>
</g>
<g clip-path="url(#clip3_622_5802)">
<path d="M486.998 33.0151C486.644 32.016 485.673 31.3063 484.524 31.2118L468.915 29.9187L462.743 16.7378C462.288 15.7718 461.252 15.1465 460.1 15.1465C458.948 15.1465 457.912 15.7718 457.457 16.74L451.285 29.9187L435.674 31.2118C434.527 31.3086 433.558 32.016 433.202 33.0151C432.846 34.0142 433.175 35.1101 434.043 35.8009L445.841 45.2417L442.362 59.2245C442.107 60.2526 442.544 61.3153 443.479 61.932C443.982 62.2633 444.57 62.4319 445.163 62.4319C445.674 62.4319 446.181 62.3062 446.636 62.0577L460.1 54.7156L473.559 62.0577C474.544 62.5983 475.785 62.549 476.718 61.932C477.653 61.3134 478.09 60.2503 477.836 59.2245L474.357 45.2417L486.155 35.8028C487.023 35.1101 487.354 34.0161 486.998 33.0151Z" fill="#FFC107"/>
</g>
<g clip-path="url(#clip4_622_5802)">
<path d="M556.541 33.0151C556.187 32.016 555.216 31.3063 554.067 31.2118L538.458 29.9187L532.286 16.7378C531.831 15.7718 530.795 15.1465 529.643 15.1465C528.491 15.1465 527.455 15.7718 527 16.74L520.828 29.9187L505.217 31.2118C504.07 31.3086 503.101 32.016 502.745 33.0151C502.389 34.0142 502.718 35.1101 503.585 35.8009L515.384 45.2417L511.905 59.2245C511.65 60.2526 512.087 61.3153 513.022 61.932C513.525 62.2633 514.113 62.4319 514.706 62.4319C515.217 62.4319 515.724 62.3062 516.179 62.0577L529.643 54.7156L543.102 62.0577C544.087 62.5983 545.328 62.549 546.261 61.932C547.196 61.3134 547.633 60.2503 547.379 59.2245L543.9 45.2417L555.698 35.8028C556.566 35.1101 556.897 34.0161 556.541 33.0151Z" fill="#FFC107"/>
</g>
<g clip-path="url(#clip5_622_5802)">
<path d="M687.211 34.5874L653.909 34.5859C652.438 34.5859 651.246 35.6792 651.246 37.0281V46.7865C651.246 48.1351 652.438 49.2286 653.908 49.2286H672.662C670.609 54.1171 666.776 58.211 661.886 60.8123L669.882 73.5098C682.71 66.7049 690.293 54.765 690.293 41.3992C690.293 39.4961 690.141 38.1356 689.835 36.6037C689.602 35.4399 688.501 34.5874 687.211 34.5874Z" fill="#167EE6"/>
<path d="M649.47 63.8904C640.292 63.8904 632.28 59.2908 627.977 52.4844L614.135 59.8028C621.179 71.0016 634.375 78.5428 649.47 78.5428C656.875 78.5428 663.862 76.714 669.881 73.5269V73.5095L661.884 60.8118C658.227 62.7578 653.994 63.8904 649.47 63.8904Z" fill="#12B347"/>
<path d="M669.882 73.5276V73.5102L661.885 60.8125C658.228 62.7583 653.995 63.891 649.471 63.891V78.5435C656.876 78.5435 663.863 76.7147 669.882 73.5276Z" fill="#0F993E"/>
<path d="M624.622 41.0977C624.622 36.9482 625.857 33.066 627.978 29.711L614.136 22.3926C610.642 27.8963 608.648 34.288 608.648 41.0977C608.648 47.9075 610.642 54.2992 614.136 59.8029L627.978 52.4844C625.857 49.1294 624.622 45.2472 624.622 41.0977Z" fill="#FFD500"/>
<path d="M649.47 18.3048C655.455 18.3048 660.952 20.2554 665.246 23.5001C666.305 24.3005 667.845 24.2428 668.815 23.3527L676.353 16.4385C677.454 15.4287 677.375 13.7757 676.199 12.8398C669.005 7.11499 659.645 3.65234 649.47 3.65234C634.375 3.65234 621.179 11.1936 614.135 22.3923L627.977 29.7108C632.28 22.9044 640.292 18.3048 649.47 18.3048Z" fill="#FF4B26"/>
<path d="M665.247 23.5001C666.306 24.3005 667.846 24.2428 668.816 23.3527L676.354 16.4385C677.454 15.4287 677.376 13.7757 676.2 12.8398C669.006 7.11484 659.646 3.65234 649.471 3.65234V18.3048C655.455 18.3048 660.953 20.2554 665.247 23.5001Z" fill="#D93F21"/>
</g>
<g clip-path="url(#clip6_622_5802)">
<path d="M812.268 38.815C812.268 58.1892 796.799 74.2474 776.579 77.1585V50.035H786.434L788.31 38.815H776.579V31.5342C776.579 28.4638 778.218 25.4724 783.472 25.4724H788.805V15.9202C788.805 15.9202 783.964 15.1621 779.336 15.1621C769.676 15.1621 763.361 20.5356 763.361 30.2636V38.815H752.621V50.035H763.361V77.1585C743.14 74.2474 727.672 58.1892 727.672 38.815C727.672 17.3788 746.61 0 769.97 0C793.329 0 812.268 17.3788 812.268 38.815Z" fill="#1877F2"/>
<path d="M786.435 50.035L788.31 38.815H776.579V31.534C776.579 28.4644 778.218 25.4724 783.472 25.4724H788.806V15.9202C788.806 15.9202 783.965 15.1621 779.337 15.1621C769.676 15.1621 763.361 20.5356 763.361 30.2636V38.815H752.621V50.035H763.361V77.1584C765.514 77.4684 767.721 77.63 769.97 77.63C772.218 77.63 774.425 77.4684 776.579 77.1584V50.035H786.435Z" fill="white"/>
</g>
<path d="M74.1792 143.626H63.9942L62.2442 148.596H58.0792L66.7942 124.236H71.4142L80.1292 148.596H75.9292L74.1792 143.626ZM73.0592 140.371L69.1042 129.066L65.1142 140.371H73.0592ZM116.355 128.996C117.872 128.996 119.225 129.311 120.415 129.941C121.629 130.571 122.574 131.504 123.25 132.741C123.95 133.977 124.3 135.471 124.3 137.221V148.596H120.345V137.816C120.345 136.089 119.914 134.771 119.05 133.861C118.187 132.927 117.009 132.461 115.515 132.461C114.022 132.461 112.832 132.927 111.945 133.861C111.082 134.771 110.65 136.089 110.65 137.816V148.596H106.695V137.816C106.695 136.089 106.264 134.771 105.4 133.861C104.537 132.927 103.359 132.461 101.865 132.461C100.372 132.461 99.1819 132.927 98.2953 133.861C97.4319 134.771 97.0003 136.089 97.0003 137.816V148.596H93.0103V129.311H97.0003V131.516C97.6536 130.722 98.4819 130.104 99.4853 129.661C100.489 129.217 101.562 128.996 102.705 128.996C104.245 128.996 105.622 129.322 106.835 129.976C108.049 130.629 108.982 131.574 109.635 132.811C110.219 131.644 111.129 130.722 112.365 130.046C113.602 129.346 114.932 128.996 116.355 128.996ZM147.052 138.481C147.052 139.204 147.006 139.857 146.912 140.441H132.177C132.294 141.981 132.866 143.217 133.892 144.151C134.919 145.084 136.179 145.551 137.672 145.551C139.819 145.551 141.336 144.652 142.222 142.856H146.527C145.944 144.629 144.882 146.087 143.342 147.231C141.826 148.351 139.936 148.911 137.672 148.911C135.829 148.911 134.172 148.502 132.702 147.686C131.256 146.846 130.112 145.679 129.272 144.186C128.456 142.669 128.047 140.919 128.047 138.936C128.047 136.952 128.444 135.214 129.237 133.721C130.054 132.204 131.186 131.037 132.632 130.221C134.102 129.404 135.782 128.996 137.672 128.996C139.492 128.996 141.114 129.392 142.537 130.186C143.961 130.979 145.069 132.099 145.862 133.546C146.656 134.969 147.052 136.614 147.052 138.481ZM142.887 137.221C142.864 135.751 142.339 134.572 141.312 133.686C140.286 132.799 139.014 132.356 137.497 132.356C136.121 132.356 134.942 132.799 133.962 133.686C132.982 134.549 132.399 135.727 132.212 137.221H142.887ZM155.634 132.566V143.241C155.634 143.964 155.797 144.489 156.124 144.816C156.474 145.119 157.057 145.271 157.874 145.271H160.324V148.596H157.174C155.377 148.596 154.001 148.176 153.044 147.336C152.087 146.496 151.609 145.131 151.609 143.241V132.566H149.334V129.311H151.609V124.516H155.634V129.311H160.324V132.566H155.634ZM173.976 128.996C175.446 128.996 176.753 129.311 177.896 129.941C179.063 130.571 179.973 131.504 180.626 132.741C181.303 133.977 181.641 135.471 181.641 137.221V148.596H177.686V137.816C177.686 136.089 177.255 134.771 176.391 133.861C175.528 132.927 174.35 132.461 172.856 132.461C171.363 132.461 170.173 132.927 169.286 133.861C168.423 134.771 167.991 136.089 167.991 137.816V148.596H164.001V122.696H167.991V131.551C168.668 130.734 169.52 130.104 170.546 129.661C171.596 129.217 172.74 128.996 173.976 128.996ZM195.096 148.911C193.276 148.911 191.631 148.502 190.161 147.686C188.691 146.846 187.536 145.679 186.696 144.186C185.856 142.669 185.436 140.919 185.436 138.936C185.436 136.976 185.868 135.237 186.731 133.721C187.594 132.204 188.773 131.037 190.266 130.221C191.759 129.404 193.428 128.996 195.271 128.996C197.114 128.996 198.783 129.404 200.276 130.221C201.769 131.037 202.948 132.204 203.811 133.721C204.674 135.237 205.106 136.976 205.106 138.936C205.106 140.896 204.663 142.634 203.776 144.151C202.889 145.667 201.676 146.846 200.136 147.686C198.619 148.502 196.939 148.911 195.096 148.911ZM195.096 145.446C196.123 145.446 197.079 145.201 197.966 144.711C198.876 144.221 199.611 143.486 200.171 142.506C200.731 141.526 201.011 140.336 201.011 138.936C201.011 137.536 200.743 136.357 200.206 135.401C199.669 134.421 198.958 133.686 198.071 133.196C197.184 132.706 196.228 132.461 195.201 132.461C194.174 132.461 193.218 132.706 192.331 133.196C191.468 133.686 190.779 134.421 190.266 135.401C189.753 136.357 189.496 137.536 189.496 138.936C189.496 141.012 190.021 142.622 191.071 143.766C192.144 144.886 193.486 145.446 195.096 145.446ZM207.72 138.866C207.72 136.929 208.117 135.214 208.91 133.721C209.727 132.227 210.824 131.072 212.2 130.256C213.6 129.416 215.152 128.996 216.855 128.996C218.115 128.996 219.352 129.276 220.565 129.836C221.802 130.372 222.782 131.096 223.505 132.006V122.696H227.53V148.596H223.505V145.691C222.852 146.624 221.942 147.394 220.775 148.001C219.632 148.607 218.314 148.911 216.82 148.911C215.14 148.911 213.6 148.491 212.2 147.651C210.824 146.787 209.727 145.597 208.91 144.081C208.117 142.541 207.72 140.802 207.72 138.866ZM223.505 138.936C223.505 137.606 223.225 136.451 222.665 135.471C222.129 134.491 221.417 133.744 220.53 133.231C219.644 132.717 218.687 132.461 217.66 132.461C216.634 132.461 215.677 132.717 214.79 133.231C213.904 133.721 213.18 134.456 212.62 135.436C212.084 136.392 211.815 137.536 211.815 138.866C211.815 140.196 212.084 141.362 212.62 142.366C213.18 143.369 213.904 144.139 214.79 144.676C215.7 145.189 216.657 145.446 217.66 145.446C218.687 145.446 219.644 145.189 220.53 144.676C221.417 144.162 222.129 143.416 222.665 142.436C223.225 141.432 223.505 140.266 223.505 138.936ZM240.533 138.866C240.533 136.929 240.929 135.214 241.723 133.721C242.539 132.227 243.636 131.072 245.013 130.256C246.413 129.416 247.953 128.996 249.633 128.996C251.149 128.996 252.468 129.299 253.588 129.906C254.731 130.489 255.641 131.224 256.318 132.111V129.311H260.343V148.596H256.318V145.726C255.641 146.636 254.719 147.394 253.553 148.001C252.386 148.607 251.056 148.911 249.563 148.911C247.906 148.911 246.389 148.491 245.013 147.651C243.636 146.787 242.539 145.597 241.723 144.081C240.929 142.541 240.533 140.802 240.533 138.866ZM256.318 138.936C256.318 137.606 256.038 136.451 255.478 135.471C254.941 134.491 254.229 133.744 253.343 133.231C252.456 132.717 251.499 132.461 250.473 132.461C249.446 132.461 248.489 132.717 247.603 133.231C246.716 133.721 245.993 134.456 245.433 135.436C244.896 136.392 244.628 137.536 244.628 138.866C244.628 140.196 244.896 141.362 245.433 142.366C245.993 143.369 246.716 144.139 247.603 144.676C248.513 145.189 249.469 145.446 250.473 145.446C251.499 145.446 252.456 145.189 253.343 144.676C254.229 144.162 254.941 143.416 255.478 142.436C256.038 141.432 256.318 140.266 256.318 138.936ZM269.573 132.146C270.25 131.259 271.172 130.512 272.338 129.906C273.505 129.299 274.823 128.996 276.293 128.996C277.973 128.996 279.502 129.416 280.878 130.256C282.278 131.072 283.375 132.227 284.168 133.721C284.962 135.214 285.358 136.929 285.358 138.866C285.358 140.802 284.962 142.541 284.168 144.081C283.375 145.597 282.278 146.787 280.878 147.651C279.502 148.491 277.973 148.911 276.293 148.911C274.823 148.911 273.517 148.619 272.373 148.036C271.23 147.429 270.297 146.682 269.573 145.796V157.766H265.583V129.311H269.573V132.146ZM281.298 138.866C281.298 137.536 281.018 136.392 280.458 135.436C279.922 134.456 279.198 133.721 278.288 133.231C277.402 132.717 276.445 132.461 275.418 132.461C274.415 132.461 273.458 132.717 272.548 133.231C271.662 133.744 270.938 134.491 270.378 135.471C269.842 136.451 269.573 137.606 269.573 138.936C269.573 140.266 269.842 141.432 270.378 142.436C270.938 143.416 271.662 144.162 272.548 144.676C273.458 145.189 274.415 145.446 275.418 145.446C276.445 145.446 277.402 145.189 278.288 144.676C279.198 144.139 279.922 143.369 280.458 142.366C281.018 141.362 281.298 140.196 281.298 138.866ZM293.294 132.146C293.971 131.259 294.893 130.512 296.059 129.906C297.226 129.299 298.544 128.996 300.014 128.996C301.694 128.996 303.223 129.416 304.599 130.256C305.999 131.072 307.096 132.227 307.889 133.721C308.683 135.214 309.079 136.929 309.079 138.866C309.079 140.802 308.683 142.541 307.889 144.081C307.096 145.597 305.999 146.787 304.599 147.651C303.223 148.491 301.694 148.911 300.014 148.911C298.544 148.911 297.238 148.619 296.094 148.036C294.951 147.429 294.018 146.682 293.294 145.796V157.766H289.304V129.311H293.294V132.146ZM305.019 138.866C305.019 137.536 304.739 136.392 304.179 135.436C303.643 134.456 302.919 133.721 302.009 133.231C301.123 132.717 300.166 132.461 299.139 132.461C298.136 132.461 297.179 132.717 296.269 133.231C295.383 133.744 294.659 134.491 294.099 135.471C293.563 136.451 293.294 137.606 293.294 138.936C293.294 140.266 293.563 141.432 294.099 142.436C294.659 143.416 295.383 144.162 296.269 144.676C297.179 145.189 298.136 145.446 299.139 145.446C300.166 145.446 301.123 145.189 302.009 144.676C302.919 144.139 303.643 143.369 304.179 142.366C304.739 141.362 305.019 140.196 305.019 138.866ZM317.015 132.111C317.598 131.131 318.368 130.372 319.325 129.836C320.305 129.276 321.46 128.996 322.79 128.996V133.126H321.775C320.212 133.126 319.022 133.522 318.205 134.316C317.412 135.109 317.015 136.486 317.015 138.446V148.596H313.025V129.311H317.015V132.111ZM334.823 148.911C333.003 148.911 331.358 148.502 329.888 147.686C328.418 146.846 327.263 145.679 326.423 144.186C325.583 142.669 325.163 140.919 325.163 138.936C325.163 136.976 325.594 135.237 326.458 133.721C327.321 132.204 328.499 131.037 329.993 130.221C331.486 129.404 333.154 128.996 334.998 128.996C336.841 128.996 338.509 129.404 340.003 130.221C341.496 131.037 342.674 132.204 343.538 133.721C344.401 135.237 344.833 136.976 344.833 138.936C344.833 140.896 344.389 142.634 343.503 144.151C342.616 145.667 341.403 146.846 339.863 147.686C338.346 148.502 336.666 148.911 334.823 148.911ZM334.823 145.446C335.849 145.446 336.806 145.201 337.693 144.711C338.603 144.221 339.338 143.486 339.898 142.506C340.458 141.526 340.738 140.336 340.738 138.936C340.738 137.536 340.469 136.357 339.933 135.401C339.396 134.421 338.684 133.686 337.798 133.196C336.911 132.706 335.954 132.461 334.928 132.461C333.901 132.461 332.944 132.706 332.058 133.196C331.194 133.686 330.506 134.421 329.993 135.401C329.479 136.357 329.223 137.536 329.223 138.936C329.223 141.012 329.748 142.622 330.798 143.766C331.871 144.886 333.213 145.446 334.823 145.446ZM356.232 145.026L361.692 129.311H365.927L358.577 148.596H353.817L346.502 129.311H350.772L356.232 145.026ZM386.618 138.481C386.618 139.204 386.571 139.857 386.478 140.441H371.743C371.86 141.981 372.431 143.217 373.458 144.151C374.485 145.084 375.745 145.551 377.238 145.551C379.385 145.551 380.901 144.652 381.788 142.856H386.093C385.51 144.629 384.448 146.087 382.908 147.231C381.391 148.351 379.501 148.911 377.238 148.911C375.395 148.911 373.738 148.502 372.268 147.686C370.821 146.846 369.678 145.679 368.838 144.186C368.021 142.669 367.613 140.919 367.613 138.936C367.613 136.952 368.01 135.214 368.803 133.721C369.62 132.204 370.751 131.037 372.198 130.221C373.668 129.404 375.348 128.996 377.238 128.996C379.058 128.996 380.68 129.392 382.103 130.186C383.526 130.979 384.635 132.099 385.428 133.546C386.221 134.969 386.618 136.614 386.618 138.481ZM382.453 137.221C382.43 135.751 381.905 134.572 380.878 133.686C379.851 132.799 378.58 132.356 377.063 132.356C375.686 132.356 374.508 132.799 373.528 133.686C372.548 134.549 371.965 135.727 371.778 137.221H382.453ZM389.214 138.866C389.214 136.929 389.611 135.214 390.404 133.721C391.221 132.227 392.318 131.072 393.694 130.256C395.094 129.416 396.646 128.996 398.349 128.996C399.609 128.996 400.846 129.276 402.059 129.836C403.296 130.372 404.276 131.096 404.999 132.006V122.696H409.024V148.596H404.999V145.691C404.346 146.624 403.436 147.394 402.269 148.001C401.126 148.607 399.808 148.911 398.314 148.911C396.634 148.911 395.094 148.491 393.694 147.651C392.318 146.787 391.221 145.597 390.404 144.081C389.611 142.541 389.214 140.802 389.214 138.866ZM404.999 138.936C404.999 137.606 404.719 136.451 404.159 135.471C403.623 134.491 402.911 133.744 402.024 133.231C401.138 132.717 400.181 132.461 399.154 132.461C398.128 132.461 397.171 132.717 396.284 133.231C395.398 133.721 394.674 134.456 394.114 135.436C393.578 136.392 393.309 137.536 393.309 138.866C393.309 140.196 393.578 141.362 394.114 142.366C394.674 143.369 395.398 144.139 396.284 144.676C397.194 145.189 398.151 145.446 399.154 145.446C400.181 145.446 401.138 145.189 402.024 144.676C402.911 144.162 403.623 143.416 404.159 142.436C404.719 141.432 404.999 140.266 404.999 138.936ZM427.347 132.181C428.024 131.247 428.945 130.489 430.112 129.906C431.302 129.299 432.62 128.996 434.067 128.996C435.77 128.996 437.31 129.404 438.687 130.221C440.064 131.037 441.149 132.204 441.942 133.721C442.735 135.214 443.132 136.929 443.132 138.866C443.132 140.802 442.735 142.541 441.942 144.081C441.149 145.597 440.052 146.787 438.652 147.651C437.275 148.491 435.747 148.911 434.067 148.911C432.574 148.911 431.244 148.619 430.077 148.036C428.934 147.452 428.024 146.706 427.347 145.796V148.596H423.357V122.696H427.347V132.181ZM439.072 138.866C439.072 137.536 438.792 136.392 438.232 135.436C437.695 134.456 436.972 133.721 436.062 133.231C435.175 132.717 434.219 132.461 433.192 132.461C432.189 132.461 431.232 132.717 430.322 133.231C429.435 133.744 428.712 134.491 428.152 135.471C427.615 136.451 427.347 137.606 427.347 138.936C427.347 140.266 427.615 141.432 428.152 142.436C428.712 143.416 429.435 144.162 430.322 144.676C431.232 145.189 432.189 145.446 433.192 145.446C434.219 145.446 435.175 145.189 436.062 144.676C436.972 144.139 437.695 143.369 438.232 142.366C438.792 141.362 439.072 140.196 439.072 138.866ZM464.438 129.311L452.608 157.661H448.478L452.398 148.281L444.803 129.311H449.248L454.673 144.011L460.308 129.311H464.438ZM484.906 148.911C483.086 148.911 481.441 148.502 479.971 147.686C478.501 146.846 477.346 145.679 476.506 144.186C475.666 142.669 475.246 140.919 475.246 138.936C475.246 136.976 475.677 135.237 476.541 133.721C477.404 132.204 478.582 131.037 480.076 130.221C481.569 129.404 483.237 128.996 485.081 128.996C486.924 128.996 488.592 129.404 490.086 130.221C491.579 131.037 492.757 132.204 493.621 133.721C494.484 135.237 494.916 136.976 494.916 138.936C494.916 140.896 494.472 142.634 493.586 144.151C492.699 145.667 491.486 146.846 489.946 147.686C488.429 148.502 486.749 148.911 484.906 148.911ZM484.906 145.446C485.932 145.446 486.889 145.201 487.776 144.711C488.686 144.221 489.421 143.486 489.981 142.506C490.541 141.526 490.821 140.336 490.821 138.936C490.821 137.536 490.552 136.357 490.016 135.401C489.479 134.421 488.767 133.686 487.881 133.196C486.994 132.706 486.037 132.461 485.011 132.461C483.984 132.461 483.027 132.706 482.141 133.196C481.277 133.686 480.589 134.421 480.076 135.401C479.562 136.357 479.306 137.536 479.306 138.936C479.306 141.012 479.831 142.622 480.881 143.766C481.954 144.886 483.296 145.446 484.906 145.446ZM506.315 145.026L511.775 129.311H516.01L508.66 148.596H503.9L496.585 129.311H500.855L506.315 145.026ZM536.701 138.481C536.701 139.204 536.654 139.857 536.561 140.441H521.826C521.943 141.981 522.514 143.217 523.541 144.151C524.568 145.084 525.828 145.551 527.321 145.551C529.468 145.551 530.984 144.652 531.871 142.856H536.176C535.593 144.629 534.531 146.087 532.991 147.231C531.474 148.351 529.584 148.911 527.321 148.911C525.478 148.911 523.821 148.502 522.351 147.686C520.904 146.846 519.761 145.679 518.921 144.186C518.104 142.669 517.696 140.919 517.696 138.936C517.696 136.952 518.093 135.214 518.886 133.721C519.703 132.204 520.834 131.037 522.281 130.221C523.751 129.404 525.431 128.996 527.321 128.996C529.141 128.996 530.763 129.392 532.186 130.186C533.609 130.979 534.718 132.099 535.511 133.546C536.304 134.969 536.701 136.614 536.701 138.481ZM532.536 137.221C532.513 135.751 531.988 134.572 530.961 133.686C529.934 132.799 528.663 132.356 527.146 132.356C525.769 132.356 524.591 132.799 523.611 133.686C522.631 134.549 522.048 135.727 521.861 137.221H532.536ZM544.617 132.111C545.201 131.131 545.971 130.372 546.927 129.836C547.907 129.276 549.062 128.996 550.392 128.996V133.126H549.377C547.814 133.126 546.624 133.522 545.807 134.316C545.014 135.109 544.617 136.486 544.617 138.446V148.596H540.627V129.311H544.617V132.111ZM562.557 129.381C562.697 127.211 563.525 125.519 565.042 124.306C566.582 123.092 568.542 122.486 570.922 122.486C572.555 122.486 573.967 122.777 575.157 123.361C576.347 123.944 577.245 124.737 577.852 125.741C578.459 126.744 578.762 127.876 578.762 129.136C578.762 130.582 578.377 131.819 577.607 132.846C576.837 133.872 575.915 134.561 574.842 134.911V135.051C576.219 135.471 577.292 136.241 578.062 137.361C578.832 138.457 579.217 139.869 579.217 141.596C579.217 142.972 578.902 144.197 578.272 145.271C577.642 146.344 576.709 147.196 575.472 147.826C574.235 148.432 572.754 148.736 571.027 148.736C568.507 148.736 566.43 148.094 564.797 146.811C563.187 145.504 562.324 143.637 562.207 141.211H566.057C566.15 142.447 566.629 143.462 567.492 144.256C568.355 145.026 569.522 145.411 570.992 145.411C572.415 145.411 573.512 145.026 574.282 144.256C575.052 143.462 575.437 142.447 575.437 141.211C575.437 139.577 574.912 138.422 573.862 137.746C572.835 137.046 571.249 136.696 569.102 136.696H568.192V133.406H569.137C571.027 133.382 572.462 133.067 573.442 132.461C574.445 131.854 574.947 130.897 574.947 129.591C574.947 128.471 574.585 127.584 573.862 126.931C573.139 126.254 572.112 125.916 570.782 125.916C569.475 125.916 568.46 126.254 567.737 126.931C567.014 127.584 566.582 128.401 566.442 129.381H562.557ZM588.308 143.801L584.073 153.461H581.483L583.968 143.801H588.308ZM591.269 135.506C591.269 131.469 591.946 128.319 593.299 126.056C594.676 123.769 597.033 122.626 600.369 122.626C603.706 122.626 606.051 123.769 607.404 126.056C608.781 128.319 609.469 131.469 609.469 135.506C609.469 139.589 608.781 142.786 607.404 145.096C606.051 147.382 603.706 148.526 600.369 148.526C597.033 148.526 594.676 147.382 593.299 145.096C591.946 142.786 591.269 139.589 591.269 135.506ZM605.549 135.506C605.549 133.616 605.421 132.017 605.164 130.711C604.931 129.404 604.441 128.342 603.694 127.526C602.948 126.686 601.839 126.266 600.369 126.266C598.899 126.266 597.791 126.686 597.044 127.526C596.298 128.342 595.796 129.404 595.539 130.711C595.306 132.017 595.189 133.616 595.189 135.506C595.189 137.466 595.306 139.111 595.539 140.441C595.773 141.771 596.263 142.844 597.009 143.661C597.779 144.477 598.899 144.886 600.369 144.886C601.839 144.886 602.948 144.477 603.694 143.661C604.464 142.844 604.966 141.771 605.199 140.441C605.433 139.111 605.549 137.466 605.549 135.506ZM613.691 135.506C613.691 131.469 614.368 128.319 615.721 126.056C617.098 123.769 619.455 122.626 622.791 122.626C626.128 122.626 628.473 123.769 629.826 126.056C631.203 128.319 631.891 131.469 631.891 135.506C631.891 139.589 631.203 142.786 629.826 145.096C628.473 147.382 626.128 148.526 622.791 148.526C619.455 148.526 617.098 147.382 615.721 145.096C614.368 142.786 613.691 139.589 613.691 135.506ZM627.971 135.506C627.971 133.616 627.843 132.017 627.586 130.711C627.353 129.404 626.863 128.342 626.116 127.526C625.37 126.686 624.261 126.266 622.791 126.266C621.321 126.266 620.213 126.686 619.466 127.526C618.72 128.342 618.218 129.404 617.961 130.711C617.728 132.017 617.611 133.616 617.611 135.506C617.611 137.466 617.728 139.111 617.961 140.441C618.195 141.771 618.685 142.844 619.431 143.661C620.201 144.477 621.321 144.886 622.791 144.886C624.261 144.886 625.37 144.477 626.116 143.661C626.886 142.844 627.388 141.771 627.621 140.441C627.855 139.111 627.971 137.466 627.971 135.506ZM636.113 135.506C636.113 131.469 636.79 128.319 638.143 126.056C639.52 123.769 641.877 122.626 645.213 122.626C648.55 122.626 650.895 123.769 652.248 126.056C653.625 128.319 654.313 131.469 654.313 135.506C654.313 139.589 653.625 142.786 652.248 145.096C650.895 147.382 648.55 148.526 645.213 148.526C641.877 148.526 639.52 147.382 638.143 145.096C636.79 142.786 636.113 139.589 636.113 135.506ZM650.393 135.506C650.393 133.616 650.265 132.017 650.008 130.711C649.775 129.404 649.285 128.342 648.538 127.526C647.792 126.686 646.683 126.266 645.213 126.266C643.743 126.266 642.635 126.686 641.888 127.526C641.142 128.342 640.64 129.404 640.383 130.711C640.15 132.017 640.033 133.616 640.033 135.506C640.033 137.466 640.15 139.111 640.383 140.441C640.617 141.771 641.107 142.844 641.853 143.661C642.623 144.477 643.743 144.886 645.213 144.886C646.683 144.886 647.792 144.477 648.538 143.661C649.308 142.844 649.81 141.771 650.043 140.441C650.277 139.111 650.393 137.466 650.393 135.506ZM666.822 138.936C666.822 136.952 667.219 135.214 668.012 133.721C668.829 132.204 669.949 131.037 671.372 130.221C672.795 129.404 674.429 128.996 676.272 128.996C678.605 128.996 680.53 129.556 682.047 130.676C683.587 131.772 684.625 133.347 685.162 135.401H680.857C680.507 134.444 679.947 133.697 679.177 133.161C678.407 132.624 677.439 132.356 676.272 132.356C674.639 132.356 673.332 132.939 672.352 134.106C671.395 135.249 670.917 136.859 670.917 138.936C670.917 141.012 671.395 142.634 672.352 143.801C673.332 144.967 674.639 145.551 676.272 145.551C678.582 145.551 680.11 144.536 680.857 142.506H685.162C684.602 144.466 683.552 146.029 682.012 147.196C680.472 148.339 678.559 148.911 676.272 148.911C674.429 148.911 672.795 148.502 671.372 147.686C669.949 146.846 668.829 145.679 668.012 144.186C667.219 142.669 666.822 140.919 666.822 138.936ZM706.603 129.311V148.596H702.613V146.321C701.983 147.114 701.155 147.744 700.128 148.211C699.125 148.654 698.052 148.876 696.908 148.876C695.392 148.876 694.027 148.561 692.813 147.931C691.623 147.301 690.678 146.367 689.978 145.131C689.302 143.894 688.963 142.401 688.963 140.651V129.311H692.918V140.056C692.918 141.782 693.35 143.112 694.213 144.046C695.077 144.956 696.255 145.411 697.748 145.411C699.242 145.411 700.42 144.956 701.283 144.046C702.17 143.112 702.613 141.782 702.613 140.056V129.311H706.603ZM718.868 148.911C717.351 148.911 715.986 148.642 714.773 148.106C713.583 147.546 712.638 146.799 711.938 145.866C711.238 144.909 710.864 143.847 710.818 142.681H714.948C715.018 143.497 715.403 144.186 716.103 144.746C716.826 145.282 717.724 145.551 718.798 145.551C719.918 145.551 720.781 145.341 721.388 144.921C722.018 144.477 722.333 143.917 722.333 143.241C722.333 142.517 721.983 141.981 721.283 141.631C720.606 141.281 719.521 140.896 718.028 140.476C716.581 140.079 715.403 139.694 714.493 139.321C713.583 138.947 712.789 138.376 712.113 137.606C711.459 136.836 711.133 135.821 711.133 134.561C711.133 133.534 711.436 132.601 712.043 131.761C712.649 130.897 713.513 130.221 714.633 129.731C715.776 129.241 717.083 128.996 718.553 128.996C720.746 128.996 722.508 129.556 723.838 130.676C725.191 131.772 725.914 133.277 726.008 135.191H722.018C721.948 134.327 721.598 133.639 720.968 133.126C720.338 132.612 719.486 132.356 718.413 132.356C717.363 132.356 716.558 132.554 715.998 132.951C715.438 133.347 715.158 133.872 715.158 134.526C715.158 135.039 715.344 135.471 715.718 135.821C716.091 136.171 716.546 136.451 717.083 136.661C717.619 136.847 718.413 137.092 719.463 137.396C720.863 137.769 722.006 138.154 722.893 138.551C723.803 138.924 724.584 139.484 725.238 140.231C725.891 140.977 726.229 141.969 726.253 143.206C726.253 144.302 725.949 145.282 725.343 146.146C724.736 147.009 723.873 147.686 722.753 148.176C721.656 148.666 720.361 148.911 718.868 148.911ZM735.219 132.566V143.241C735.219 143.964 735.382 144.489 735.709 144.816C736.059 145.119 736.642 145.271 737.459 145.271H739.909V148.596H736.759C734.962 148.596 733.586 148.176 732.629 147.336C731.672 146.496 731.194 145.131 731.194 143.241V132.566H728.919V129.311H731.194V124.516H735.219V129.311H739.909V132.566H735.219ZM751.951 148.911C750.131 148.911 748.486 148.502 747.016 147.686C745.546 146.846 744.391 145.679 743.551 144.186C742.711 142.669 742.291 140.919 742.291 138.936C742.291 136.976 742.723 135.237 743.586 133.721C744.45 132.204 745.628 131.037 747.121 130.221C748.615 129.404 750.283 128.996 752.126 128.996C753.97 128.996 755.638 129.404 757.131 130.221C758.625 131.037 759.803 132.204 760.666 133.721C761.53 135.237 761.961 136.976 761.961 138.936C761.961 140.896 761.518 142.634 760.631 144.151C759.745 145.667 758.531 146.846 756.991 147.686C755.475 148.502 753.795 148.911 751.951 148.911ZM751.951 145.446C752.978 145.446 753.935 145.201 754.821 144.711C755.731 144.221 756.466 143.486 757.026 142.506C757.586 141.526 757.866 140.336 757.866 138.936C757.866 137.536 757.598 136.357 757.061 135.401C756.525 134.421 755.813 133.686 754.926 133.196C754.04 132.706 753.083 132.461 752.056 132.461C751.03 132.461 750.073 132.706 749.186 133.196C748.323 133.686 747.635 134.421 747.121 135.401C746.608 136.357 746.351 137.536 746.351 138.936C746.351 141.012 746.876 142.622 747.926 143.766C749 144.886 750.341 145.446 751.951 145.446ZM789.251 128.996C790.767 128.996 792.121 129.311 793.311 129.941C794.524 130.571 795.469 131.504 796.146 132.741C796.846 133.977 797.196 135.471 797.196 137.221V148.596H793.241V137.816C793.241 136.089 792.809 134.771 791.946 133.861C791.082 132.927 789.904 132.461 788.411 132.461C786.917 132.461 785.727 132.927 784.841 133.861C783.977 134.771 783.546 136.089 783.546 137.816V148.596H779.591V137.816C779.591 136.089 779.159 134.771 778.296 133.861C777.432 132.927 776.254 132.461 774.761 132.461C773.267 132.461 772.077 132.927 771.191 133.861C770.327 134.771 769.896 136.089 769.896 137.816V148.596H765.906V129.311H769.896V131.516C770.549 130.722 771.377 130.104 772.381 129.661C773.384 129.217 774.457 128.996 775.601 128.996C777.141 128.996 778.517 129.322 779.731 129.976C780.944 130.629 781.877 131.574 782.531 132.811C783.114 131.644 784.024 130.722 785.261 130.046C786.497 129.346 787.827 128.996 789.251 128.996ZM819.948 138.481C819.948 139.204 819.901 139.857 819.808 140.441H805.073C805.19 141.981 805.761 143.217 806.788 144.151C807.815 145.084 809.075 145.551 810.568 145.551C812.715 145.551 814.231 144.652 815.118 142.856H819.423C818.84 144.629 817.778 146.087 816.238 147.231C814.721 148.351 812.831 148.911 810.568 148.911C808.725 148.911 807.068 148.502 805.598 147.686C804.151 146.846 803.008 145.679 802.168 144.186C801.351 142.669 800.943 140.919 800.943 138.936C800.943 136.952 801.34 135.214 802.133 133.721C802.95 132.204 804.081 131.037 805.528 130.221C806.998 129.404 808.678 128.996 810.568 128.996C812.388 128.996 814.01 129.392 815.433 130.186C816.856 130.979 817.965 132.099 818.758 133.546C819.551 134.969 819.948 136.614 819.948 138.481ZM815.783 137.221C815.76 135.751 815.235 134.572 814.208 133.686C813.181 132.799 811.91 132.356 810.393 132.356C809.016 132.356 807.838 132.799 806.858 133.686C805.878 134.549 805.295 135.727 805.108 137.221H815.783ZM827.865 132.111C828.448 131.131 829.218 130.372 830.175 129.836C831.155 129.276 832.31 128.996 833.64 128.996V133.126H832.625C831.061 133.126 829.871 133.522 829.055 134.316C828.261 135.109 827.865 136.486 827.865 138.446V148.596H823.875V129.311H827.865V132.111ZM844.307 148.911C842.79 148.911 841.425 148.642 840.212 148.106C839.022 147.546 838.077 146.799 837.377 145.866C836.677 144.909 836.304 143.847 836.257 142.681H840.387C840.457 143.497 840.842 144.186 841.542 144.746C842.265 145.282 843.164 145.551 844.237 145.551C845.357 145.551 846.22 145.341 846.827 144.921C847.457 144.477 847.772 143.917 847.772 143.241C847.772 142.517 847.422 141.981 846.722 141.631C846.045 141.281 844.96 140.896 843.467 140.476C842.02 140.079 840.842 139.694 839.932 139.321C839.022 138.947 838.229 138.376 837.552 137.606C836.899 136.836 836.572 135.821 836.572 134.561C836.572 133.534 836.875 132.601 837.482 131.761C838.089 130.897 838.952 130.221 840.072 129.731C841.215 129.241 842.522 128.996 843.992 128.996C846.185 128.996 847.947 129.556 849.277 130.676C850.63 131.772 851.354 133.277 851.447 135.191H847.457C847.387 134.327 847.037 133.639 846.407 133.126C845.777 132.612 844.925 132.356 843.852 132.356C842.802 132.356 841.997 132.554 841.437 132.951C840.877 133.347 840.597 133.872 840.597 134.526C840.597 135.039 840.784 135.471 841.157 135.821C841.53 136.171 841.985 136.451 842.522 136.661C843.059 136.847 843.852 137.092 844.902 137.396C846.302 137.769 847.445 138.154 848.332 138.551C849.242 138.924 850.024 139.484 850.677 140.231C851.33 140.977 851.669 141.969 851.692 143.206C851.692 144.302 851.389 145.282 850.782 146.146C850.175 147.009 849.312 147.686 848.192 148.176C847.095 148.666 845.8 148.911 844.307 148.911ZM863.765 138.866C863.765 136.929 864.162 135.214 864.955 133.721C865.772 132.227 866.869 131.072 868.245 130.256C869.645 129.416 871.185 128.996 872.865 128.996C874.382 128.996 875.7 129.299 876.82 129.906C877.964 130.489 878.874 131.224 879.55 132.111V129.311H883.575V148.596H879.55V145.726C878.874 146.636 877.952 147.394 876.785 148.001C875.619 148.607 874.289 148.911 872.795 148.911C871.139 148.911 869.622 148.491 868.245 147.651C866.869 146.787 865.772 145.597 864.955 144.081C864.162 142.541 863.765 140.802 863.765 138.866ZM879.55 138.936C879.55 137.606 879.27 136.451 878.71 135.471C878.174 134.491 877.462 133.744 876.575 133.231C875.689 132.717 874.732 132.461 873.705 132.461C872.679 132.461 871.722 132.717 870.835 133.231C869.949 133.721 869.225 134.456 868.665 135.436C868.129 136.392 867.86 137.536 867.86 138.866C867.86 140.196 868.129 141.362 868.665 142.366C869.225 143.369 869.949 144.139 870.835 144.676C871.745 145.189 872.702 145.446 873.705 145.446C874.732 145.446 875.689 145.189 876.575 144.676C877.462 144.162 878.174 143.416 878.71 142.436C879.27 141.432 879.55 140.266 879.55 138.936ZM887.486 138.936C887.486 136.952 887.883 135.214 888.676 133.721C889.493 132.204 890.613 131.037 892.036 130.221C893.459 129.404 895.093 128.996 896.936 128.996C899.269 128.996 901.194 129.556 902.711 130.676C904.251 131.772 905.289 133.347 905.826 135.401H901.521C901.171 134.444 900.611 133.697 899.841 133.161C899.071 132.624 898.103 132.356 896.936 132.356C895.303 132.356 893.996 132.939 893.016 134.106C892.059 135.249 891.581 136.859 891.581 138.936C891.581 141.012 892.059 142.634 893.016 143.801C893.996 144.967 895.303 145.551 896.936 145.551C899.246 145.551 900.774 144.536 901.521 142.506H905.826C905.266 144.466 904.216 146.029 902.676 147.196C901.136 148.339 899.223 148.911 896.936 148.911C895.093 148.911 893.459 148.502 892.036 147.686C890.613 146.846 889.493 145.679 888.676 144.186C887.883 142.669 887.486 140.919 887.486 138.936ZM913.792 132.111C914.376 131.131 915.146 130.372 916.102 129.836C917.082 129.276 918.237 128.996 919.567 128.996V133.126H918.552C916.989 133.126 915.799 133.522 914.982 134.316C914.189 135.109 913.792 136.486 913.792 138.446V148.596H909.802V129.311H913.792V132.111ZM931.6 148.911C929.78 148.911 928.135 148.502 926.665 147.686C925.195 146.846 924.04 145.679 923.2 144.186C922.36 142.669 921.94 140.919 921.94 138.936C921.94 136.976 922.372 135.237 923.235 133.721C924.098 132.204 925.277 131.037 926.77 130.221C928.263 129.404 929.932 128.996 931.775 128.996C933.618 128.996 935.287 129.404 936.78 130.221C938.273 131.037 939.452 132.204 940.315 133.721C941.178 135.237 941.61 136.976 941.61 138.936C941.61 140.896 941.167 142.634 940.28 144.151C939.393 145.667 938.18 146.846 936.64 147.686C935.123 148.502 933.443 148.911 931.6 148.911ZM931.6 145.446C932.627 145.446 933.583 145.201 934.47 144.711C935.38 144.221 936.115 143.486 936.675 142.506C937.235 141.526 937.515 140.336 937.515 138.936C937.515 137.536 937.247 136.357 936.71 135.401C936.173 134.421 935.462 133.686 934.575 133.196C933.688 132.706 932.732 132.461 931.705 132.461C930.678 132.461 929.722 132.706 928.835 133.196C927.972 133.686 927.283 134.421 926.77 135.401C926.257 136.357 926 137.536 926 138.936C926 141.012 926.525 142.622 927.575 143.766C928.648 144.886 929.99 145.446 931.6 145.446ZM952.554 148.911C951.038 148.911 949.673 148.642 948.459 148.106C947.269 147.546 946.324 146.799 945.624 145.866C944.924 144.909 944.551 143.847 944.504 142.681H948.634C948.704 143.497 949.089 144.186 949.789 144.746C950.513 145.282 951.411 145.551 952.484 145.551C953.604 145.551 954.468 145.341 955.074 144.921C955.704 144.477 956.019 143.917 956.019 143.241C956.019 142.517 955.669 141.981 954.969 141.631C954.293 141.281 953.208 140.896 951.714 140.476C950.268 140.079 949.089 139.694 948.179 139.321C947.269 138.947 946.476 138.376 945.799 137.606C945.146 136.836 944.819 135.821 944.819 134.561C944.819 133.534 945.123 132.601 945.729 131.761C946.336 130.897 947.199 130.221 948.319 129.731C949.463 129.241 950.769 128.996 952.239 128.996C954.433 128.996 956.194 129.556 957.524 130.676C958.878 131.772 959.601 133.277 959.694 135.191H955.704C955.634 134.327 955.284 133.639 954.654 133.126C954.024 132.612 953.173 132.356 952.099 132.356C951.049 132.356 950.244 132.554 949.684 132.951C949.124 133.347 948.844 133.872 948.844 134.526C948.844 135.039 949.031 135.471 949.404 135.821C949.778 136.171 950.233 136.451 950.769 136.661C951.306 136.847 952.099 137.092 953.149 137.396C954.549 137.769 955.693 138.154 956.579 138.551C957.489 138.924 958.271 139.484 958.924 140.231C959.578 140.977 959.916 141.969 959.939 143.206C959.939 144.302 959.636 145.282 959.029 146.146C958.423 147.009 957.559 147.686 956.439 148.176C955.343 148.666 954.048 148.911 952.554 148.911ZM971.25 148.911C969.734 148.911 968.369 148.642 967.155 148.106C965.965 147.546 965.02 146.799 964.32 145.866C963.62 144.909 963.247 143.847 963.2 142.681H967.33C967.4 143.497 967.785 144.186 968.485 144.746C969.209 145.282 970.107 145.551 971.18 145.551C972.3 145.551 973.164 145.341 973.77 144.921C974.4 144.477 974.715 143.917 974.715 143.241C974.715 142.517 974.365 141.981 973.665 141.631C972.989 141.281 971.904 140.896 970.41 140.476C968.964 140.079 967.785 139.694 966.875 139.321C965.965 138.947 965.172 138.376 964.495 137.606C963.842 136.836 963.515 135.821 963.515 134.561C963.515 133.534 963.819 132.601 964.425 131.761C965.032 130.897 965.895 130.221 967.015 129.731C968.159 129.241 969.465 128.996 970.935 128.996C973.129 128.996 974.89 129.556 976.22 130.676C977.574 131.772 978.297 133.277 978.39 135.191H974.4C974.33 134.327 973.98 133.639 973.35 133.126C972.72 132.612 971.869 132.356 970.795 132.356C969.745 132.356 968.94 132.554 968.38 132.951C967.82 133.347 967.54 133.872 967.54 134.526C967.54 135.039 967.727 135.471 968.1 135.821C968.474 136.171 968.929 136.451 969.465 136.661C970.002 136.847 970.795 137.092 971.845 137.396C973.245 137.769 974.389 138.154 975.275 138.551C976.185 138.924 976.967 139.484 977.62 140.231C978.274 140.977 978.612 141.969 978.635 143.206C978.635 144.302 978.332 145.282 977.725 146.146C977.119 147.009 976.255 147.686 975.135 148.176C974.039 148.666 972.744 148.911 971.25 148.911ZM475.304 177.271V180.526H464.979V187.701H473.029V190.956H464.979V201.596H460.989V177.271H475.304ZM482.991 185.111C483.575 184.131 484.345 183.372 485.301 182.836C486.281 182.276 487.436 181.996 488.766 181.996V186.126H487.751C486.188 186.126 484.998 186.522 484.181 187.316C483.388 188.109 482.991 189.486 482.991 191.446V201.596H479.001V182.311H482.991V185.111ZM491.104 191.866C491.104 189.929 491.501 188.214 492.294 186.721C493.111 185.227 494.207 184.072 495.584 183.256C496.984 182.416 498.524 181.996 500.204 181.996C501.721 181.996 503.039 182.299 504.159 182.906C505.302 183.489 506.212 184.224 506.889 185.111V182.311H510.914V201.596H506.889V198.726C506.212 199.636 505.291 200.394 504.124 201.001C502.957 201.607 501.627 201.911 500.134 201.911C498.477 201.911 496.961 201.491 495.584 200.651C494.207 199.787 493.111 198.597 492.294 197.081C491.501 195.541 491.104 193.802 491.104 191.866ZM506.889 191.936C506.889 190.606 506.609 189.451 506.049 188.471C505.512 187.491 504.801 186.744 503.914 186.231C503.027 185.717 502.071 185.461 501.044 185.461C500.017 185.461 499.061 185.717 498.174 186.231C497.287 186.721 496.564 187.456 496.004 188.436C495.467 189.392 495.199 190.536 495.199 191.866C495.199 193.196 495.467 194.362 496.004 195.366C496.564 196.369 497.287 197.139 498.174 197.676C499.084 198.189 500.041 198.446 501.044 198.446C502.071 198.446 503.027 198.189 503.914 197.676C504.801 197.162 505.512 196.416 506.049 195.436C506.609 194.432 506.889 193.266 506.889 191.936ZM525.885 181.996C527.401 181.996 528.755 182.311 529.945 182.941C531.158 183.571 532.103 184.504 532.78 185.741C533.456 186.977 533.795 188.471 533.795 190.221V201.596H529.84V190.816C529.84 189.089 529.408 187.771 528.545 186.861C527.681 185.927 526.503 185.461 525.01 185.461C523.516 185.461 522.326 185.927 521.44 186.861C520.576 187.771 520.145 189.089 520.145 190.816V201.596H516.155V182.311H520.145V184.516C520.798 183.722 521.626 183.104 522.63 182.661C523.656 182.217 524.741 181.996 525.885 181.996ZM537.554 191.936C537.554 189.952 537.951 188.214 538.744 186.721C539.561 185.204 540.681 184.037 542.104 183.221C543.528 182.404 545.161 181.996 547.004 181.996C549.338 181.996 551.263 182.556 552.779 183.676C554.319 184.772 555.358 186.347 555.894 188.401H551.589C551.239 187.444 550.679 186.697 549.909 186.161C549.139 185.624 548.171 185.356 547.004 185.356C545.371 185.356 544.064 185.939 543.084 187.106C542.128 188.249 541.649 189.859 541.649 191.936C541.649 194.012 542.128 195.634 543.084 196.801C544.064 197.967 545.371 198.551 547.004 198.551C549.314 198.551 550.843 197.536 551.589 195.506H555.894C555.334 197.466 554.284 199.029 552.744 200.196C551.204 201.339 549.291 201.911 547.004 201.911C545.161 201.911 543.528 201.502 542.104 200.686C540.681 199.846 539.561 198.679 538.744 197.186C537.951 195.669 537.554 193.919 537.554 191.936ZM577.546 191.481C577.546 192.204 577.499 192.857 577.406 193.441H562.671C562.787 194.981 563.359 196.217 564.386 197.151C565.412 198.084 566.672 198.551 568.166 198.551C570.312 198.551 571.829 197.652 572.716 195.856H577.021C576.437 197.629 575.376 199.087 573.836 200.231C572.319 201.351 570.429 201.911 568.166 201.911C566.322 201.911 564.666 201.502 563.196 200.686C561.749 199.846 560.606 198.679 559.766 197.186C558.949 195.669 558.541 193.919 558.541 191.936C558.541 189.952 558.937 188.214 559.731 186.721C560.547 185.204 561.679 184.037 563.126 183.221C564.596 182.404 566.276 181.996 568.166 181.996C569.986 181.996 571.607 182.392 573.031 183.186C574.454 183.979 575.562 185.099 576.356 186.546C577.149 187.969 577.546 189.614 577.546 191.481ZM573.381 190.221C573.357 188.751 572.832 187.572 571.806 186.686C570.779 185.799 569.507 185.356 567.991 185.356C566.614 185.356 565.436 185.799 564.456 186.686C563.476 187.549 562.892 188.727 562.706 190.221H573.381Z" fill="black"/>
<defs>
<clipPath id="clip0_622_5802">
<rect width="54.0783" height="49.3419" fill="white" transform="translate(224.486 16.1035)"/>
</clipPath>
<clipPath id="clip1_622_5802">
<rect width="54.0783" height="49.3419" fill="white" transform="translate(294.012 15.0859)"/>
</clipPath>
<clipPath id="clip2_622_5802">
<rect width="54.0783" height="49.3419" fill="white" transform="translate(363.537 14.0879)"/>
</clipPath>
<clipPath id="clip3_622_5802">
<rect width="54.0783" height="49.3419" fill="white" transform="translate(433.061 14.0879)"/>
</clipPath>
<clipPath id="clip4_622_5802">
<rect width="54.0783" height="49.3419" fill="white" transform="translate(502.604 14.0879)"/>
</clipPath>
<clipPath id="clip5_622_5802">
<rect width="81.6447" height="74.8902" fill="white" transform="translate(608.648 3.65234)"/>
</clipPath>
<clipPath id="clip6_622_5802">
<rect width="84.5957" height="77.6301" fill="white" transform="translate(727.672)"/>
</clipPath>
</defs>
</svg>
