<svg width="27" height="26" viewBox="0 0 27 26" fill="none" xmlns="http://www.w3.org/2000/svg">
<g clip-path="url(#clip0_622_6958)">
<path d="M13.5005 12.4538C15.8506 12.4538 17.7626 10.5421 17.7626 8.19223C17.7626 5.84237 15.8506 3.93066 13.5005 3.93066C11.1503 3.93066 9.23828 5.84237 9.23828 8.19223C9.23828 10.5421 11.1503 12.4538 13.5005 12.4538ZM13.5005 5.4539C15.0106 5.4539 16.2392 6.68235 16.2392 8.19223C16.2392 9.70216 15.0106 10.9306 13.5005 10.9306C11.9903 10.9306 10.7617 9.70216 10.7617 8.19223C10.7617 6.68235 11.9903 5.4539 13.5005 5.4539Z" fill="#A8A8A8"/>
<path d="M8.85948 15.8504C10.014 17.4133 9.55015 16.8055 12.8756 21.5533C13.1778 21.9865 13.8206 21.9885 14.1245 21.554C17.465 16.7836 17.0053 17.3878 18.1411 15.8504C19.2915 14.2928 20.4812 12.6822 21.1332 10.7949C22.0767 8.06279 21.6688 5.35956 19.9848 3.18307C19.9847 3.18307 19.9847 3.18302 19.9847 3.18302C18.4421 1.18991 16.018 0 13.5003 0C10.9826 0 8.5585 1.18991 7.01581 3.18312C5.33175 5.35961 4.92388 8.0629 5.8675 10.795C6.51933 12.6823 7.70903 14.2928 8.85948 15.8504ZM8.22065 4.11526C9.47688 2.49224 11.4506 1.52323 13.5003 1.52323C15.55 1.52323 17.5237 2.49224 18.7799 4.11526L18.7798 4.11521C20.1391 5.87184 20.4633 8.06752 19.6931 10.2977C19.1173 11.9648 17.998 13.48 16.9156 14.9454C16.0729 16.0863 16.3251 15.7374 13.5003 19.7866C10.6784 15.7414 10.9274 16.086 10.0849 14.9454C9.00253 13.48 7.88326 11.9647 7.30745 10.2977C6.5372 8.06746 6.86149 5.87184 8.22065 4.11526Z" fill="#A8A8A8"/>
<path d="M9.48517 19.1528C9.26052 18.7973 8.79008 18.691 8.43441 18.9157L6.26859 20.2836C5.79612 20.582 5.79566 21.2727 6.26859 21.5714L13.0936 25.8821C13.3421 26.0391 13.6587 26.039 13.9072 25.8821L20.7322 21.5714C21.2047 21.273 21.2051 20.5823 20.7322 20.2836L18.5663 18.9157C18.2106 18.691 17.7402 18.7973 17.5156 19.1528C17.2909 19.5084 17.3971 19.9788 17.7528 20.2035L18.8991 20.9275L13.5003 24.3373L8.10164 20.9275L9.24797 20.2035C9.60364 19.9789 9.70983 19.5085 9.48517 19.1528Z" fill="#A8A8A8"/>
</g>
<defs>
<clipPath id="clip0_622_6958">
<rect width="26" height="26" fill="white" transform="translate(0.5)"/>
</clipPath>
</defs>
</svg>
