<svg width="251" height="53" viewBox="0 0 251 53" fill="none" xmlns="http://www.w3.org/2000/svg">
<path d="M12.5165 47.1816C18.6322 47.1816 24.5503 47.2155 30.4683 47.1534C31.6457 47.1393 32.0381 47.4414 31.9224 48.616C31.7982 49.864 32.3261 51.5411 31.6909 52.278C30.9511 53.1392 29.2231 52.5463 27.93 52.5519C19.1913 52.5802 10.4497 52.566 1.71104 52.566C1.20845 52.566 0.703049 52.566 0 52.566C1.71386 48.9576 3.34866 45.5073 4.98911 42.0598C11.4267 28.5579 17.8783 15.0616 24.2764 1.53992C24.8072 0.416174 25.4086 -0.0440546 26.6961 0.0265327C28.9436 0.15359 31.208 0.131002 33.4584 0.0350031C34.8193 -0.0214667 34.7656 0.399234 34.2772 1.41287C30.8466 8.52806 27.4556 15.663 24.0561 22.7952C20.3574 30.5598 16.6614 38.3272 12.9683 46.0918C12.8299 46.3798 12.7198 46.6819 12.5137 47.1788L12.5165 47.1816Z" fill="#21A282"/>
<path d="M219.289 33.9504C219.289 37.3696 219.261 40.7861 219.3 44.2025C219.326 46.3314 220.235 47.4015 221.949 47.5144C224.061 47.6528 225.213 46.5827 225.292 44.3126C225.345 42.7681 225.365 41.218 225.28 39.6792C225.227 38.7051 225.597 38.4934 226.48 38.5442C227.697 38.612 228.923 38.5724 230.145 38.5555C230.625 38.5499 230.967 38.6148 230.947 39.2247C230.86 41.9296 231.213 44.6599 230.442 47.3196C229.499 50.5638 227.155 52.5148 223.776 52.8791C222.745 52.9892 221.723 53.0146 220.687 52.9017C216.584 52.4471 214.037 49.968 213.492 45.8966C213.244 44.0331 213.264 42.1639 213.275 40.2919C213.303 34.5828 213.117 28.8596 213.422 23.1647C213.789 16.3375 219.492 12.9493 225.938 15.4283C229.643 16.8542 230.699 19.943 230.925 23.4894C231.012 24.8785 231.393 26.6601 230.71 27.5665C230.052 28.4418 228.155 27.6681 226.828 27.8573C225.461 28.0521 225.216 27.4564 225.278 26.2507C225.343 24.9519 225.461 23.6305 225.117 22.3374C224.713 20.8353 223.722 20.1322 222.093 20.2113C220.588 20.2847 219.588 21.0724 219.427 22.583C219.108 25.6126 219.354 28.662 219.295 31.7029C219.281 32.4511 219.295 33.2022 219.295 33.9504H219.289Z" fill="#1B1B1B"/>
<path d="M71.2739 25.3557C71.1327 25.3557 70.9915 25.3557 70.8503 25.3557C69.416 25.3557 68.6348 24.6291 68.5068 23.176C68.3346 21.239 67.4593 20.2791 65.7935 20.2056C63.9723 20.1238 63.0462 20.9285 62.7638 22.9614C62.4166 25.4743 63.4217 27.558 65.1045 29.3114C66.8861 31.1693 68.8485 32.8549 70.6103 34.7297C74.0324 38.3776 75.0009 42.6863 73.6512 47.4693C72.7421 50.6909 70.4692 52.4217 67.177 52.8621C66.152 53.0005 65.1271 53.0259 64.0881 52.913C59.8613 52.4499 57.3258 50.0669 56.7639 45.8825C56.603 44.6825 56.6538 43.4543 56.5663 42.243C56.5155 41.5428 56.7046 41.2237 57.4867 41.2604C58.7517 41.3197 60.0251 41.3169 61.2928 41.2604C62.0552 41.2265 62.2556 41.5089 62.2359 42.226C62.2104 43.2058 62.2274 44.1968 62.3629 45.1653C62.5719 46.69 63.498 47.4523 65.0311 47.5144C66.7309 47.5822 67.6654 46.9497 68.0579 45.4251C68.6254 43.2171 67.9788 41.2745 66.6829 39.4957C65.2372 37.508 63.3088 35.989 61.5356 34.3231C57.9554 30.9631 56.1541 26.9764 56.922 22.007C57.6703 17.1789 60.7931 14.5869 65.672 14.7817C71.4066 15.0104 74.8089 18.9915 74.1764 24.6724C74.1115 25.2569 73.8884 25.3698 73.3915 25.3585C72.6884 25.3388 71.9825 25.3529 71.2767 25.3529L71.2739 25.3557Z" fill="#1B1B1B"/>
<path d="M77.5393 33.7732C77.5393 28.019 77.576 22.2619 77.5082 16.5076C77.4941 15.3641 77.8499 15.1523 78.903 15.1664C83.3641 15.2229 87.8252 15.237 92.2835 15.158C93.444 15.1382 93.7179 15.5109 93.6303 16.5641C93.5456 17.5862 93.5654 18.6252 93.6275 19.6501C93.6727 20.4068 93.3875 20.5988 92.6675 20.5904C89.9457 20.5565 87.221 20.6017 84.4992 20.5593C83.734 20.548 83.4291 20.7118 83.4432 21.5503C83.494 24.3569 83.4968 27.1663 83.4432 29.9728C83.4262 30.8199 83.7453 30.9582 84.4879 30.9413C86.5067 30.8961 88.5255 30.9639 90.5443 30.9074C91.3461 30.8848 91.6313 31.122 91.5607 31.9238C91.4337 33.3554 92.1508 35.2217 91.2586 36.0941C90.5527 36.7831 88.6723 36.2607 87.317 36.32C86.0662 36.3737 84.4032 35.7751 83.6832 36.577C83.0648 37.2631 83.4799 38.8866 83.4686 40.095C83.4545 42.0602 83.5251 44.0282 83.4404 45.9905C83.3952 47.021 83.7622 47.2215 84.7138 47.1989C87.3424 47.1368 89.9739 47.2046 92.6026 47.1594C93.3903 47.1453 93.7038 47.3542 93.6303 48.1702C93.5033 49.5989 94.2148 51.4596 93.3339 52.3377C92.6393 53.0266 90.7589 52.5523 89.4064 52.5579C85.8855 52.5692 82.3618 52.524 78.8409 52.5862C77.8301 52.6031 77.5026 52.4111 77.5167 51.3156C77.5816 45.4681 77.5477 39.6179 77.5477 33.7704L77.5393 33.7732Z" fill="#1B1B1B"/>
<path d="M238.887 36.5316C238.887 31.6187 238.859 26.7059 238.91 21.7958C238.921 20.8274 238.692 20.4885 237.682 20.5563C236.326 20.6467 234.96 20.5507 233.599 20.5902C232.93 20.61 232.625 20.401 232.726 19.7177C232.741 19.6274 232.726 19.5314 232.726 19.4382C232.797 18.0942 232.162 16.3521 232.958 15.5079C233.768 14.6524 235.533 15.2623 236.877 15.251C241.101 15.2143 245.328 15.2849 249.552 15.2086C250.763 15.186 251.09 15.5672 250.98 16.6994C250.884 17.6735 250.915 18.6646 250.975 19.6443C251.02 20.3897 250.757 20.6184 250.023 20.5902C248.71 20.5394 247.389 20.6551 246.082 20.5507C245.003 20.466 244.774 20.8217 244.777 21.8608C244.819 31.3562 244.802 40.8544 244.802 50.3498C244.802 51.8255 244.039 52.5634 242.513 52.5634C241.714 52.5634 240.903 52.4759 240.121 52.5832C238.992 52.7384 238.848 52.2472 238.859 51.2646C238.91 46.3517 238.882 41.4417 238.882 36.5288L238.887 36.5316Z" fill="#1B1B1B"/>
<path d="M209.605 33.8717C209.605 39.722 209.588 45.5695 209.625 51.4197C209.63 52.3007 209.455 52.6564 208.493 52.5887C207.23 52.4983 205.954 52.504 204.692 52.5887C203.803 52.648 203.611 52.3628 203.616 51.5073C203.656 45.3295 203.636 39.1545 203.636 32.9767C203.636 27.4539 203.662 21.934 203.614 16.4113C203.605 15.4626 203.786 15.0871 204.816 15.1718C206.03 15.2706 207.261 15.2565 208.476 15.1746C209.407 15.1096 209.633 15.4146 209.628 16.3266C209.585 22.1768 209.605 28.0243 209.605 33.8746V33.8717Z" fill="#1B1B1B"/>
<path d="M143.573 47.2405C144.465 47.0343 145.826 47.6188 146.173 46.9638C146.563 46.2297 145.555 45.2555 145.202 44.369C144.826 43.4287 144.363 42.5224 143.94 41.5991C144.414 36.5959 144.259 31.5673 144.555 26.5584C144.598 25.8271 144.457 25.045 145.129 24.4888C145.738 24.2092 145.99 24.6808 146.21 25.0676C146.577 25.7142 146.981 26.341 147.249 27.0412C146.888 27.5974 147.314 28.0153 147.523 28.4501C151.114 36.0086 154.717 43.5643 158.32 51.1171C159.006 52.5571 159.009 52.5627 157.382 52.5599C152.78 52.5486 148.175 52.5289 143.573 52.5147C142.873 50.7557 142.881 48.9967 143.573 47.2376V47.2405Z" fill="#66B76D"/>
<path d="M134.262 25.6349C134.852 25.6039 135.443 25.5756 136.05 25.5446C136.115 24.8924 135.567 24.4688 135.491 23.8928C135.666 22.9809 135.807 22.0491 135.781 21.1286C135.663 17.1136 136.216 13.1156 136.106 9.10058C136.078 8.08977 136.019 7.02814 136.809 6.19238C136.998 6.31662 137.185 6.44085 137.374 6.56508C138.097 7.88648 138.695 9.27281 139.415 10.597C140.296 12.2431 140.92 14.0106 141.804 15.6539C142.072 16.1508 142.239 16.6845 142.177 17.2689C142.024 21.4223 141.665 25.5672 141.756 29.7262C141.781 30.8979 141.736 32.0669 141.448 33.2104C141.313 33.744 141.239 34.3623 140.446 34.3143C139.901 33.1962 139.254 32.1148 138.836 30.9516C138.427 29.8109 137.73 29.5681 136.606 29.6076C133.562 29.7121 130.513 29.7036 127.463 29.7262C127.102 29.729 126.709 29.8419 126.385 29.5652C127.763 28.6702 129.293 29.2321 130.75 29.1163C130.888 29.1163 131.027 29.1107 131.168 29.1078C132.787 29.0909 133.69 28.273 133.878 26.6542C133.921 26.2787 133.983 25.9173 134.265 25.6378L134.262 25.6349Z" fill="#479C7F"/>
<path d="M130.858 14.0762C130.267 14.1693 130.372 14.6776 130.273 15.0559C129.514 17.9839 128.762 20.9147 128.006 23.8426C127.531 24.2012 127.294 23.9047 127.088 23.5151C127.692 17.7382 127.221 11.9501 127.235 6.14498C125.747 11.6931 124.186 17.2074 123.008 22.8205C121.997 22.9645 121.921 22.397 122.093 21.6346C123.816 14.7115 125.544 7.79107 127.26 0.865052C127.396 0.317294 127.591 -0.0215244 128.28 0.00106351C129.917 0.0547098 131.561 0.0236514 133.201 0.00953398C133.647 0.00671049 134.059 0.003887 134.175 0.557291C133.113 5.07205 132.046 9.58681 130.858 14.0733V14.0762Z" fill="#3B62AB"/>
<path d="M130.857 14.0767C130.471 12.7327 131.213 11.5553 131.476 10.3243C132.142 7.20715 132.964 4.12107 133.715 1.02371C133.78 0.761121 133.941 0.636887 134.175 0.563477C135.053 2.4411 135.928 4.31872 136.807 6.19916C136.434 11.208 136.248 16.2197 136.222 21.2427C136.216 22.1632 136.281 23.1655 135.488 23.8968C133.944 20.6244 132.402 17.352 130.857 14.0795V14.0767Z" fill="#298388"/>
<path d="M146.678 6.54041C147.926 6.179 149.1 5.60301 150.456 5.58325C156.458 5.49007 160.01 10.7728 157.633 16.3069C156.063 16.5243 154.759 15.9483 153.592 14.9601C153.417 14.6043 153.502 14.2344 153.528 13.8617C153.672 11.569 152.26 10.1375 149.973 10.2279C149.462 10.2477 148.953 10.4227 148.437 10.2957C147.37 9.2679 146.661 8.07356 146.681 6.54041H146.678Z" fill="#4156A1"/>
<path d="M153.72 14.8975C154.96 15.5441 156.292 15.9366 157.634 16.3036C156.676 19.1469 154.547 21.1148 152.444 23.0715C150.846 24.5567 149.149 25.9374 147.249 27.0413C146.159 26.5303 146.184 25.2767 145.529 24.4748C145.083 24.0851 145.075 23.656 145.405 23.1901C146.91 21.7247 148.694 20.5727 150.134 19.0198C151.154 17.9215 152.241 16.8965 152.921 15.53C153.076 15.2222 153.218 14.8072 153.72 14.8947V14.8975Z" fill="#24A284"/>
<path d="M146.677 6.54045C147.248 7.73761 147.815 8.93759 148.386 10.1348C147.643 11.3347 146.158 11.6905 144.498 10.9846C143.411 10.5216 142.338 10.1263 141.124 10.2788C140.426 10.3663 139.844 10.8802 139.108 10.7785C138.56 9.36112 137.411 8.19219 137.371 6.56869C139.432 5.33482 141.615 5.29529 143.82 6.0294C144.763 6.34281 145.689 6.56869 146.677 6.54045Z" fill="#24A284"/>
<path d="M140.44 34.315C141.457 33.4934 141.132 32.2736 141.279 31.2289C141.44 30.0826 141.352 28.8967 141.307 27.7278C141.186 24.5542 141.776 21.4032 141.615 18.2268C141.592 17.7778 141.787 17.3204 141.883 16.8658C142.084 16.8263 142.287 16.8715 142.369 17.0466C143.044 18.4555 143.936 19.7882 143.956 21.4343C143.786 22.1204 143.704 22.8149 143.73 23.518C143.896 27.8097 143.312 32.0845 143.411 36.379C143.428 37.1216 143.665 38.1719 142.363 38.2707C141.722 36.9522 141.078 35.6336 140.438 34.315H140.44Z" fill="#56AA77"/>
<path d="M125.803 47.2412C127.87 47.2412 129.94 47.2412 132.006 47.2412C132.701 49.0002 132.715 50.7593 132.006 52.5183C129.844 52.5183 127.684 52.5183 125.521 52.5183C124.73 50.7113 125.298 48.9777 125.806 47.2412H125.803Z" fill="#21768A"/>
<path d="M142.366 38.2704C143.035 38.0049 143.03 37.4346 143.007 36.8586C142.835 32.1829 143.484 27.5213 143.292 22.8456C143.264 22.1821 143.275 21.5214 143.902 21.0781C144.944 21.4988 144.989 22.6197 145.531 23.3906C145.24 23.752 145.568 24.1134 145.526 24.4748C144.862 24.7825 144.978 25.3868 144.981 25.9374C145.012 30.0879 144.594 34.2271 144.631 38.3805C144.639 39.4082 144.851 40.6816 143.936 41.5993C143.222 40.58 142.776 39.4308 142.363 38.2704H142.366Z" fill="#5AAD75"/>
<path d="M125.804 47.2409C125.999 49.0169 125.378 50.7477 125.519 52.518H119.604C119.685 52.1651 119.733 51.894 119.812 51.6315C120.239 50.1745 120.019 48.0654 121.139 47.4019C122.311 46.7073 124.217 47.2437 125.804 47.2409Z" fill="#175A8B"/>
<path d="M135.392 47.2432C136.896 47.2432 138.399 47.2432 139.903 47.2432C140.203 49.022 140.307 50.7923 139.618 52.5174C138.113 52.5174 136.611 52.5174 135.106 52.5174C134.539 50.7245 134.844 48.9768 135.392 47.2432Z" fill="#429682"/>
<path d="M139.622 52.5174C139.667 50.7556 139.469 48.9824 139.907 47.2432C141.13 47.2432 142.352 47.2432 143.575 47.2432C143.575 49.0022 143.575 50.7612 143.575 52.5203C142.259 52.5203 140.943 52.5203 139.625 52.5203L139.622 52.5174Z" fill="#54A878"/>
<path d="M135.392 47.244C135.522 49.0144 135.24 50.7621 135.107 52.5183C134.074 52.5183 133.037 52.5183 132.004 52.5183C132.004 50.7593 132.004 49.0002 132.004 47.2412C133.133 47.2412 134.26 47.2412 135.389 47.2412L135.392 47.244Z" fill="#2F8887"/>
<path d="M130.85 29.4612C129.359 29.4951 127.871 29.529 126.38 29.5629C126.247 28.281 126.945 27.1827 127.176 25.9799C127.267 25.5112 127.622 25.5874 127.936 25.5902C128.915 25.5987 129.895 25.6184 130.875 25.6354C131.53 26.9144 131.561 28.1906 130.85 29.4612Z" fill="#195F8B"/>
<path d="M130.85 29.4616C130.858 28.1854 130.867 26.912 130.875 25.6357C132.004 25.6357 133.131 25.6357 134.26 25.6357C134.26 25.8701 134.266 26.1044 134.266 26.336C134.27 28.5477 133.131 29.5896 130.85 29.4616Z" fill="#2C8388"/>
<path d="M122.198 35.4414C121.704 37.4009 121.21 39.3576 120.716 41.3171C120.436 41.3736 120.298 41.2945 120.394 40.9868C120.896 38.6884 121.399 36.3901 121.901 34.0918C122.763 34.377 122.093 34.9953 122.198 35.4442V35.4414Z" fill="#6C7BB3"/>
<path d="M125.498 26.1527C125.142 27.2934 124.778 28.4341 124.428 29.5776C124.278 30.0689 124.168 30.58 123.542 30.6901C123.491 30.6364 123.443 30.5828 123.392 30.5292C123.18 28.9311 123.993 27.5899 124.504 26.1725C124.671 26.0059 124.877 25.941 125.111 25.9466C125.264 25.9692 125.391 26.037 125.498 26.1499V26.1527Z" fill="#413D3E"/>
<path d="M122.199 35.4413C122.06 34.998 122.278 34.4785 121.902 34.0888C122.182 32.9284 122.461 31.7651 122.741 30.6046C122.826 30.5171 122.927 30.4606 123.046 30.4352C123.229 30.4155 123.399 30.4606 123.554 30.5595L123.546 30.6922C122.874 32.214 122.924 33.9363 122.199 35.4441V35.4413Z" fill="#BBBEC2"/>
<path d="M123.009 30.5906L122.876 30.6302L122.74 30.6047C122.164 29.8622 122.292 29.097 122.659 28.3205C123.167 27.5469 122.825 26.5022 123.48 25.7738C123.604 25.7003 123.74 25.6608 123.884 25.6523C124.192 25.6834 124.457 25.7653 124.46 26.1493C123.816 27.578 123.746 29.1902 123.012 30.5906H123.009Z" fill="#3F3A3C"/>
<path d="M120.394 40.9834C120.501 41.0935 120.608 41.2036 120.716 41.3138C120.238 43.2337 119.758 45.1565 119.281 47.0765C119.332 44.973 119.775 42.9598 120.394 40.9834Z" fill="#8F9BC8"/>
<path d="M127.207 23.6165C127.476 23.6927 127.741 23.7661 128.009 23.8424C127.95 24.1445 127.707 24.1642 127.47 24.1868C126.75 24.4805 126.431 25.2767 125.714 25.5788C125.191 25.6579 124.675 25.7256 124.336 25.1807C124.488 24.2518 125.155 23.8875 125.979 23.6955C126.383 23.5939 126.792 23.5064 127.21 23.6165H127.207Z" fill="#B5C1CA"/>
<path d="M122.097 21.6348C122.128 22.2079 122.133 22.798 122.972 22.7359C123.215 22.6795 123.328 22.8178 123.401 23.0155C123.441 23.5265 123.675 24.0517 123.294 24.5345C123.096 24.6277 122.91 24.6305 122.746 24.4639C121.786 23.6903 121.828 22.6879 122.099 21.6348H122.097Z" fill="#A8ACBA"/>
<path d="M125.823 25.3366C126.275 24.817 126.442 23.8966 127.466 24.1874C127.221 25.2518 126.439 25.7798 125.498 26.1497C125.405 26.1441 125.312 26.1384 125.219 26.1328C124.869 25.4495 125.53 25.5314 125.823 25.3337V25.3366Z" fill="#6F7579"/>
<path d="M123.575 25.8335C123.202 26.6862 123.23 27.6349 122.942 28.4904C122.787 28.9534 122.779 28.352 122.654 28.321C122.776 27.4175 122.897 26.5111 123.019 25.6076C123.323 25.3902 123.515 25.4495 123.572 25.8363L123.575 25.8335Z" fill="#1D1C1D"/>
<path d="M123.576 25.8333C123.458 25.5961 123.252 25.5707 123.023 25.6046C122.786 25.2601 122.63 24.8959 122.746 24.4639C122.904 24.4752 123.065 24.4836 123.223 24.4949C123.61 24.5062 123.828 24.7462 123.994 25.0568C124.082 25.3279 124.079 25.5848 123.878 25.8135C123.777 25.8191 123.678 25.8276 123.576 25.8333Z" fill="#7A8087"/>
<path d="M177.981 21.9253C177.419 18.3084 175.222 15.996 171.617 15.4341C168.214 14.9061 164.775 15.3381 161.356 15.1687C160.3 15.115 160.026 15.403 160.037 16.4647C160.094 22.2189 160.066 27.9704 160.066 33.7246C160.066 39.6173 160.066 45.5127 160.066 51.4053C160.066 51.987 159.874 52.6053 160.907 52.5856C164.098 52.5206 167.294 52.6505 170.482 52.5206C174.508 52.3569 177.139 50.0981 177.893 46.3061C178.111 45.2134 178.187 44.0784 178.195 42.9603C178.226 38.1886 178.224 33.4169 178.204 28.648C178.195 26.4062 178.328 24.1615 177.981 21.9253ZM172.19 43.3697C172.19 46.388 171.382 47.1786 168.341 47.1814C166.775 47.1814 165.992 46.3965 165.992 44.8266C165.992 41.1307 165.992 37.4347 165.992 33.7388C165.992 29.7633 166.023 25.785 165.97 21.8095C165.955 20.8354 166.227 20.5559 167.218 20.5559C171.698 20.5559 172.193 21.0189 172.193 25.545C172.193 31.4856 172.195 37.4291 172.193 43.3697H172.19Z" fill="#1B1B1B"/>
<path d="M114.847 47.975C114.866 45.5892 114.889 43.2005 114.79 40.8175C114.68 38.1436 113.87 35.7804 111.151 34.3206C113.421 33.0077 114.454 31.0284 114.697 28.651C114.926 26.4177 114.979 24.1532 114.691 21.9283C114.155 17.806 112.24 15.9566 108.07 15.3552C107.009 15.2028 105.916 15.183 104.84 15.2028C102.322 15.2536 99.7973 15.0136 97.2844 15.3355C97.2505 17.8088 97.1884 20.2794 97.1856 22.7528C97.1743 32.251 97.1941 41.752 97.1602 51.2503C97.1574 52.2328 97.2985 52.7044 98.4336 52.5886C99.5489 52.4728 100.692 52.4869 101.81 52.5858C102.861 52.6789 103.152 52.3627 103.135 51.2954C103.067 47.0376 103.098 42.7798 103.123 38.522C103.123 38.1436 102.785 37.5874 103.533 37.3897C106.548 36.5879 108.81 38.2481 108.878 41.3935C108.923 43.593 108.878 45.7924 108.889 47.9919C108.895 49.2089 108.897 50.4258 109.171 51.6201C109.27 52.055 109.27 52.5745 109.953 52.5688C111.758 52.5547 113.565 52.5632 115.465 52.5632C114.957 50.9538 114.835 49.4771 114.847 47.975ZM108.801 29.0096C108.542 31.3644 105.622 32.9456 103.459 31.9941C102.985 31.7851 103.115 31.3785 103.112 31.0312C103.098 29.4416 103.106 27.8492 103.106 26.2595C103.106 24.7631 103.146 23.2638 103.09 21.7702C103.056 20.9062 103.234 20.5533 104.23 20.5504C108.076 20.542 108.881 21.2733 108.883 25.085C108.883 26.3951 108.943 27.7136 108.801 29.0096Z" fill="#1B1B1B"/>
<path d="M199.932 23.2917C199.841 18.3054 196.854 15.4283 191.87 15.2532C188.917 15.1488 185.955 15.2448 182.999 15.1685C182.059 15.1431 181.85 15.4311 181.856 16.329C181.895 22.1312 181.875 27.9335 181.875 33.7358C181.875 39.5381 181.895 45.5267 181.856 51.4221C181.85 52.3144 182.048 52.608 182.996 52.5854C185.811 52.5176 188.632 52.5741 191.447 52.5572C196.639 52.5289 199.83 49.632 199.929 44.482C200.067 37.4176 200.061 30.3504 199.929 23.2861L199.932 23.2917ZM194.047 43.2792C194.042 46.5601 191.199 48.4208 188.152 47.1671C187.587 46.9356 187.813 46.4584 187.81 46.0857C187.793 42.0199 187.799 37.9541 187.799 33.8883C187.799 29.8704 187.824 25.8498 187.779 21.832C187.768 20.9143 187.926 20.5473 188.974 20.5501C193.5 20.5586 194.05 21.0668 194.05 25.6154C194.05 31.5052 194.059 37.3922 194.047 43.282V43.2792Z" fill="#1B1B1B"/>
<path d="M54.719 51.4673C54.3294 49.2593 53.9708 47.0457 53.6179 44.8321C52.0904 35.283 50.5685 25.7368 49.0523 16.1849C48.945 15.5158 48.753 15.1402 47.9201 15.1685C45.6669 15.2391 43.411 15.2193 41.1578 15.1769C40.4068 15.1628 40.1583 15.3633 40.0341 16.1511C38.1226 28.2384 36.1631 40.3173 34.1895 52.5656C35.8384 52.5656 37.3376 52.5261 38.8369 52.5825C39.5964 52.6108 39.7489 52.303 39.828 51.6226C40.0228 49.9511 40.3672 48.2993 40.5649 46.6306C40.644 45.9671 40.867 45.7921 41.5192 45.8062C43.3489 45.8513 45.1841 45.8429 47.0137 45.809C47.6547 45.7977 47.9173 45.9812 47.985 46.6532C48.1318 48.0932 48.4396 49.5191 48.5638 50.959C48.6683 52.1618 49.0297 52.7887 50.416 52.5938C51.5229 52.4385 52.672 52.4865 53.7929 52.5854C54.784 52.6729 54.8602 52.255 54.719 51.4644V51.4673ZM45.4524 40.7352C44.4754 40.6392 43.4787 40.6505 42.499 40.7352C41.5333 40.8171 41.443 40.45 41.5757 39.6114C42.4482 34.0774 43.2726 28.5377 44.1112 22.998C44.1846 22.9811 44.2608 22.9641 44.3343 22.9472C44.6618 25.0563 44.9921 27.1627 45.314 29.2746C45.8194 32.5979 46.257 35.9296 46.85 39.2359C47.0872 40.5658 46.6665 40.8538 45.4524 40.7352Z" fill="#1B1B1B"/>
<path d="M123.271 23.0497C123.173 22.9453 123.071 22.8436 122.972 22.7391C122.755 22.3608 122.664 21.9768 122.777 21.5335C124.133 16.2197 125.477 10.9059 126.829 5.59208C126.886 5.37185 126.998 5.16573 127.126 4.84668C127.747 5.41138 127.781 6.0749 127.781 6.75536C127.781 11.5214 127.778 16.2875 127.781 21.0507C127.781 21.9486 127.543 22.7956 127.21 23.6172C126.917 23.9956 126.51 23.8911 126.123 23.8629C125.039 24.0549 124.068 23.8629 123.274 23.0469L123.271 23.0497Z" fill="#2577BB"/>
<path d="M123.008 30.5911C123.301 29.2274 123.592 27.8608 123.894 26.4999C123.954 26.2373 124.205 26.1752 124.431 26.1074C124.532 26.0594 124.617 26.0792 124.688 26.1695C124.425 27.6631 123.663 29.0269 123.556 30.5601C123.375 30.5713 123.191 30.5826 123.011 30.5911H123.008Z" fill="#080809"/>
<path d="M124.686 26.1662C124.604 26.1351 124.519 26.1154 124.429 26.1041C124.316 25.8697 124.09 25.8528 123.875 25.8104C123.853 25.5507 123.83 25.2881 123.805 25.0283C124.008 24.8758 124.203 24.8787 124.392 25.0537C124.801 25.4914 125.346 25.2401 125.821 25.3333C125.589 25.5761 125.225 25.7201 125.216 26.1323C125.039 26.1436 124.861 26.1549 124.683 26.1662H124.686Z" fill="#69B1C0"/>
<path d="M124.394 25.0534C124.199 25.0449 124.001 25.0365 123.806 25.028C123.612 24.8501 123.417 24.6722 123.219 24.4915C123.561 24.02 122.776 23.5118 123.27 23.0459C124.219 23.317 125.17 23.5908 126.119 23.8619C125.543 24.26 124.97 24.6553 124.394 25.0534Z" fill="#E6E8EA"/>
</svg>
