<svg width="42" height="42" viewBox="0 0 42 42" fill="none" xmlns="http://www.w3.org/2000/svg">
<g clip-path="url(#clip0_622_6829)">
<path fill-rule="evenodd" clip-rule="evenodd" d="M21 42C9.42055 42 0 32.5794 0 21C0 9.42055 9.42055 0 21 0C32.5794 0 42 9.42055 42 21C42 32.5794 32.5794 42 21 42ZM31.8903 28.3772C32.1492 28.3772 32.3599 28.1665 32.3599 27.9075V14.7237L21.6754 23.2084C21.4777 23.3655 21.2387 23.444 20.9999 23.444C20.7611 23.444 20.5222 23.3654 20.3245 23.2084L9.63998 14.7237V27.9075C9.63998 28.1665 9.85072 28.3772 10.1096 28.3772H31.8903ZM30.253 13.6228L21 20.9708L11.747 13.6228H30.253ZM34.5324 14.0925V27.9077C34.5324 29.3645 33.3471 30.5497 31.8903 30.5497H10.1096C8.65274 30.5497 7.46763 29.3645 7.46763 27.9077V14.0925C7.46763 12.6357 8.65282 11.4505 10.1096 11.4505H31.8903C33.3471 11.4504 34.5324 12.6357 34.5324 14.0925Z" fill="url(#paint0_linear_622_6829)"/>
</g>
<defs>
<linearGradient id="paint0_linear_622_6829" x1="21" y1="0" x2="21" y2="42" gradientUnits="userSpaceOnUse">
<stop stop-color="#79CFA0"/>
<stop offset="1" stop-color="#2DA987"/>
</linearGradient>
<clipPath id="clip0_622_6829">
<rect width="42" height="42" fill="white"/>
</clipPath>
</defs>
</svg>
