<svg width="43" height="43" viewBox="0 0 43 43" fill="none" xmlns="http://www.w3.org/2000/svg">
<g clip-path="url(#clip0_622_6825)">
<path d="M36.7005 6.29491C28.303 -2.10008 14.6899 -2.09807 6.29491 6.29953C-2.10008 14.6971 -2.09807 28.3102 6.29953 36.7052C14.6971 45.1001 28.3102 45.0981 36.7052 36.7005C40.7369 32.6675 43.0013 27.198 43 21.4954C42.9989 15.7937 40.7329 10.326 36.7005 6.29491ZM32.561 29.9493C32.5601 29.9502 32.5592 29.9512 32.5582 29.9521V29.945L31.4688 31.0271C30.06 32.4538 28.0081 33.0407 26.0579 32.5751C24.0931 32.0492 22.2253 31.2121 20.5253 30.0955C18.9459 29.0861 17.4822 27.9061 16.1608 26.5766C14.945 25.3697 13.8527 24.0444 12.8999 22.6206C11.8579 21.0886 11.0331 19.4197 10.4489 17.6613C9.77934 15.5956 10.3342 13.3289 11.8823 11.8061L13.1579 10.5305C13.5126 10.1742 14.0889 10.173 14.4451 10.5276C14.446 10.5286 14.447 10.5295 14.4479 10.5305L18.4756 14.5581C18.8318 14.9128 18.8331 15.4891 18.4784 15.8453C18.4775 15.8462 18.4766 15.8471 18.4756 15.8481L16.1106 18.2131C15.432 18.8843 15.3467 19.9509 15.9099 20.7215C16.7653 21.8954 17.7119 23.0001 18.7408 24.0254C19.888 25.1775 21.135 26.2255 22.4674 27.1572C23.2373 27.6942 24.2811 27.6037 24.9471 26.9422L27.2332 24.6202C27.5879 24.264 28.1642 24.2627 28.5204 24.6174C28.5213 24.6183 28.5222 24.6192 28.5232 24.6202L32.5581 28.6622C32.9144 29.0168 32.9157 29.593 32.561 29.9493Z" fill="url(#paint0_linear_622_6825)"/>
</g>
<defs>
<linearGradient id="paint0_linear_622_6825" x1="21.5" y1="0" x2="21.5" y2="43.0001" gradientUnits="userSpaceOnUse">
<stop stop-color="#7ACFA0"/>
<stop offset="1" stop-color="#33AC89"/>
</linearGradient>
<clipPath id="clip0_622_6825">
<rect width="43" height="43" fill="white"/>
</clipPath>
</defs>
</svg>
