<svg width="1033" height="102" viewBox="0 0 1033 102" fill="none" xmlns="http://www.w3.org/2000/svg">
<path d="M256.924 53.3999C256.924 52.5035 257.126 51.6995 257.531 50.9877C257.935 50.2672 258.484 49.7048 259.178 49.3006C259.881 48.8964 260.659 48.6943 261.511 48.6943C262.513 48.6943 263.387 48.9359 264.134 49.4192C264.881 49.9025 265.426 50.5879 265.769 51.4754H264.332C264.077 50.9218 263.708 50.4957 263.225 50.1969C262.75 49.8981 262.179 49.7487 261.511 49.7487C260.87 49.7487 260.294 49.8981 259.784 50.1969C259.275 50.4957 258.875 50.9218 258.585 51.4754C258.295 52.0202 258.15 52.6617 258.15 53.3999C258.15 54.1292 258.295 54.7707 258.585 55.3243C258.875 55.8691 259.275 56.2909 259.784 56.5896C260.294 56.8884 260.87 57.0378 261.511 57.0378C262.179 57.0378 262.75 56.8928 263.225 56.6028C263.708 56.3041 264.077 55.8779 264.332 55.3243H265.769C265.426 56.203 264.881 56.884 264.134 57.3673C263.387 57.8418 262.513 58.0791 261.511 58.0791C260.659 58.0791 259.881 57.8814 259.178 57.4859C258.484 57.0817 257.935 56.5237 257.531 55.812C257.126 55.1002 256.924 54.2962 256.924 53.3999ZM271.139 50.645C271.684 50.645 272.176 50.7637 272.616 51.0009C273.055 51.2294 273.398 51.5765 273.644 52.0422C273.899 52.5079 274.026 53.0747 274.026 53.7426V58H272.84V53.9139C272.84 53.1934 272.66 52.6441 272.299 52.2663C271.939 51.8796 271.447 51.6863 270.823 51.6863C270.19 51.6863 269.685 51.884 269.307 52.2795C268.938 52.6749 268.754 53.2505 268.754 54.0062V58H267.554V48.2461H268.754V51.805C268.991 51.4359 269.316 51.1503 269.729 50.9482C270.151 50.7461 270.621 50.645 271.139 50.645ZM279.136 58.1186C278.459 58.1186 277.844 57.9649 277.29 57.6573C276.745 57.3497 276.315 56.9148 275.998 56.3524C275.691 55.7812 275.537 55.1222 275.537 54.3752C275.537 53.6371 275.695 52.9868 276.012 52.4245C276.337 51.8533 276.776 51.4183 277.33 51.1195C277.883 50.812 278.503 50.6582 279.188 50.6582C279.874 50.6582 280.493 50.812 281.047 51.1195C281.6 51.4183 282.035 51.8489 282.352 52.4113C282.677 52.9737 282.839 53.6283 282.839 54.3752C282.839 55.1222 282.672 55.7812 282.338 56.3524C282.013 56.9148 281.57 57.3497 281.007 57.6573C280.445 57.9649 279.821 58.1186 279.136 58.1186ZM279.136 57.0642C279.566 57.0642 279.97 56.9631 280.348 56.761C280.726 56.5589 281.029 56.2557 281.258 55.8515C281.495 55.4473 281.614 54.9552 281.614 54.3752C281.614 53.7953 281.499 53.3032 281.271 52.899C281.042 52.4948 280.744 52.196 280.375 52.0027C280.005 51.8006 279.606 51.6995 279.175 51.6995C278.736 51.6995 278.331 51.8006 277.962 52.0027C277.602 52.196 277.312 52.4948 277.092 52.899C276.873 53.3032 276.763 53.7953 276.763 54.3752C276.763 54.964 276.868 55.4605 277.079 55.8647C277.299 56.2689 277.589 56.5721 277.949 56.7742C278.31 56.9675 278.705 57.0642 279.136 57.0642ZM285.036 49.6037C284.807 49.6037 284.614 49.5247 284.456 49.3665C284.298 49.2083 284.219 49.015 284.219 48.7865C284.219 48.5581 284.298 48.3647 284.456 48.2066C284.614 48.0484 284.807 47.9693 285.036 47.9693C285.256 47.9693 285.44 48.0484 285.59 48.2066C285.748 48.3647 285.827 48.5581 285.827 48.7865C285.827 49.015 285.748 49.2083 285.59 49.3665C285.44 49.5247 285.256 49.6037 285.036 49.6037ZM285.616 50.7768V58H284.416V50.7768H285.616ZM290.217 58.1186C289.664 58.1186 289.167 58.0264 288.728 57.8418C288.288 57.6485 287.941 57.3849 287.687 57.051C287.432 56.7083 287.291 56.3172 287.265 55.8779H288.504C288.539 56.2381 288.706 56.5325 289.005 56.761C289.312 56.9895 289.712 57.1037 290.204 57.1037C290.661 57.1037 291.021 57.0026 291.285 56.8005C291.549 56.5984 291.68 56.3436 291.68 56.036C291.68 55.7197 291.54 55.4868 291.259 55.3374C290.977 55.1793 290.542 55.0255 289.954 54.8761C289.418 54.7355 288.978 54.5949 288.636 54.4543C288.302 54.3049 288.012 54.0897 287.766 53.8085C287.528 53.5185 287.41 53.1406 287.41 52.6749C287.41 52.3058 287.52 51.9675 287.739 51.66C287.959 51.3524 288.271 51.1108 288.675 50.935C289.079 50.7505 289.541 50.6582 290.059 50.6582C290.859 50.6582 291.505 50.8603 291.997 51.2645C292.489 51.6688 292.752 52.2224 292.788 52.9253H291.588C291.562 52.5475 291.408 52.2443 291.127 52.0159C290.854 51.7874 290.485 51.6731 290.02 51.6731C289.589 51.6731 289.246 51.7654 288.991 51.9499C288.737 52.1345 288.609 52.3761 288.609 52.6749C288.609 52.9122 288.684 53.1099 288.833 53.268C288.991 53.4174 289.185 53.5404 289.413 53.6371C289.651 53.725 289.976 53.826 290.389 53.9403C290.907 54.0809 291.329 54.2215 291.654 54.3621C291.979 54.4939 292.256 54.696 292.484 54.9684C292.722 55.2408 292.845 55.5967 292.853 56.036C292.853 56.4315 292.744 56.7874 292.524 57.1037C292.304 57.42 291.992 57.6705 291.588 57.855C291.193 58.0308 290.736 58.1186 290.217 58.1186ZM295.166 49.6037C294.938 49.6037 294.744 49.5247 294.586 49.3665C294.428 49.2083 294.349 49.015 294.349 48.7865C294.349 48.5581 294.428 48.3647 294.586 48.2066C294.744 48.0484 294.938 47.9693 295.166 47.9693C295.386 47.9693 295.57 48.0484 295.72 48.2066C295.878 48.3647 295.957 48.5581 295.957 48.7865C295.957 49.015 295.878 49.2083 295.72 49.3665C295.57 49.5247 295.386 49.6037 295.166 49.6037ZM295.746 50.7768V58H294.547V50.7768H295.746ZM298.99 51.9499C299.201 51.5369 299.5 51.2162 299.886 50.9877C300.282 50.7593 300.761 50.645 301.323 50.645V51.884H301.007C299.662 51.884 298.99 52.6134 298.99 54.0721V58H297.79V50.7768H298.99V51.9499ZM312.628 50.7768V58H311.428V56.9323C311.2 57.3014 310.879 57.5914 310.466 57.8023C310.062 58.0044 309.614 58.1054 309.121 58.1054C308.559 58.1054 308.054 57.9912 307.606 57.7627C307.157 57.5255 306.802 57.174 306.538 56.7083C306.283 56.2425 306.156 55.6758 306.156 55.0079V50.7768H307.342V54.8498C307.342 55.5615 307.522 56.1107 307.882 56.4974C308.243 56.8752 308.735 57.0642 309.359 57.0642C310 57.0642 310.505 56.8664 310.875 56.471C311.244 56.0756 311.428 55.5 311.428 54.7443V50.7768H312.628ZM318.172 50.645C319.051 50.645 319.763 50.913 320.307 51.4491C320.852 51.9763 321.125 52.7408 321.125 53.7426V58H319.938V53.9139C319.938 53.1934 319.758 52.6441 319.398 52.2663C319.038 51.8796 318.546 51.6863 317.922 51.6863C317.289 51.6863 316.784 51.884 316.406 52.2795C316.037 52.6749 315.852 53.2505 315.852 54.0062V58H314.653V50.7768H315.852V51.805C316.09 51.4359 316.41 51.1503 316.814 50.9482C317.227 50.7461 317.68 50.645 318.172 50.645ZM329.155 58.1186C328.602 58.1186 328.105 58.0264 327.666 57.8418C327.226 57.6485 326.879 57.3849 326.624 57.051C326.37 56.7083 326.229 56.3172 326.203 55.8779H327.442C327.477 56.2381 327.644 56.5325 327.942 56.761C328.25 56.9895 328.65 57.1037 329.142 57.1037C329.599 57.1037 329.959 57.0026 330.223 56.8005C330.486 56.5984 330.618 56.3436 330.618 56.036C330.618 55.7197 330.478 55.4868 330.196 55.3374C329.915 55.1793 329.48 55.0255 328.892 54.8761C328.355 54.7355 327.916 54.5949 327.573 54.4543C327.24 54.3049 326.95 54.0897 326.703 53.8085C326.466 53.5185 326.348 53.1406 326.348 52.6749C326.348 52.3058 326.457 51.9675 326.677 51.66C326.897 51.3524 327.209 51.1108 327.613 50.935C328.017 50.7505 328.479 50.6582 328.997 50.6582C329.797 50.6582 330.442 50.8603 330.935 51.2645C331.427 51.6688 331.69 52.2224 331.725 52.9253H330.526C330.5 52.5475 330.346 52.2443 330.065 52.0159C329.792 51.7874 329.423 51.6731 328.957 51.6731C328.527 51.6731 328.184 51.7654 327.929 51.9499C327.674 52.1345 327.547 52.3761 327.547 52.6749C327.547 52.9122 327.622 53.1099 327.771 53.268C327.929 53.4174 328.123 53.5404 328.351 53.6371C328.588 53.725 328.913 53.826 329.326 53.9403C329.845 54.0809 330.267 54.2215 330.592 54.3621C330.917 54.4939 331.194 54.696 331.422 54.9684C331.66 55.2408 331.783 55.5967 331.791 56.036C331.791 56.4315 331.681 56.7874 331.462 57.1037C331.242 57.42 330.93 57.6705 330.526 57.855C330.131 58.0308 329.674 58.1186 329.155 58.1186ZM340.075 54.1116C340.075 54.3401 340.062 54.5817 340.035 54.8366H334.262C334.306 55.5483 334.548 56.1063 334.987 56.5106C335.435 56.906 335.976 57.1037 336.608 57.1037C337.127 57.1037 337.557 56.9851 337.9 56.7478C338.252 56.5018 338.498 56.1766 338.638 55.7724H339.93C339.737 56.4666 339.35 57.0334 338.77 57.4728C338.19 57.9033 337.47 58.1186 336.608 58.1186C335.923 58.1186 335.308 57.9649 334.763 57.6573C334.227 57.3497 333.805 56.9148 333.498 56.3524C333.19 55.7812 333.036 55.1222 333.036 54.3752C333.036 53.6283 333.186 52.9737 333.485 52.4113C333.783 51.8489 334.201 51.4183 334.737 51.1195C335.282 50.812 335.905 50.6582 336.608 50.6582C337.294 50.6582 337.9 50.8076 338.427 51.1064C338.955 51.4051 339.359 51.8181 339.64 52.3454C339.93 52.8638 340.075 53.4526 340.075 54.1116ZM338.836 53.8612C338.836 53.4042 338.735 53.0132 338.533 52.6881C338.331 52.3542 338.054 52.1037 337.702 51.9368C337.36 51.761 336.978 51.6731 336.556 51.6731C335.949 51.6731 335.431 51.8665 335 52.2531C334.579 52.6398 334.337 53.1758 334.275 53.8612H338.836ZM342.858 51.9499C343.069 51.5369 343.367 51.2162 343.754 50.9877C344.149 50.7593 344.628 50.645 345.191 50.645V51.884H344.874C343.53 51.884 342.858 52.6134 342.858 54.0721V58H341.658V50.7768H342.858V51.9499ZM349.264 56.8928L351.505 50.7768H352.784L349.95 58H348.553L345.719 50.7768H347.01L349.264 56.8928ZM354.583 49.6037C354.355 49.6037 354.162 49.5247 354.003 49.3665C353.845 49.2083 353.766 49.015 353.766 48.7865C353.766 48.5581 353.845 48.3647 354.003 48.2066C354.162 48.0484 354.355 47.9693 354.583 47.9693C354.803 47.9693 354.988 48.0484 355.137 48.2066C355.295 48.3647 355.374 48.5581 355.374 48.7865C355.374 49.015 355.295 49.2083 355.137 49.3665C354.988 49.5247 354.803 49.6037 354.583 49.6037ZM355.163 50.7768V58H353.964V50.7768H355.163ZM356.76 54.3752C356.76 53.6283 356.909 52.9781 357.208 52.4245C357.506 51.8621 357.919 51.4271 358.447 51.1195C358.983 50.812 359.593 50.6582 360.279 50.6582C361.166 50.6582 361.896 50.8735 362.467 51.3041C363.047 51.7347 363.429 52.3322 363.614 53.0967H362.322C362.199 52.6573 361.957 52.3102 361.597 52.0554C361.245 51.8006 360.806 51.6731 360.279 51.6731C359.593 51.6731 359.04 51.9104 358.618 52.3849C358.196 52.8506 357.985 53.5141 357.985 54.3752C357.985 55.2452 358.196 55.9174 358.618 56.3919C359.04 56.8664 359.593 57.1037 360.279 57.1037C360.806 57.1037 361.245 56.9807 361.597 56.7346C361.948 56.4886 362.19 56.1371 362.322 55.6802H363.614C363.42 56.4183 363.034 57.0114 362.454 57.4596C361.874 57.8989 361.149 58.1186 360.279 58.1186C359.593 58.1186 358.983 57.9649 358.447 57.6573C357.919 57.3497 357.506 56.9148 357.208 56.3524C356.909 55.79 356.76 55.1309 356.76 54.3752ZM371.805 54.1116C371.805 54.3401 371.791 54.5817 371.765 54.8366H365.992C366.036 55.5483 366.277 56.1063 366.717 56.5106C367.165 56.906 367.705 57.1037 368.338 57.1037C368.856 57.1037 369.287 56.9851 369.63 56.7478C369.981 56.5018 370.227 56.1766 370.368 55.7724H371.66C371.466 56.4666 371.08 57.0334 370.5 57.4728C369.92 57.9033 369.199 58.1186 368.338 58.1186C367.653 58.1186 367.037 57.9649 366.493 57.6573C365.957 57.3497 365.535 56.9148 365.227 56.3524C364.92 55.7812 364.766 55.1222 364.766 54.3752C364.766 53.6283 364.915 52.9737 365.214 52.4113C365.513 51.8489 365.93 51.4183 366.466 51.1195C367.011 50.812 367.635 50.6582 368.338 50.6582C369.023 50.6582 369.63 50.8076 370.157 51.1064C370.684 51.4051 371.088 51.8181 371.37 52.3454C371.66 52.8638 371.805 53.4526 371.805 54.1116ZM370.566 53.8612C370.566 53.4042 370.464 53.0132 370.262 52.6881C370.06 52.3542 369.783 52.1037 369.432 51.9368C369.089 51.761 368.707 51.6731 368.285 51.6731C367.679 51.6731 367.16 51.8665 366.73 52.2531C366.308 52.6398 366.066 53.1758 366.005 53.8612H370.566Z" fill="#979797"/>
<path d="M91.5511 51.3999C91.5511 50.5035 91.7532 49.6995 92.1574 48.9877C92.5616 48.2672 93.1108 47.7048 93.805 47.3006C94.508 46.8964 95.2857 46.6943 96.138 46.6943C97.1398 46.6943 98.0141 46.9359 98.761 47.4192C99.508 47.9025 100.053 48.5879 100.395 49.4754H98.9587C98.7039 48.9218 98.3348 48.4957 97.8515 48.1969C97.377 47.8981 96.8059 47.7487 96.138 47.7487C95.4966 47.7487 94.921 47.8981 94.4113 48.1969C93.9017 48.4957 93.5018 48.9218 93.2119 49.4754C92.9219 50.0202 92.7769 50.6617 92.7769 51.3999C92.7769 52.1292 92.9219 52.7707 93.2119 53.3243C93.5018 53.8691 93.9017 54.2909 94.4113 54.5896C94.921 54.8884 95.4966 55.0378 96.138 55.0378C96.8059 55.0378 97.377 54.8928 97.8515 54.6028C98.3348 54.3041 98.7039 53.8779 98.9587 53.3243H100.395C100.053 54.203 99.508 54.884 98.761 55.3673C98.0141 55.8418 97.1398 56.0791 96.138 56.0791C95.2857 56.0791 94.508 55.8814 93.805 55.4859C93.1108 55.0817 92.5616 54.5237 92.1574 53.812C91.7532 53.1002 91.5511 52.2962 91.5511 51.3999ZM105.766 48.645C106.311 48.645 106.803 48.7637 107.242 49.0009C107.682 49.2294 108.025 49.5765 108.271 50.0422C108.525 50.5079 108.653 51.0747 108.653 51.7426V56H107.467V51.9139C107.467 51.1934 107.286 50.6441 106.926 50.2663C106.566 49.8796 106.074 49.6863 105.45 49.6863C104.817 49.6863 104.312 49.884 103.934 50.2795C103.565 50.6749 103.38 51.2505 103.38 52.0062V56H102.181V46.2461H103.38V49.805C103.618 49.4359 103.943 49.1503 104.356 48.9482C104.778 48.7461 105.248 48.645 105.766 48.645ZM113.762 56.1186C113.086 56.1186 112.471 55.9649 111.917 55.6573C111.372 55.3497 110.942 54.9148 110.625 54.3524C110.318 53.7812 110.164 53.1222 110.164 52.3752C110.164 51.6371 110.322 50.9868 110.639 50.4245C110.964 49.8533 111.403 49.4183 111.957 49.1195C112.51 48.812 113.13 48.6582 113.815 48.6582C114.501 48.6582 115.12 48.812 115.674 49.1195C116.227 49.4183 116.662 49.8489 116.979 50.4113C117.304 50.9737 117.466 51.6283 117.466 52.3752C117.466 53.1222 117.299 53.7812 116.965 54.3524C116.64 54.9148 116.196 55.3497 115.634 55.6573C115.072 55.9649 114.448 56.1186 113.762 56.1186ZM113.762 55.0642C114.193 55.0642 114.597 54.9631 114.975 54.761C115.353 54.5589 115.656 54.2557 115.885 53.8515C116.122 53.4473 116.24 52.9552 116.24 52.3752C116.24 51.7953 116.126 51.3032 115.898 50.899C115.669 50.4948 115.37 50.196 115.001 50.0027C114.632 49.8006 114.233 49.6995 113.802 49.6995C113.363 49.6995 112.958 49.8006 112.589 50.0027C112.229 50.196 111.939 50.4948 111.719 50.899C111.5 51.3032 111.39 51.7953 111.39 52.3752C111.39 52.964 111.495 53.4605 111.706 53.8647C111.926 54.2689 112.216 54.5721 112.576 54.7742C112.936 54.9675 113.332 55.0642 113.762 55.0642ZM119.663 47.6037C119.434 47.6037 119.241 47.5247 119.083 47.3665C118.925 47.2083 118.846 47.015 118.846 46.7865C118.846 46.5581 118.925 46.3647 119.083 46.2066C119.241 46.0484 119.434 45.9693 119.663 45.9693C119.882 45.9693 120.067 46.0484 120.216 46.2066C120.375 46.3647 120.454 46.5581 120.454 46.7865C120.454 47.015 120.375 47.2083 120.216 47.3665C120.067 47.5247 119.882 47.6037 119.663 47.6037ZM120.243 48.7768V56H119.043V48.7768H120.243ZM124.844 56.1186C124.291 56.1186 123.794 56.0264 123.355 55.8418C122.915 55.6485 122.568 55.3849 122.313 55.051C122.059 54.7083 121.918 54.3172 121.892 53.8779H123.131C123.166 54.2381 123.333 54.5325 123.632 54.761C123.939 54.9895 124.339 55.1037 124.831 55.1037C125.288 55.1037 125.648 55.0026 125.912 54.8005C126.175 54.5984 126.307 54.3436 126.307 54.036C126.307 53.7197 126.167 53.4868 125.885 53.3374C125.604 53.1793 125.169 53.0255 124.581 52.8761C124.045 52.7355 123.605 52.5949 123.262 52.4543C122.929 52.3049 122.639 52.0897 122.392 51.8085C122.155 51.5185 122.037 51.1406 122.037 50.6749C122.037 50.3058 122.146 49.9675 122.366 49.66C122.586 49.3524 122.898 49.1108 123.302 48.935C123.706 48.7505 124.168 48.6582 124.686 48.6582C125.486 48.6582 126.131 48.8603 126.624 49.2645C127.116 49.6688 127.379 50.2224 127.414 50.9253H126.215C126.189 50.5475 126.035 50.2443 125.754 50.0159C125.481 49.7874 125.112 49.6731 124.646 49.6731C124.216 49.6731 123.873 49.7654 123.618 49.9499C123.363 50.1345 123.236 50.3761 123.236 50.6749C123.236 50.9122 123.311 51.1099 123.46 51.268C123.618 51.4174 123.812 51.5404 124.04 51.6371C124.277 51.725 124.603 51.826 125.016 51.9403C125.534 52.0809 125.956 52.2215 126.281 52.3621C126.606 52.4939 126.883 52.696 127.111 52.9684C127.349 53.2408 127.472 53.5967 127.48 54.036C127.48 54.4315 127.37 54.7874 127.151 55.1037C126.931 55.42 126.619 55.6705 126.215 55.855C125.82 56.0308 125.363 56.1186 124.844 56.1186ZM129.793 47.6037C129.565 47.6037 129.371 47.5247 129.213 47.3665C129.055 47.2083 128.976 47.015 128.976 46.7865C128.976 46.5581 129.055 46.3647 129.213 46.2066C129.371 46.0484 129.565 45.9693 129.793 45.9693C130.013 45.9693 130.197 46.0484 130.347 46.2066C130.505 46.3647 130.584 46.5581 130.584 46.7865C130.584 47.015 130.505 47.2083 130.347 47.3665C130.197 47.5247 130.013 47.6037 129.793 47.6037ZM130.373 48.7768V56H129.174V48.7768H130.373ZM133.617 49.9499C133.828 49.5369 134.126 49.2162 134.513 48.9877C134.909 48.7593 135.387 48.645 135.95 48.645V49.884H135.633C134.289 49.884 133.617 50.6134 133.617 52.0721V56H132.417V48.7768H133.617V49.9499ZM147.254 48.7768V56H146.055V54.9323C145.826 55.3014 145.506 55.5914 145.093 55.8023C144.689 56.0044 144.24 56.1054 143.748 56.1054C143.186 56.1054 142.681 55.9912 142.232 55.7627C141.784 55.5255 141.428 55.174 141.165 54.7083C140.91 54.2425 140.783 53.6758 140.783 53.0079V48.7768H141.969V52.8498C141.969 53.5615 142.149 54.1107 142.509 54.4974C142.87 54.8752 143.362 55.0642 143.986 55.0642C144.627 55.0642 145.132 54.8664 145.501 54.471C145.87 54.0756 146.055 53.5 146.055 52.7443V48.7768H147.254ZM152.799 48.645C153.678 48.645 154.389 48.913 154.934 49.4491C155.479 49.9763 155.751 50.7408 155.751 51.7426V56H154.565V51.9139C154.565 51.1934 154.385 50.6441 154.025 50.2663C153.665 49.8796 153.172 49.6863 152.549 49.6863C151.916 49.6863 151.411 49.884 151.033 50.2795C150.664 50.6749 150.479 51.2505 150.479 52.0062V56H149.28V48.7768H150.479V49.805C150.716 49.4359 151.037 49.1503 151.441 48.9482C151.854 48.7461 152.307 48.645 152.799 48.645ZM160.777 52.3752C160.777 51.6283 160.926 50.9781 161.225 50.4245C161.524 49.8621 161.937 49.4271 162.464 49.1195C163 48.812 163.611 48.6582 164.296 48.6582C165.184 48.6582 165.913 48.8735 166.484 49.3041C167.064 49.7347 167.446 50.3322 167.631 51.0967H166.339C166.216 50.6573 165.974 50.3102 165.614 50.0554C165.263 49.8006 164.823 49.6731 164.296 49.6731C163.611 49.6731 163.057 49.9104 162.635 50.3849C162.213 50.8506 162.003 51.5141 162.003 52.3752C162.003 53.2452 162.213 53.9174 162.635 54.3919C163.057 54.8664 163.611 55.1037 164.296 55.1037C164.823 55.1037 165.263 54.9807 165.614 54.7346C165.966 54.4886 166.207 54.1371 166.339 53.6802H167.631C167.438 54.4183 167.051 55.0114 166.471 55.4596C165.891 55.8989 165.166 56.1186 164.296 56.1186C163.611 56.1186 163 55.9649 162.464 55.6573C161.937 55.3497 161.524 54.9148 161.225 54.3524C160.926 53.79 160.777 53.1309 160.777 52.3752ZM175.822 52.1116C175.822 52.3401 175.809 52.5817 175.782 52.8366H170.009C170.053 53.5483 170.295 54.1063 170.734 54.5106C171.182 54.906 171.722 55.1037 172.355 55.1037C172.874 55.1037 173.304 54.9851 173.647 54.7478C173.998 54.5018 174.244 54.1766 174.385 53.7724H175.677C175.483 54.4666 175.097 55.0334 174.517 55.4728C173.937 55.9033 173.216 56.1186 172.355 56.1186C171.67 56.1186 171.055 55.9649 170.51 55.6573C169.974 55.3497 169.552 54.9148 169.244 54.3524C168.937 53.7812 168.783 53.1222 168.783 52.3752C168.783 51.6283 168.933 50.9737 169.231 50.4113C169.53 49.8489 169.947 49.4183 170.483 49.1195C171.028 48.812 171.652 48.6582 172.355 48.6582C173.041 48.6582 173.647 48.8076 174.174 49.1064C174.701 49.4051 175.106 49.8181 175.387 50.3454C175.677 50.8638 175.822 51.4526 175.822 52.1116ZM174.583 51.8612C174.583 51.4042 174.482 51.0132 174.28 50.6881C174.077 50.3542 173.801 50.1037 173.449 49.9368C173.106 49.761 172.724 49.6731 172.302 49.6731C171.696 49.6731 171.178 49.8665 170.747 50.2531C170.325 50.6398 170.084 51.1758 170.022 51.8612H174.583ZM180.924 48.645C181.803 48.645 182.515 48.913 183.06 49.4491C183.604 49.9763 183.877 50.7408 183.877 51.7426V56H182.691V51.9139C182.691 51.1934 182.51 50.6441 182.15 50.2663C181.79 49.8796 181.298 49.6863 180.674 49.6863C180.041 49.6863 179.536 49.884 179.158 50.2795C178.789 50.6749 178.604 51.2505 178.604 52.0062V56H177.405V48.7768H178.604V49.805C178.842 49.4359 179.162 49.1503 179.567 48.9482C179.98 48.7461 180.432 48.645 180.924 48.645ZM187.299 49.7654V54.0229C187.299 54.3744 187.374 54.6248 187.523 54.7742C187.673 54.9148 187.932 54.9851 188.301 54.9851H189.184V56H188.103C187.435 56 186.935 55.8462 186.601 55.5387C186.267 55.2311 186.1 54.7258 186.1 54.0229V49.7654H185.164V48.7768H186.1V46.9579H187.299V48.7768H189.184V49.7654H187.299ZM191.837 49.9499C192.048 49.5369 192.347 49.2162 192.733 48.9877C193.129 48.7593 193.608 48.645 194.17 48.645V49.884H193.854C192.509 49.884 191.837 50.6134 191.837 52.0721V56H190.637V48.7768H191.837V49.9499ZM202.145 52.1116C202.145 52.3401 202.132 52.5817 202.105 52.8366H196.332C196.376 53.5483 196.618 54.1063 197.057 54.5106C197.505 54.906 198.046 55.1037 198.678 55.1037C199.197 55.1037 199.627 54.9851 199.97 54.7478C200.322 54.5018 200.568 54.1766 200.708 53.7724H202C201.807 54.4666 201.42 55.0334 200.84 55.4728C200.26 55.9033 199.54 56.1186 198.678 56.1186C197.993 56.1186 197.378 55.9649 196.833 55.6573C196.297 55.3497 195.875 54.9148 195.568 54.3524C195.26 53.7812 195.106 53.1222 195.106 52.3752C195.106 51.6283 195.256 50.9737 195.555 50.4113C195.853 49.8489 196.271 49.4183 196.807 49.1195C197.352 48.812 197.975 48.6582 198.678 48.6582C199.364 48.6582 199.97 48.8076 200.497 49.1064C201.025 49.4051 201.429 49.8181 201.71 50.3454C202 50.8638 202.145 51.4526 202.145 52.1116ZM200.906 51.8612C200.906 51.4042 200.805 51.0132 200.603 50.6881C200.401 50.3542 200.124 50.1037 199.772 49.9368C199.43 49.761 199.047 49.6731 198.626 49.6731C198.019 49.6731 197.501 49.8665 197.07 50.2531C196.649 50.6398 196.407 51.1758 196.345 51.8612H200.906Z" fill="#22A383"/>
<path d="M440.778 51.3999C440.778 50.5035 440.98 49.6995 441.385 48.9877C441.789 48.2672 442.338 47.7048 443.032 47.3006C443.735 46.8964 444.513 46.6943 445.365 46.6943C446.367 46.6943 447.241 46.9359 447.988 47.4192C448.735 47.9025 449.28 48.5879 449.623 49.4754H448.186C447.931 48.9218 447.562 48.4957 447.079 48.1969C446.604 47.8981 446.033 47.7487 445.365 47.7487C444.724 47.7487 444.148 47.8981 443.638 48.1969C443.129 48.4957 442.729 48.9218 442.439 49.4754C442.149 50.0202 442.004 50.6617 442.004 51.3999C442.004 52.1292 442.149 52.7707 442.439 53.3243C442.729 53.8691 443.129 54.2909 443.638 54.5896C444.148 54.8884 444.724 55.0378 445.365 55.0378C446.033 55.0378 446.604 54.8928 447.079 54.6028C447.562 54.3041 447.931 53.8779 448.186 53.3243H449.623C449.28 54.203 448.735 54.884 447.988 55.3673C447.241 55.8418 446.367 56.0791 445.365 56.0791C444.513 56.0791 443.735 55.8814 443.032 55.4859C442.338 55.0817 441.789 54.5237 441.385 53.812C440.98 53.1002 440.778 52.2962 440.778 51.3999ZM454.993 48.645C455.538 48.645 456.03 48.7637 456.47 49.0009C456.909 49.2294 457.252 49.5765 457.498 50.0422C457.753 50.5079 457.88 51.0747 457.88 51.7426V56H456.694V51.9139C456.694 51.1934 456.514 50.6441 456.153 50.2663C455.793 49.8796 455.301 49.6863 454.677 49.6863C454.044 49.6863 453.539 49.884 453.161 50.2795C452.792 50.6749 452.608 51.2505 452.608 52.0062V56H451.408V46.2461H452.608V49.805C452.845 49.4359 453.17 49.1503 453.583 48.9482C454.005 48.7461 454.475 48.645 454.993 48.645ZM462.99 56.1186C462.313 56.1186 461.698 55.9649 461.144 55.6573C460.599 55.3497 460.169 54.9148 459.852 54.3524C459.545 53.7812 459.391 53.1222 459.391 52.3752C459.391 51.6371 459.549 50.9868 459.866 50.4245C460.191 49.8533 460.63 49.4183 461.184 49.1195C461.737 48.812 462.357 48.6582 463.042 48.6582C463.728 48.6582 464.347 48.812 464.901 49.1195C465.454 49.4183 465.889 49.8489 466.206 50.4113C466.531 50.9737 466.693 51.6283 466.693 52.3752C466.693 53.1222 466.526 53.7812 466.192 54.3524C465.867 54.9148 465.424 55.3497 464.861 55.6573C464.299 55.9649 463.675 56.1186 462.99 56.1186ZM462.99 55.0642C463.42 55.0642 463.824 54.9631 464.202 54.761C464.58 54.5589 464.883 54.2557 465.112 53.8515C465.349 53.4473 465.468 52.9552 465.468 52.3752C465.468 51.7953 465.353 51.3032 465.125 50.899C464.896 50.4948 464.598 50.196 464.229 50.0027C463.859 49.8006 463.46 49.6995 463.029 49.6995C462.59 49.6995 462.185 49.8006 461.816 50.0027C461.456 50.196 461.166 50.4948 460.946 50.899C460.727 51.3032 460.617 51.7953 460.617 52.3752C460.617 52.964 460.722 53.4605 460.933 53.8647C461.153 54.2689 461.443 54.5721 461.803 54.7742C462.164 54.9675 462.559 55.0642 462.99 55.0642ZM468.89 47.6037C468.661 47.6037 468.468 47.5247 468.31 47.3665C468.152 47.2083 468.073 47.015 468.073 46.7865C468.073 46.5581 468.152 46.3647 468.31 46.2066C468.468 46.0484 468.661 45.9693 468.89 45.9693C469.11 45.9693 469.294 46.0484 469.444 46.2066C469.602 46.3647 469.681 46.5581 469.681 46.7865C469.681 47.015 469.602 47.2083 469.444 47.3665C469.294 47.5247 469.11 47.6037 468.89 47.6037ZM469.47 48.7768V56H468.27V48.7768H469.47ZM474.071 56.1186C473.518 56.1186 473.021 56.0264 472.582 55.8418C472.142 55.6485 471.795 55.3849 471.541 55.051C471.286 54.7083 471.145 54.3172 471.119 53.8779H472.358C472.393 54.2381 472.56 54.5325 472.859 54.761C473.166 54.9895 473.566 55.1037 474.058 55.1037C474.515 55.1037 474.875 55.0026 475.139 54.8005C475.403 54.5984 475.534 54.3436 475.534 54.036C475.534 53.7197 475.394 53.4868 475.113 53.3374C474.831 53.1793 474.396 53.0255 473.808 52.8761C473.272 52.7355 472.832 52.5949 472.49 52.4543C472.156 52.3049 471.866 52.0897 471.62 51.8085C471.382 51.5185 471.264 51.1406 471.264 50.6749C471.264 50.3058 471.374 49.9675 471.593 49.66C471.813 49.3524 472.125 49.1108 472.529 48.935C472.933 48.7505 473.395 48.6582 473.913 48.6582C474.713 48.6582 475.359 48.8603 475.851 49.2645C476.343 49.6688 476.606 50.2224 476.642 50.9253H475.442C475.416 50.5475 475.262 50.2443 474.981 50.0159C474.708 49.7874 474.339 49.6731 473.874 49.6731C473.443 49.6731 473.1 49.7654 472.845 49.9499C472.591 50.1345 472.463 50.3761 472.463 50.6749C472.463 50.9122 472.538 51.1099 472.687 51.268C472.845 51.4174 473.039 51.5404 473.267 51.6371C473.505 51.725 473.83 51.826 474.243 51.9403C474.761 52.0809 475.183 52.2215 475.508 52.3621C475.833 52.4939 476.11 52.696 476.338 52.9684C476.576 53.2408 476.699 53.5967 476.707 54.036C476.707 54.4315 476.598 54.7874 476.378 55.1037C476.158 55.42 475.846 55.6705 475.442 55.855C475.047 56.0308 474.59 56.1186 474.071 56.1186ZM479.02 47.6037C478.792 47.6037 478.598 47.5247 478.44 47.3665C478.282 47.2083 478.203 47.015 478.203 46.7865C478.203 46.5581 478.282 46.3647 478.44 46.2066C478.598 46.0484 478.792 45.9693 479.02 45.9693C479.24 45.9693 479.424 46.0484 479.574 46.2066C479.732 46.3647 479.811 46.5581 479.811 46.7865C479.811 47.015 479.732 47.2083 479.574 47.3665C479.424 47.5247 479.24 47.6037 479.02 47.6037ZM479.6 48.7768V56H478.401V48.7768H479.6ZM482.844 49.9499C483.055 49.5369 483.354 49.2162 483.74 48.9877C484.136 48.7593 484.615 48.645 485.177 48.645V49.884H484.861C483.516 49.884 482.844 50.6134 482.844 52.0721V56H481.644V48.7768H482.844V49.9499ZM496.482 48.7768V56H495.282V54.9323C495.054 55.3014 494.733 55.5914 494.32 55.8023C493.916 56.0044 493.468 56.1054 492.975 56.1054C492.413 56.1054 491.908 55.9912 491.46 55.7627C491.011 55.5255 490.656 55.174 490.392 54.7083C490.137 54.2425 490.01 53.6758 490.01 53.0079V48.7768H491.196V52.8498C491.196 53.5615 491.376 54.1107 491.736 54.4974C492.097 54.8752 492.589 55.0642 493.213 55.0642C493.854 55.0642 494.359 54.8664 494.729 54.471C495.098 54.0756 495.282 53.5 495.282 52.7443V48.7768H496.482ZM502.026 48.645C502.905 48.645 503.617 48.913 504.161 49.4491C504.706 49.9763 504.979 50.7408 504.979 51.7426V56H503.792V51.9139C503.792 51.1934 503.612 50.6441 503.252 50.2663C502.892 49.8796 502.4 49.6863 501.776 49.6863C501.143 49.6863 500.638 49.884 500.26 50.2795C499.891 50.6749 499.706 51.2505 499.706 52.0062V56H498.507V48.7768H499.706V49.805C499.944 49.4359 500.264 49.1503 500.668 48.9482C501.081 48.7461 501.534 48.645 502.026 48.645ZM510.004 52.3752C510.004 51.6283 510.153 50.9781 510.452 50.4245C510.751 49.8621 511.164 49.4271 511.691 49.1195C512.227 48.812 512.838 48.6582 513.523 48.6582C514.411 48.6582 515.14 48.8735 515.711 49.3041C516.291 49.7347 516.673 50.3322 516.858 51.0967H515.566C515.443 50.6573 515.202 50.3102 514.841 50.0554C514.49 49.8006 514.05 49.6731 513.523 49.6731C512.838 49.6731 512.284 49.9104 511.862 50.3849C511.441 50.8506 511.23 51.5141 511.23 52.3752C511.23 53.2452 511.441 53.9174 511.862 54.3919C512.284 54.8664 512.838 55.1037 513.523 55.1037C514.05 55.1037 514.49 54.9807 514.841 54.7346C515.193 54.4886 515.434 54.1371 515.566 53.6802H516.858C516.665 54.4183 516.278 55.0114 515.698 55.4596C515.118 55.8989 514.393 56.1186 513.523 56.1186C512.838 56.1186 512.227 55.9649 511.691 55.6573C511.164 55.3497 510.751 54.9148 510.452 54.3524C510.153 53.79 510.004 53.1309 510.004 52.3752ZM519.658 49.9499C519.869 49.5369 520.168 49.2162 520.554 48.9877C520.95 48.7593 521.429 48.645 521.991 48.645V49.884H521.675C520.33 49.884 519.658 50.6134 519.658 52.0721V56H518.458V48.7768H519.658V49.9499ZM529.966 52.1116C529.966 52.3401 529.953 52.5817 529.926 52.8366H524.153C524.197 53.5483 524.439 54.1063 524.878 54.5106C525.326 54.906 525.867 55.1037 526.499 55.1037C527.018 55.1037 527.448 54.9851 527.791 54.7478C528.143 54.5018 528.389 54.1766 528.529 53.7724H529.821C529.628 54.4666 529.241 55.0334 528.661 55.4728C528.081 55.9033 527.361 56.1186 526.499 56.1186C525.814 56.1186 525.199 55.9649 524.654 55.6573C524.118 55.3497 523.696 54.9148 523.389 54.3524C523.081 53.7812 522.927 53.1222 522.927 52.3752C522.927 51.6283 523.077 50.9737 523.376 50.4113C523.674 49.8489 524.092 49.4183 524.628 49.1195C525.173 48.812 525.796 48.6582 526.499 48.6582C527.185 48.6582 527.791 48.8076 528.318 49.1064C528.846 49.4051 529.25 49.8181 529.531 50.3454C529.821 50.8638 529.966 51.4526 529.966 52.1116ZM528.727 51.8612C528.727 51.4042 528.626 51.0132 528.424 50.6881C528.222 50.3542 527.945 50.1037 527.593 49.9368C527.251 49.761 526.868 49.6731 526.447 49.6731C525.84 49.6731 525.322 49.8665 524.891 50.2531C524.47 50.6398 524.228 51.1758 524.166 51.8612H528.727ZM527.738 46.7338L524.931 48.2364V47.3401L527.738 45.6925V46.7338ZM535.069 48.645C535.947 48.645 536.659 48.913 537.204 49.4491C537.749 49.9763 538.021 50.7408 538.021 51.7426V56H536.835V51.9139C536.835 51.1934 536.655 50.6441 536.294 50.2663C535.934 49.8796 535.442 49.6863 534.818 49.6863C534.185 49.6863 533.68 49.884 533.302 50.2795C532.933 50.6749 532.749 51.2505 532.749 52.0062V56H531.549V48.7768H532.749V49.805C532.986 49.4359 533.307 49.1503 533.711 48.9482C534.124 48.7461 534.576 48.645 535.069 48.645ZM546.571 52.1116C546.571 52.3401 546.558 52.5817 546.531 52.8366H540.758C540.802 53.5483 541.044 54.1063 541.483 54.5106C541.931 54.906 542.472 55.1037 543.104 55.1037C543.623 55.1037 544.053 54.9851 544.396 54.7478C544.748 54.5018 544.994 54.1766 545.134 53.7724H546.426C546.233 54.4666 545.846 55.0334 545.266 55.4728C544.686 55.9033 543.965 56.1186 543.104 56.1186C542.419 56.1186 541.804 55.9649 541.259 55.6573C540.723 55.3497 540.301 54.9148 539.994 54.3524C539.686 53.7812 539.532 53.1222 539.532 52.3752C539.532 51.6283 539.682 50.9737 539.98 50.4113C540.279 49.8489 540.697 49.4183 541.233 49.1195C541.777 48.812 542.401 48.6582 543.104 48.6582C543.79 48.6582 544.396 48.8076 544.923 49.1064C545.451 49.4051 545.855 49.8181 546.136 50.3454C546.426 50.8638 546.571 51.4526 546.571 52.1116ZM545.332 51.8612C545.332 51.4042 545.231 51.0132 545.029 50.6881C544.827 50.3542 544.55 50.1037 544.198 49.9368C543.856 49.761 543.473 49.6731 543.052 49.6731C542.445 49.6731 541.927 49.8665 541.496 50.2531C541.074 50.6398 540.833 51.1758 540.771 51.8612H545.332ZM547.706 52.3621C547.706 51.6239 547.855 50.9781 548.154 50.4245C548.453 49.8621 548.862 49.4271 549.38 49.1195C549.907 48.812 550.492 48.6582 551.133 48.6582C551.766 48.6582 552.315 48.7944 552.781 49.0668C553.246 49.3392 553.593 49.6819 553.822 50.0949V48.7768H555.035V56H553.822V54.6555C553.585 55.0773 553.229 55.4288 552.754 55.71C552.289 55.9824 551.744 56.1186 551.12 56.1186C550.478 56.1186 549.898 55.9605 549.38 55.6441C548.862 55.3278 548.453 54.884 548.154 54.3128C547.855 53.7417 547.706 53.0914 547.706 52.3621ZM553.822 52.3752C553.822 51.8304 553.712 51.3559 553.492 50.9517C553.273 50.5475 552.974 50.2399 552.596 50.029C552.227 49.8094 551.818 49.6995 551.37 49.6995C550.922 49.6995 550.514 49.805 550.144 50.0159C549.775 50.2267 549.481 50.5343 549.261 50.9385C549.042 51.3427 548.932 51.8172 548.932 52.3621C548.932 52.9157 549.042 53.399 549.261 53.812C549.481 54.2162 549.775 54.5281 550.144 54.7478C550.514 54.9587 550.922 55.0642 551.37 55.0642C551.818 55.0642 552.227 54.9587 552.596 54.7478C552.974 54.5281 553.273 54.2162 553.492 53.812C553.712 53.399 553.822 52.9201 553.822 52.3752ZM563.468 48.7768V56H562.268V54.9323C562.04 55.3014 561.719 55.5914 561.306 55.8023C560.902 56.0044 560.453 56.1054 559.961 56.1054C559.399 56.1054 558.894 55.9912 558.446 55.7627C557.997 55.5255 557.642 55.174 557.378 54.7083C557.123 54.2425 556.996 53.6758 556.996 53.0079V48.7768H558.182V52.8498C558.182 53.5615 558.362 54.1107 558.722 54.4974C559.083 54.8752 559.575 55.0642 560.199 55.0642C560.84 55.0642 561.345 54.8664 561.714 54.471C562.084 54.0756 562.268 53.5 562.268 52.7443V48.7768H563.468ZM483.434 65.645C483.979 65.645 484.471 65.7637 484.91 66.0009C485.35 66.2294 485.692 66.5765 485.938 67.0422C486.193 67.5079 486.321 68.0747 486.321 68.7426V73H485.134V68.9139C485.134 68.1934 484.954 67.6441 484.594 67.2663C484.234 66.8796 483.742 66.6863 483.118 66.6863C482.485 66.6863 481.98 66.884 481.602 67.2795C481.233 67.6749 481.048 68.2505 481.048 69.0062V73H479.849V63.2461H481.048V66.805C481.286 66.4359 481.611 66.1503 482.024 65.9482C482.445 65.7461 482.916 65.645 483.434 65.645ZM491.43 73.1186C490.754 73.1186 490.139 72.9649 489.585 72.6573C489.04 72.3497 488.61 71.9148 488.293 71.3524C487.986 70.7812 487.832 70.1222 487.832 69.3752C487.832 68.6371 487.99 67.9868 488.306 67.4245C488.631 66.8533 489.071 66.4183 489.624 66.1195C490.178 65.812 490.798 65.6582 491.483 65.6582C492.168 65.6582 492.788 65.812 493.341 66.1195C493.895 66.4183 494.33 66.8489 494.646 67.4113C494.972 67.9737 495.134 68.6283 495.134 69.3752C495.134 70.1222 494.967 70.7812 494.633 71.3524C494.308 71.9148 493.864 72.3497 493.302 72.6573C492.74 72.9649 492.116 73.1186 491.43 73.1186ZM491.43 72.0642C491.861 72.0642 492.265 71.9631 492.643 71.761C493.021 71.5589 493.324 71.2557 493.552 70.8515C493.79 70.4473 493.908 69.9552 493.908 69.3752C493.908 68.7953 493.794 68.3032 493.566 67.899C493.337 67.4948 493.038 67.196 492.669 67.0027C492.3 66.8006 491.9 66.6995 491.47 66.6995C491.03 66.6995 490.626 66.8006 490.257 67.0027C489.897 67.196 489.607 67.4948 489.387 67.899C489.168 68.3032 489.058 68.7953 489.058 69.3752C489.058 69.964 489.163 70.4605 489.374 70.8647C489.594 71.2689 489.884 71.5721 490.244 71.7742C490.604 71.9675 491 72.0642 491.43 72.0642ZM497.911 66.9499C498.122 66.5369 498.42 66.2162 498.807 65.9877C499.202 65.7593 499.681 65.645 500.244 65.645V66.884H499.927C498.583 66.884 497.911 67.6134 497.911 69.0721V73H496.711V65.7768H497.911V66.9499ZM501.18 69.3621C501.18 68.6239 501.329 67.9781 501.628 67.4245C501.927 66.8621 502.336 66.4271 502.854 66.1195C503.381 65.812 503.966 65.6582 504.607 65.6582C505.24 65.6582 505.789 65.7944 506.255 66.0668C506.721 66.3392 507.068 66.6819 507.296 67.0949V65.7768H508.509V73H507.296V71.6555C507.059 72.0773 506.703 72.4288 506.228 72.71C505.763 72.9824 505.218 73.1186 504.594 73.1186C503.953 73.1186 503.373 72.9605 502.854 72.6441C502.336 72.3278 501.927 71.884 501.628 71.3128C501.329 70.7417 501.18 70.0914 501.18 69.3621ZM507.296 69.3752C507.296 68.8304 507.186 68.3559 506.967 67.9517C506.747 67.5475 506.448 67.2399 506.07 67.029C505.701 66.8094 505.293 66.6995 504.844 66.6995C504.396 66.6995 503.988 66.805 503.619 67.0159C503.25 67.2267 502.955 67.5343 502.735 67.9385C502.516 68.3427 502.406 68.8172 502.406 69.3621C502.406 69.9157 502.516 70.399 502.735 70.812C502.955 71.2162 503.25 71.5281 503.619 71.7478C503.988 71.9587 504.396 72.0642 504.844 72.0642C505.293 72.0642 505.701 71.9587 506.07 71.7478C506.448 71.5281 506.747 71.2162 506.967 70.812C507.186 70.399 507.296 69.9201 507.296 69.3752ZM511.155 64.6037C510.927 64.6037 510.733 64.5247 510.575 64.3665C510.417 64.2083 510.338 64.015 510.338 63.7865C510.338 63.5581 510.417 63.3647 510.575 63.2066C510.733 63.0484 510.927 62.9693 511.155 62.9693C511.375 62.9693 511.559 63.0484 511.709 63.2066C511.867 63.3647 511.946 63.5581 511.946 63.7865C511.946 64.015 511.867 64.2083 511.709 64.3665C511.559 64.5247 511.375 64.6037 511.155 64.6037ZM511.735 65.7768V73H510.536V65.7768H511.735ZM514.979 66.9499C515.19 66.5369 515.489 66.2162 515.875 65.9877C516.271 65.7593 516.75 65.645 517.312 65.645V66.884H516.996C515.651 66.884 514.979 67.6134 514.979 69.0721V73H513.779V65.7768H514.979V66.9499ZM525.287 69.1116C525.287 69.3401 525.274 69.5817 525.247 69.8366H519.474C519.518 70.5483 519.76 71.1063 520.199 71.5106C520.647 71.906 521.188 72.1037 521.82 72.1037C522.339 72.1037 522.769 71.9851 523.112 71.7478C523.464 71.5018 523.71 71.1766 523.85 70.7724H525.142C524.949 71.4666 524.562 72.0334 523.982 72.4728C523.402 72.9033 522.682 73.1186 521.82 73.1186C521.135 73.1186 520.52 72.9649 519.975 72.6573C519.439 72.3497 519.017 71.9148 518.71 71.3524C518.402 70.7812 518.248 70.1222 518.248 69.3752C518.248 68.6283 518.398 67.9737 518.697 67.4113C518.995 66.8489 519.413 66.4183 519.949 66.1195C520.494 65.812 521.117 65.6582 521.82 65.6582C522.506 65.6582 523.112 65.8076 523.639 66.1064C524.167 66.4051 524.571 66.8181 524.852 67.3454C525.142 67.8638 525.287 68.4526 525.287 69.1116ZM524.048 68.8612C524.048 68.4042 523.947 68.0132 523.745 67.6881C523.543 67.3542 523.266 67.1037 522.914 66.9368C522.572 66.761 522.19 66.6731 521.768 66.6731C521.161 66.6731 520.643 66.8665 520.212 67.2531C519.791 67.6398 519.549 68.1758 519.487 68.8612H524.048Z" fill="#979797"/>
<path d="M659.742 56.0923C659.135 56.0923 658.59 55.9868 658.107 55.7759C657.633 55.5562 657.259 55.2575 656.987 54.8796C656.714 54.493 656.574 54.0492 656.565 53.5483H657.844C657.887 53.9789 658.063 54.3436 658.371 54.6424C658.687 54.9323 659.144 55.0773 659.742 55.0773C660.313 55.0773 660.761 54.9367 661.086 54.6555C661.42 54.3656 661.587 53.9965 661.587 53.5483C661.587 53.1969 661.49 52.9113 661.297 52.6916C661.104 52.4719 660.862 52.3049 660.572 52.1907C660.282 52.0765 659.891 51.9535 659.399 51.8216C658.793 51.6635 658.305 51.5053 657.936 51.3471C657.576 51.189 657.264 50.9429 657 50.609C656.745 50.2663 656.618 49.8094 656.618 49.2382C656.618 48.7373 656.745 48.2935 657 47.9069C657.255 47.5203 657.611 47.2215 658.068 47.0106C658.533 46.7997 659.065 46.6943 659.663 46.6943C660.524 46.6943 661.227 46.9095 661.771 47.3401C662.325 47.7707 662.637 48.3419 662.707 49.0536H661.389C661.345 48.7022 661.161 48.3946 660.836 48.131C660.51 47.8586 660.08 47.7224 659.544 47.7224C659.043 47.7224 658.634 47.8542 658.318 48.1178C658.002 48.3726 657.844 48.7329 657.844 49.1986C657.844 49.5326 657.936 49.805 658.12 50.0159C658.314 50.2267 658.547 50.3893 658.819 50.5035C659.1 50.609 659.491 50.732 659.992 50.8726C660.598 51.0396 661.086 51.2065 661.455 51.3735C661.824 51.5317 662.141 51.7821 662.404 52.1248C662.668 52.4587 662.8 52.9157 662.8 53.4956C662.8 53.9438 662.681 54.3656 662.444 54.761C662.206 55.1564 661.855 55.4772 661.389 55.7232C660.923 55.9692 660.374 56.0923 659.742 56.0923ZM664.117 52.3621C664.117 51.6239 664.266 50.9781 664.565 50.4245C664.863 49.8621 665.272 49.4271 665.791 49.1195C666.318 48.812 666.902 48.6582 667.544 48.6582C668.176 48.6582 668.725 48.7944 669.191 49.0668C669.657 49.3392 670.004 49.6819 670.233 50.0949V48.7768H671.445V56H670.233V54.6555C669.995 55.0773 669.639 55.4288 669.165 55.71C668.699 55.9824 668.154 56.1186 667.53 56.1186C666.889 56.1186 666.309 55.9605 665.791 55.6441C665.272 55.3278 664.863 54.884 664.565 54.3128C664.266 53.7417 664.117 53.0914 664.117 52.3621ZM670.233 52.3752C670.233 51.8304 670.123 51.3559 669.903 50.9517C669.683 50.5475 669.385 50.2399 669.007 50.029C668.638 49.8094 668.229 49.6995 667.781 49.6995C667.333 49.6995 666.924 49.805 666.555 50.0159C666.186 50.2267 665.892 50.5343 665.672 50.9385C665.452 51.3427 665.342 51.8172 665.342 52.3621C665.342 52.9157 665.452 53.399 665.672 53.812C665.892 54.2162 666.186 54.5281 666.555 54.7478C666.924 54.9587 667.333 55.0642 667.781 55.0642C668.229 55.0642 668.638 54.9587 669.007 54.7478C669.385 54.5281 669.683 54.2162 669.903 53.812C670.123 53.399 670.233 52.9201 670.233 52.3752ZM674.092 47.6037C673.863 47.6037 673.67 47.5247 673.512 47.3665C673.353 47.2083 673.274 47.015 673.274 46.7865C673.274 46.5581 673.353 46.3647 673.512 46.2066C673.67 46.0484 673.863 45.9693 674.092 45.9693C674.311 45.9693 674.496 46.0484 674.645 46.2066C674.803 46.3647 674.882 46.5581 674.882 46.7865C674.882 47.015 674.803 47.2083 674.645 47.3665C674.496 47.5247 674.311 47.6037 674.092 47.6037ZM674.672 48.7768V56H673.472V48.7768H674.672ZM679.273 56.1186C678.719 56.1186 678.223 56.0264 677.784 55.8418C677.344 55.6485 676.997 55.3849 676.742 55.051C676.487 54.7083 676.347 54.3172 676.32 53.8779H677.559C677.595 54.2381 677.762 54.5325 678.06 54.761C678.368 54.9895 678.768 55.1037 679.26 55.1037C679.717 55.1037 680.077 55.0026 680.341 54.8005C680.604 54.5984 680.736 54.3436 680.736 54.036C680.736 53.7197 680.595 53.4868 680.314 53.3374C680.033 53.1793 679.598 53.0255 679.009 52.8761C678.473 52.7355 678.034 52.5949 677.691 52.4543C677.357 52.3049 677.067 52.0897 676.821 51.8085C676.584 51.5185 676.465 51.1406 676.465 50.6749C676.465 50.3058 676.575 49.9675 676.795 49.66C677.015 49.3524 677.327 49.1108 677.731 48.935C678.135 48.7505 678.596 48.6582 679.115 48.6582C679.914 48.6582 680.56 48.8603 681.052 49.2645C681.544 49.6688 681.808 50.2224 681.843 50.9253H680.644C680.617 50.5475 680.464 50.2443 680.182 50.0159C679.91 49.7874 679.541 49.6731 679.075 49.6731C678.645 49.6731 678.302 49.7654 678.047 49.9499C677.792 50.1345 677.665 50.3761 677.665 50.6749C677.665 50.9122 677.74 51.1099 677.889 51.268C678.047 51.4174 678.24 51.5404 678.469 51.6371C678.706 51.725 679.031 51.826 679.444 51.9403C679.963 52.0809 680.385 52.2215 680.71 52.3621C681.035 52.4939 681.312 52.696 681.54 52.9684C681.777 53.2408 681.9 53.5967 681.909 54.036C681.909 54.4315 681.799 54.7874 681.58 55.1037C681.36 55.42 681.048 55.6705 680.644 55.855C680.248 56.0308 679.791 56.1186 679.273 56.1186ZM684.222 47.6037C683.993 47.6037 683.8 47.5247 683.642 47.3665C683.484 47.2083 683.405 47.015 683.405 46.7865C683.405 46.5581 683.484 46.3647 683.642 46.2066C683.8 46.0484 683.993 45.9693 684.222 45.9693C684.442 45.9693 684.626 46.0484 684.775 46.2066C684.934 46.3647 685.013 46.5581 685.013 46.7865C685.013 47.015 684.934 47.2083 684.775 47.3665C684.626 47.5247 684.442 47.6037 684.222 47.6037ZM684.802 48.7768V56H683.602V48.7768H684.802ZM688.046 49.9499C688.257 49.5369 688.555 49.2162 688.942 48.9877C689.337 48.7593 689.816 48.645 690.379 48.645V49.884H690.062C688.718 49.884 688.046 50.6134 688.046 52.0721V56H686.846V48.7768H688.046V49.9499ZM696.477 46.2461V56H695.277V46.2461H696.477ZM705.112 52.1116C705.112 52.3401 705.098 52.5817 705.072 52.8366H699.299C699.343 53.5483 699.584 54.1063 700.024 54.5106C700.472 54.906 701.012 55.1037 701.645 55.1037C702.163 55.1037 702.594 54.9851 702.937 54.7478C703.288 54.5018 703.534 54.1766 703.675 53.7724H704.967C704.773 54.4666 704.387 55.0334 703.807 55.4728C703.227 55.9033 702.506 56.1186 701.645 56.1186C700.96 56.1186 700.344 55.9649 699.8 55.6573C699.264 55.3497 698.842 54.9148 698.534 54.3524C698.227 53.7812 698.073 53.1222 698.073 52.3752C698.073 51.6283 698.222 50.9737 698.521 50.4113C698.82 49.8489 699.237 49.4183 699.773 49.1195C700.318 48.812 700.942 48.6582 701.645 48.6582C702.33 48.6582 702.937 48.8076 703.464 49.1064C703.991 49.4051 704.395 49.8181 704.677 50.3454C704.967 50.8638 705.112 51.4526 705.112 52.1116ZM703.873 51.8612C703.873 51.4042 703.771 51.0132 703.569 50.6881C703.367 50.3542 703.09 50.1037 702.739 49.9368C702.396 49.761 702.014 49.6731 701.592 49.6731C700.986 49.6731 700.467 49.8665 700.037 50.2531C699.615 50.6398 699.373 51.1758 699.312 51.8612H703.873ZM709.252 56.1186C708.698 56.1186 708.202 56.0264 707.762 55.8418C707.323 55.6485 706.976 55.3849 706.721 55.051C706.466 54.7083 706.326 54.3172 706.299 53.8779H707.538C707.574 54.2381 707.74 54.5325 708.039 54.761C708.347 54.9895 708.747 55.1037 709.239 55.1037C709.696 55.1037 710.056 55.0026 710.32 54.8005C710.583 54.5984 710.715 54.3436 710.715 54.036C710.715 53.7197 710.574 53.4868 710.293 53.3374C710.012 53.1793 709.577 53.0255 708.988 52.8761C708.452 52.7355 708.013 52.5949 707.67 52.4543C707.336 52.3049 707.046 52.0897 706.8 51.8085C706.563 51.5185 706.444 51.1406 706.444 50.6749C706.444 50.3058 706.554 49.9675 706.774 49.66C706.994 49.3524 707.306 49.1108 707.71 48.935C708.114 48.7505 708.575 48.6582 709.094 48.6582C709.893 48.6582 710.539 48.8603 711.031 49.2645C711.523 49.6688 711.787 50.2224 711.822 50.9253H710.623C710.596 50.5475 710.443 50.2443 710.161 50.0159C709.889 49.7874 709.52 49.6731 709.054 49.6731C708.624 49.6731 708.281 49.7654 708.026 49.9499C707.771 50.1345 707.644 50.3761 707.644 50.6749C707.644 50.9122 707.719 51.1099 707.868 51.268C708.026 51.4174 708.219 51.5404 708.448 51.6371C708.685 51.725 709.01 51.826 709.423 51.9403C709.942 52.0809 710.363 52.2215 710.689 52.3621C711.014 52.4939 711.291 52.696 711.519 52.9684C711.756 53.2408 711.879 53.5967 711.888 54.036C711.888 54.4315 711.778 54.7874 711.559 55.1037C711.339 55.42 711.027 55.6705 710.623 55.855C710.227 56.0308 709.77 56.1186 709.252 56.1186ZM624.296 64.6037C624.068 64.6037 623.874 64.5247 623.716 64.3665C623.558 64.2083 623.479 64.015 623.479 63.7865C623.479 63.5581 623.558 63.3647 623.716 63.2066C623.874 63.0484 624.068 62.9693 624.296 62.9693C624.516 62.9693 624.7 63.0484 624.85 63.2066C625.008 63.3647 625.087 63.5581 625.087 63.7865C625.087 64.015 625.008 64.2083 624.85 64.3665C624.7 64.5247 624.516 64.6037 624.296 64.6037ZM624.876 65.7768V73H623.677V65.7768H624.876ZM630.44 65.645C631.319 65.645 632.03 65.913 632.575 66.4491C633.12 66.9763 633.392 67.7408 633.392 68.7426V73H632.206V68.9139C632.206 68.1934 632.026 67.6441 631.666 67.2663C631.305 66.8796 630.813 66.6863 630.189 66.6863C629.557 66.6863 629.051 66.884 628.674 67.2795C628.304 67.6749 628.12 68.2505 628.12 69.0062V73H626.92V65.7768H628.12V66.805C628.357 66.4359 628.678 66.1503 629.082 65.9482C629.495 65.7461 629.948 65.645 630.44 65.645ZM638.291 66.7654H636.775V73H635.576V66.7654H634.64V65.7768H635.576V65.2628C635.576 64.4544 635.782 63.8656 636.195 63.4965C636.617 63.1187 637.289 62.9298 638.212 62.9298V63.9315C637.685 63.9315 637.311 64.037 637.092 64.2479C636.881 64.45 636.775 64.7883 636.775 65.2628V65.7768H638.291V66.7654ZM642.84 73.1186C642.163 73.1186 641.548 72.9649 640.994 72.6573C640.45 72.3497 640.019 71.9148 639.703 71.3524C639.395 70.7812 639.241 70.1222 639.241 69.3752C639.241 68.6371 639.4 67.9868 639.716 67.4245C640.041 66.8533 640.48 66.4183 641.034 66.1195C641.588 65.812 642.207 65.6582 642.892 65.6582C643.578 65.6582 644.197 65.812 644.751 66.1195C645.305 66.4183 645.74 66.8489 646.056 67.4113C646.381 67.9737 646.544 68.6283 646.544 69.3752C646.544 70.1222 646.377 70.7812 646.043 71.3524C645.718 71.9148 645.274 72.3497 644.711 72.6573C644.149 72.9649 643.525 73.1186 642.84 73.1186ZM642.84 72.0642C643.27 72.0642 643.675 71.9631 644.052 71.761C644.43 71.5589 644.733 71.2557 644.962 70.8515C645.199 70.4473 645.318 69.9552 645.318 69.3752C645.318 68.7953 645.204 68.3032 644.975 67.899C644.747 67.4948 644.448 67.196 644.079 67.0027C643.71 66.8006 643.31 66.6995 642.879 66.6995C642.44 66.6995 642.036 66.8006 641.667 67.0027C641.306 67.196 641.016 67.4948 640.797 67.899C640.577 68.3032 640.467 68.7953 640.467 69.3752C640.467 69.964 640.573 70.4605 640.784 70.8647C641.003 71.2689 641.293 71.5721 641.653 71.7742C642.014 71.9675 642.409 72.0642 642.84 72.0642ZM649.32 66.9499C649.531 66.5369 649.83 66.2162 650.216 65.9877C650.612 65.7593 651.091 65.645 651.653 65.645V66.884H651.337C649.992 66.884 649.32 67.6134 649.32 69.0721V73H648.121V65.7768H649.32V66.9499ZM661.724 65.645C662.286 65.645 662.787 65.7637 663.227 66.0009C663.666 66.2294 664.013 66.5765 664.268 67.0422C664.523 67.5079 664.65 68.0747 664.65 68.7426V73H663.464V68.9139C663.464 68.1934 663.284 67.6441 662.924 67.2663C662.572 66.8796 662.093 66.6863 661.487 66.6863C660.863 66.6863 660.366 66.8884 659.997 67.2927C659.628 67.6881 659.444 68.2636 659.444 69.0194V73H658.257V68.9139C658.257 68.1934 658.077 67.6441 657.717 67.2663C657.366 66.8796 656.887 66.6863 656.28 66.6863C655.656 66.6863 655.16 66.8884 654.791 67.2927C654.422 67.6881 654.237 68.2636 654.237 69.0194V73H653.038V65.7768H654.237V66.8181C654.475 66.4403 654.791 66.1503 655.186 65.9482C655.591 65.7461 656.034 65.645 656.518 65.645C657.124 65.645 657.66 65.7812 658.126 66.0536C658.591 66.3261 658.938 66.7259 659.167 67.2531C659.369 66.7434 659.703 66.348 660.169 66.0668C660.634 65.7856 661.153 65.645 661.724 65.645ZM666.17 69.3621C666.17 68.6239 666.319 67.9781 666.618 67.4245C666.917 66.8621 667.325 66.4271 667.844 66.1195C668.371 65.812 668.955 65.6582 669.597 65.6582C670.229 65.6582 670.779 65.7944 671.244 66.0668C671.71 66.3392 672.057 66.6819 672.286 67.0949V65.7768H673.498V73H672.286V71.6555C672.048 72.0773 671.692 72.4288 671.218 72.71C670.752 72.9824 670.207 73.1186 669.583 73.1186C668.942 73.1186 668.362 72.9605 667.844 72.6441C667.325 72.3278 666.917 71.884 666.618 71.3128C666.319 70.7417 666.17 70.0914 666.17 69.3621ZM672.286 69.3752C672.286 68.8304 672.176 68.3559 671.956 67.9517C671.736 67.5475 671.438 67.2399 671.06 67.029C670.691 66.8094 670.282 66.6995 669.834 66.6995C669.386 66.6995 668.977 66.805 668.608 67.0159C668.239 67.2267 667.945 67.5343 667.725 67.9385C667.505 68.3427 667.395 68.8172 667.395 69.3621C667.395 69.9157 667.505 70.399 667.725 70.812C667.945 71.2162 668.239 71.5281 668.608 71.7478C668.977 71.9587 669.386 72.0642 669.834 72.0642C670.282 72.0642 670.691 71.9587 671.06 71.7478C671.438 71.5281 671.736 71.2162 671.956 70.812C672.176 70.399 672.286 69.9201 672.286 69.3752ZM676.988 66.7654V71.0229C676.988 71.3744 677.063 71.6248 677.212 71.7742C677.362 71.9148 677.621 71.9851 677.99 71.9851H678.873V73H677.792C677.125 73 676.624 72.8462 676.29 72.5387C675.956 72.2311 675.789 71.7258 675.789 71.0229V66.7654H674.853V65.7768H675.789V63.9579H676.988V65.7768H678.873V66.7654H676.988ZM680.946 64.6037C680.718 64.6037 680.524 64.5247 680.366 64.3665C680.208 64.2083 680.129 64.015 680.129 63.7865C680.129 63.5581 680.208 63.3647 680.366 63.2066C680.524 63.0484 680.718 62.9693 680.946 62.9693C681.166 62.9693 681.35 63.0484 681.5 63.2066C681.658 63.3647 681.737 63.5581 681.737 63.7865C681.737 64.015 681.658 64.2083 681.5 64.3665C681.35 64.5247 681.166 64.6037 680.946 64.6037ZM681.526 65.7768V73H680.326V65.7768H681.526ZM686.72 73.1186C686.044 73.1186 685.429 72.9649 684.875 72.6573C684.33 72.3497 683.9 71.9148 683.583 71.3524C683.276 70.7812 683.122 70.1222 683.122 69.3752C683.122 68.6371 683.28 67.9868 683.597 67.4245C683.922 66.8533 684.361 66.4183 684.915 66.1195C685.468 65.812 686.088 65.6582 686.773 65.6582C687.459 65.6582 688.078 65.812 688.632 66.1195C689.185 66.4183 689.62 66.8489 689.937 67.4113C690.262 67.9737 690.424 68.6283 690.424 69.3752C690.424 70.1222 690.257 70.7812 689.923 71.3524C689.598 71.9148 689.155 72.3497 688.592 72.6573C688.03 72.9649 687.406 73.1186 686.72 73.1186ZM686.72 72.0642C687.151 72.0642 687.555 71.9631 687.933 71.761C688.311 71.5589 688.614 71.2557 688.843 70.8515C689.08 70.4473 689.198 69.9552 689.198 69.3752C689.198 68.7953 689.084 68.3032 688.856 67.899C688.627 67.4948 688.329 67.196 687.959 67.0027C687.59 66.8006 687.191 66.6995 686.76 66.6995C686.321 66.6995 685.916 66.8006 685.547 67.0027C685.187 67.196 684.897 67.4948 684.677 67.899C684.458 68.3032 684.348 68.7953 684.348 69.3752C684.348 69.964 684.453 70.4605 684.664 70.8647C684.884 71.2689 685.174 71.5721 685.534 71.7742C685.894 71.9675 686.29 72.0642 686.72 72.0642ZM695.521 65.645C696.399 65.645 697.111 65.913 697.656 66.4491C698.201 66.9763 698.473 67.7408 698.473 68.7426V73H697.287V68.9139C697.287 68.1934 697.107 67.6441 696.747 67.2663C696.386 66.8796 695.894 66.6863 695.27 66.6863C694.638 66.6863 694.132 66.884 693.754 67.2795C693.385 67.6749 693.201 68.2505 693.201 69.0062V73H692.001V65.7768H693.201V66.805C693.438 66.4359 693.759 66.1503 694.163 65.9482C694.576 65.7461 695.029 65.645 695.521 65.645ZM702.99 73.1186C702.436 73.1186 701.94 73.0264 701.5 72.8418C701.061 72.6485 700.714 72.3849 700.459 72.051C700.204 71.7083 700.063 71.3172 700.037 70.8779H701.276C701.311 71.2381 701.478 71.5325 701.777 71.761C702.085 71.9895 702.484 72.1037 702.976 72.1037C703.433 72.1037 703.794 72.0026 704.057 71.8005C704.321 71.5984 704.453 71.3436 704.453 71.036C704.453 70.7197 704.312 70.4868 704.031 70.3374C703.75 70.1793 703.315 70.0255 702.726 69.8761C702.19 69.7355 701.751 69.5949 701.408 69.4543C701.074 69.3049 700.784 69.0897 700.538 68.8085C700.301 68.5185 700.182 68.1406 700.182 67.6749C700.182 67.3058 700.292 66.9675 700.512 66.66C700.731 66.3524 701.043 66.1108 701.447 65.935C701.852 65.7505 702.313 65.6582 702.831 65.6582C703.631 65.6582 704.277 65.8603 704.769 66.2645C705.261 66.6688 705.525 67.2224 705.56 67.9253H704.36C704.334 67.5475 704.18 67.2443 703.899 67.0159C703.627 66.7874 703.258 66.6731 702.792 66.6731C702.361 66.6731 702.019 66.7654 701.764 66.9499C701.509 67.1345 701.382 67.3761 701.382 67.6749C701.382 67.9122 701.456 68.1099 701.606 68.268C701.764 68.4174 701.957 68.5404 702.186 68.6371C702.423 68.725 702.748 68.826 703.161 68.9403C703.679 69.0809 704.101 69.2215 704.426 69.3621C704.752 69.4939 705.028 69.696 705.257 69.9684C705.494 70.2408 705.617 70.5967 705.626 71.036C705.626 71.4315 705.516 71.7874 705.296 72.1037C705.077 72.42 704.765 72.6705 704.36 72.855C703.965 73.0308 703.508 73.1186 702.99 73.1186ZM710.385 69.3752C710.385 68.6283 710.534 67.9781 710.833 67.4245C711.132 66.8621 711.545 66.4271 712.072 66.1195C712.608 65.812 713.219 65.6582 713.904 65.6582C714.792 65.6582 715.521 65.8735 716.092 66.3041C716.672 66.7347 717.055 67.3322 717.239 68.0967H715.947C715.824 67.6573 715.583 67.3102 715.222 67.0554C714.871 66.8006 714.432 66.6731 713.904 66.6731C713.219 66.6731 712.665 66.9104 712.244 67.3849C711.822 67.8506 711.611 68.5141 711.611 69.3752C711.611 70.2452 711.822 70.9174 712.244 71.3919C712.665 71.8664 713.219 72.1037 713.904 72.1037C714.432 72.1037 714.871 71.9807 715.222 71.7346C715.574 71.4886 715.816 71.1371 715.947 70.6802H717.239C717.046 71.4183 716.659 72.0114 716.079 72.4596C715.499 72.8989 714.774 73.1186 713.904 73.1186C713.219 73.1186 712.608 72.9649 712.072 72.6573C711.545 72.3497 711.132 71.9148 710.833 71.3524C710.534 70.79 710.385 70.1309 710.385 69.3752ZM720.039 63.2461V73H718.84V63.2461H720.039ZM722.703 64.6037C722.474 64.6037 722.281 64.5247 722.123 64.3665C721.965 64.2083 721.886 64.015 721.886 63.7865C721.886 63.5581 721.965 63.3647 722.123 63.2066C722.281 63.0484 722.474 62.9693 722.703 62.9693C722.922 62.9693 723.107 63.0484 723.256 63.2066C723.415 63.3647 723.494 63.5581 723.494 63.7865C723.494 64.015 723.415 64.2083 723.256 64.3665C723.107 64.5247 722.922 64.6037 722.703 64.6037ZM723.283 65.7768V73H722.083V65.7768H723.283ZM731.917 69.1116C731.917 69.3401 731.904 69.5817 731.878 69.8366H726.105C726.149 70.5483 726.39 71.1063 726.83 71.5106C727.278 71.906 727.818 72.1037 728.451 72.1037C728.969 72.1037 729.4 71.9851 729.743 71.7478C730.094 71.5018 730.34 71.1766 730.481 70.7724H731.773C731.579 71.4666 731.193 72.0334 730.613 72.4728C730.033 72.9033 729.312 73.1186 728.451 73.1186C727.765 73.1186 727.15 72.9649 726.606 72.6573C726.07 72.3497 725.648 71.9148 725.34 71.3524C725.033 70.7812 724.879 70.1222 724.879 69.3752C724.879 68.6283 725.028 67.9737 725.327 67.4113C725.626 66.8489 726.043 66.4183 726.579 66.1195C727.124 65.812 727.748 65.6582 728.451 65.6582C729.136 65.6582 729.743 65.8076 730.27 66.1064C730.797 66.4051 731.201 66.8181 731.483 67.3454C731.773 67.8638 731.917 68.4526 731.917 69.1116ZM730.678 68.8612C730.678 68.4042 730.577 68.0132 730.375 67.6881C730.173 67.3542 729.896 67.1037 729.545 66.9368C729.202 66.761 728.82 66.6731 728.398 66.6731C727.792 66.6731 727.273 66.8665 726.843 67.2531C726.421 67.6398 726.179 68.1758 726.118 68.8612H730.678ZM737.02 65.645C737.899 65.645 738.611 65.913 739.155 66.4491C739.7 66.9763 739.973 67.7408 739.973 68.7426V73H738.786V68.9139C738.786 68.1934 738.606 67.6441 738.246 67.2663C737.886 66.8796 737.394 66.6863 736.77 66.6863C736.137 66.6863 735.632 66.884 735.254 67.2795C734.885 67.6749 734.7 68.2505 734.7 69.0062V73H733.501V65.7768H734.7V66.805C734.937 66.4359 735.258 66.1503 735.662 65.9482C736.075 65.7461 736.528 65.645 737.02 65.645ZM743.395 66.7654V71.0229C743.395 71.3744 743.47 71.6248 743.619 71.7742C743.768 71.9148 744.028 71.9851 744.397 71.9851H745.28V73H744.199C743.531 73 743.03 72.8462 742.696 72.5387C742.363 72.2311 742.196 71.7258 742.196 71.0229V66.7654H741.26V65.7768H742.196V63.9579H743.395V65.7768H745.28V66.7654H743.395Z" fill="#979797"/>
<path d="M807.834 52.3999C807.834 51.5035 808.036 50.6995 808.441 49.9877C808.845 49.2672 809.394 48.7048 810.088 48.3006C810.791 47.8964 811.569 47.6943 812.421 47.6943C813.423 47.6943 814.297 47.9359 815.044 48.4192C815.791 48.9025 816.336 49.5879 816.679 50.4754H815.242C814.987 49.9218 814.618 49.4957 814.135 49.1969C813.66 48.8981 813.089 48.7487 812.421 48.7487C811.78 48.7487 811.204 48.8981 810.695 49.1969C810.185 49.4957 809.785 49.9218 809.495 50.4754C809.205 51.0202 809.06 51.6617 809.06 52.3999C809.06 53.1292 809.205 53.7707 809.495 54.3243C809.785 54.8691 810.185 55.2909 810.695 55.5896C811.204 55.8884 811.78 56.0378 812.421 56.0378C813.089 56.0378 813.66 55.8928 814.135 55.6028C814.618 55.3041 814.987 54.8779 815.242 54.3243H816.679C816.336 55.203 815.791 55.884 815.044 56.3673C814.297 56.8418 813.423 57.0791 812.421 57.0791C811.569 57.0791 810.791 56.8814 810.088 56.4859C809.394 56.0817 808.845 55.5237 808.441 54.812C808.036 54.1002 807.834 53.2962 807.834 52.3999ZM821.615 57.1186C820.938 57.1186 820.323 56.9649 819.769 56.6573C819.224 56.3497 818.794 55.9148 818.477 55.3524C818.17 54.7812 818.016 54.1222 818.016 53.3752C818.016 52.6371 818.174 51.9868 818.491 51.4245C818.816 50.8533 819.255 50.4183 819.809 50.1195C820.362 49.812 820.982 49.6582 821.667 49.6582C822.353 49.6582 822.972 49.812 823.526 50.1195C824.079 50.4183 824.514 50.8489 824.831 51.4113C825.156 51.9737 825.318 52.6283 825.318 53.3752C825.318 54.1222 825.151 54.7812 824.817 55.3524C824.492 55.9148 824.049 56.3497 823.486 56.6573C822.924 56.9649 822.3 57.1186 821.615 57.1186ZM821.615 56.0642C822.045 56.0642 822.449 55.9631 822.827 55.761C823.205 55.5589 823.508 55.2557 823.737 54.8515C823.974 54.4473 824.093 53.9552 824.093 53.3752C824.093 52.7953 823.978 52.3032 823.75 51.899C823.521 51.4948 823.223 51.196 822.854 51.0027C822.484 50.8006 822.085 50.6995 821.654 50.6995C821.215 50.6995 820.81 50.8006 820.441 51.0027C820.081 51.196 819.791 51.4948 819.571 51.899C819.352 52.3032 819.242 52.7953 819.242 53.3752C819.242 53.964 819.347 54.4605 819.558 54.8647C819.778 55.2689 820.068 55.5721 820.428 55.7742C820.789 55.9675 821.184 56.0642 821.615 56.0642ZM830.415 49.645C831.293 49.645 832.005 49.913 832.55 50.4491C833.095 50.9763 833.367 51.7408 833.367 52.7426V57H832.181V52.9139C832.181 52.1934 832.001 51.6441 831.641 51.2663C831.28 50.8796 830.788 50.6863 830.164 50.6863C829.532 50.6863 829.026 50.884 828.649 51.2795C828.279 51.6749 828.095 52.2505 828.095 53.0062V57H826.895V49.7768H828.095V50.805C828.332 50.4359 828.653 50.1503 829.057 49.9482C829.47 49.7461 829.923 49.645 830.415 49.645ZM838.266 50.7654H836.75V57H835.551V50.7654H834.615V49.7768H835.551V49.2628C835.551 48.4544 835.757 47.8656 836.17 47.4965C836.592 47.1187 837.264 46.9298 838.187 46.9298V47.9315C837.66 47.9315 837.286 48.037 837.066 48.2479C836.856 48.45 836.75 48.7883 836.75 49.2628V49.7768H838.266V50.7654ZM840.284 48.6037C840.056 48.6037 839.862 48.5247 839.704 48.3665C839.546 48.2083 839.467 48.015 839.467 47.7865C839.467 47.5581 839.546 47.3647 839.704 47.2066C839.862 47.0484 840.056 46.9693 840.284 46.9693C840.504 46.9693 840.688 47.0484 840.838 47.2066C840.996 47.3647 841.075 47.5581 841.075 47.7865C841.075 48.015 840.996 48.2083 840.838 48.3665C840.688 48.5247 840.504 48.6037 840.284 48.6037ZM840.864 49.7768V57H839.664V49.7768H840.864ZM844.108 50.9499C844.319 50.5369 844.617 50.2162 845.004 49.9877C845.399 49.7593 845.878 49.645 846.441 49.645V50.884H846.124C844.78 50.884 844.108 51.6134 844.108 53.0721V57H842.908V49.7768H844.108V50.9499ZM856.512 49.645C857.074 49.645 857.575 49.7637 858.014 50.0009C858.454 50.2294 858.801 50.5765 859.055 51.0422C859.31 51.5079 859.438 52.0747 859.438 52.7426V57H858.251V52.9139C858.251 52.1934 858.071 51.6441 857.711 51.2663C857.36 50.8796 856.881 50.6863 856.274 50.6863C855.65 50.6863 855.154 50.8884 854.785 51.2927C854.416 51.6881 854.231 52.2636 854.231 53.0194V57H853.045V52.9139C853.045 52.1934 852.865 51.6441 852.505 51.2663C852.153 50.8796 851.674 50.6863 851.068 50.6863C850.444 50.6863 849.947 50.8884 849.578 51.2927C849.209 51.6881 849.025 52.2636 849.025 53.0194V57H847.825V49.7768H849.025V50.8181C849.262 50.4403 849.578 50.1503 849.974 49.9482C850.378 49.7461 850.822 49.645 851.305 49.645C851.911 49.645 852.447 49.7812 852.913 50.0536C853.379 50.3261 853.726 50.7259 853.954 51.2531C854.157 50.7434 854.49 50.348 854.956 50.0668C855.422 49.7856 855.94 49.645 856.512 49.645ZM860.957 53.3621C860.957 52.6239 861.107 51.9781 861.405 51.4245C861.704 50.8621 862.113 50.4271 862.631 50.1195C863.158 49.812 863.743 49.6582 864.384 49.6582C865.017 49.6582 865.566 49.7944 866.032 50.0668C866.498 50.3392 866.845 50.6819 867.073 51.0949V49.7768H868.286V57H867.073V55.6555C866.836 56.0773 866.48 56.4288 866.005 56.71C865.54 56.9824 864.995 57.1186 864.371 57.1186C863.73 57.1186 863.15 56.9605 862.631 56.6441C862.113 56.3278 861.704 55.884 861.405 55.3128C861.107 54.7417 860.957 54.0914 860.957 53.3621ZM867.073 53.3752C867.073 52.8304 866.963 52.3559 866.744 51.9517C866.524 51.5475 866.225 51.2399 865.847 51.029C865.478 50.8094 865.07 50.6995 864.621 50.6995C864.173 50.6995 863.765 50.805 863.396 51.0159C863.027 51.2267 862.732 51.5343 862.513 51.9385C862.293 52.3427 862.183 52.8172 862.183 53.3621C862.183 53.9157 862.293 54.399 862.513 54.812C862.732 55.2162 863.027 55.5281 863.396 55.7478C863.765 55.9587 864.173 56.0642 864.621 56.0642C865.07 56.0642 865.478 55.9587 865.847 55.7478C866.225 55.5281 866.524 55.2162 866.744 54.812C866.963 54.399 867.073 53.9201 867.073 53.3752ZM871.776 50.7654V55.0229C871.776 55.3744 871.851 55.6248 872 55.7742C872.149 55.9148 872.409 55.9851 872.778 55.9851H873.661V57H872.58C871.912 57 871.411 56.8462 871.077 56.5387C870.743 56.2311 870.576 55.7258 870.576 55.0229V50.7654H869.641V49.7768H870.576V47.9579H871.776V49.7768H873.661V50.7654H871.776ZM875.734 48.6037C875.505 48.6037 875.312 48.5247 875.154 48.3665C874.995 48.2083 874.916 48.015 874.916 47.7865C874.916 47.5581 874.995 47.3647 875.154 47.2066C875.312 47.0484 875.505 46.9693 875.734 46.9693C875.953 46.9693 876.138 47.0484 876.287 47.2066C876.445 47.3647 876.524 47.5581 876.524 47.7865C876.524 48.015 876.445 48.2083 876.287 48.3665C876.138 48.5247 875.953 48.6037 875.734 48.6037ZM876.313 49.7768V57H875.114V49.7768H876.313ZM881.508 57.1186C880.831 57.1186 880.216 56.9649 879.663 56.6573C879.118 56.3497 878.687 55.9148 878.371 55.3524C878.063 54.7812 877.91 54.1222 877.91 53.3752C877.91 52.6371 878.068 51.9868 878.384 51.4245C878.709 50.8533 879.149 50.4183 879.702 50.1195C880.256 49.812 880.875 49.6582 881.561 49.6582C882.246 49.6582 882.866 49.812 883.419 50.1195C883.973 50.4183 884.408 50.8489 884.724 51.4113C885.049 51.9737 885.212 52.6283 885.212 53.3752C885.212 54.1222 885.045 54.7812 884.711 55.3524C884.386 55.9148 883.942 56.3497 883.38 56.6573C882.817 56.9649 882.193 57.1186 881.508 57.1186ZM881.508 56.0642C881.939 56.0642 882.343 55.9631 882.721 55.761C883.098 55.5589 883.402 55.2557 883.63 54.8515C883.867 54.4473 883.986 53.9552 883.986 53.3752C883.986 52.7953 883.872 52.3032 883.643 51.899C883.415 51.4948 883.116 51.196 882.747 51.0027C882.378 50.8006 881.978 50.6995 881.548 50.6995C881.108 50.6995 880.704 50.8006 880.335 51.0027C879.975 51.196 879.685 51.4948 879.465 51.899C879.245 52.3032 879.135 52.7953 879.135 53.3752C879.135 53.964 879.241 54.4605 879.452 54.8647C879.671 55.2689 879.961 55.5721 880.322 55.7742C880.682 55.9675 881.077 56.0642 881.508 56.0642ZM890.308 49.645C891.187 49.645 891.899 49.913 892.444 50.4491C892.988 50.9763 893.261 51.7408 893.261 52.7426V57H892.074V52.9139C892.074 52.1934 891.894 51.6441 891.534 51.2663C891.174 50.8796 890.682 50.6863 890.058 50.6863C889.425 50.6863 888.92 50.884 888.542 51.2795C888.173 51.6749 887.988 52.2505 887.988 53.0062V57H886.789V49.7768H887.988V50.805C888.226 50.4359 888.546 50.1503 888.951 49.9482C889.364 49.7461 889.816 49.645 890.308 49.645Z" fill="#979797"/>
<g clip-path="url(#clip0_619_3582)">
<path d="M1024.97 20.5069H7.17618C3.21296 20.5069 -0.00195312 17.6041 -0.00195312 14.0007C-0.00195312 10.4223 3.21296 7.51953 7.17618 7.51953H1024.97C1028.94 7.51953 1032.15 10.4223 1032.15 14.0007C1032.15 17.6041 1028.94 20.5069 1024.97 20.5069Z" fill="#E8E8E8"/>
<rect x="-0.34375" y="7.59961" width="156.302" height="12.5498" rx="5.3922" fill="url(#paint0_linear_619_3582)"/>
</g>
<ellipse cx="146.286" cy="12.9874" rx="13.6709" ry="12.9874" fill="url(#paint1_linear_619_3582)"/>
<ellipse cx="138.835" cy="12.1772" rx="6.83546" ry="7.17723" fill="white"/>
<ellipse cx="681.491" cy="13.671" rx="13.6709" ry="12.9874" fill="#CACACA"/>
<ellipse cx="681.492" cy="13.3296" rx="6.83546" ry="7.17723" fill="white"/>
<ellipse cx="324.677" cy="13.671" rx="13.6709" ry="12.9874" fill="#CACACA"/>
<ellipse cx="324.677" cy="13.3296" rx="6.83546" ry="7.17723" fill="white"/>
<ellipse cx="859.905" cy="14.3546" rx="13.6709" ry="12.9874" fill="#CACACA"/>
<ellipse cx="859.906" cy="14.0132" rx="6.83546" ry="7.17723" fill="white"/>
<ellipse cx="503.091" cy="13.671" rx="13.6709" ry="12.9874" fill="#CACACA"/>
<ellipse cx="503.091" cy="13.3296" rx="6.83546" ry="7.17723" fill="white"/>
<g clip-path="url(#clip1_619_3582)">
<path d="M320.023 97.0764C319.862 97.0914 319.701 97.0552 319.562 96.9728C319.46 96.8686 319.412 96.7241 319.429 96.5798C319.433 96.4596 319.448 96.3401 319.472 96.2225C319.496 96.0875 319.527 95.954 319.565 95.8223L319.987 94.3716C320.03 94.2284 320.059 94.0811 320.073 93.9321C320.073 93.7713 320.094 93.6605 320.094 93.5962C320.103 93.3097 319.981 93.0346 319.762 92.8495C319.492 92.6427 319.157 92.5411 318.818 92.5636C318.576 92.5673 318.335 92.607 318.104 92.6815C317.851 92.7601 317.586 92.8542 317.307 92.9638L317.186 93.4355C317.268 93.4069 317.368 93.3747 317.482 93.339C317.591 93.3067 317.704 93.2898 317.818 93.289C317.978 93.2717 318.138 93.3108 318.272 93.3997C318.363 93.508 318.405 93.6487 318.39 93.7892C318.389 93.9093 318.376 94.0291 318.35 94.1465C318.325 94.2716 318.293 94.4037 318.254 94.5431L317.829 96.0009C317.794 96.1364 317.767 96.2735 317.747 96.4118C317.73 96.5302 317.721 96.6496 317.721 96.7691C317.72 97.0576 317.852 97.3307 318.079 97.5087C318.352 97.7187 318.692 97.8227 319.036 97.8017C319.279 97.8067 319.52 97.7717 319.751 97.6981C319.953 97.629 320.224 97.5302 320.562 97.4015L320.676 96.9513C320.585 96.9893 320.49 97.0204 320.394 97.0442C320.272 97.072 320.147 97.0828 320.023 97.0764Z" fill="#BAB8B8"/>
<path d="M320.47 90.198C320.275 90.0194 320.019 89.9233 319.755 89.93C319.491 89.9241 319.235 90.02 319.04 90.198C318.683 90.506 318.643 91.0452 318.951 91.4024C318.979 91.4342 319.009 91.464 319.04 91.4915C319.447 91.8554 320.063 91.8554 320.47 91.4915C320.827 91.1804 320.864 90.6388 320.553 90.2816C320.527 90.2518 320.499 90.2239 320.47 90.198Z" fill="#BAB8B8"/>
<path d="M318.972 86C314.631 86 311.111 89.5194 311.111 93.8608C311.111 98.2022 314.631 101.722 318.972 101.722C323.313 101.722 326.833 98.2022 326.833 93.8608C326.833 89.5194 323.313 86 318.972 86ZM318.972 101.007C315.025 101.007 311.826 97.8075 311.826 93.8608C311.826 89.9141 315.025 86.7146 318.972 86.7146C322.919 86.7146 326.118 89.9141 326.118 93.8608C326.118 97.8075 322.919 101.007 318.972 101.007Z" fill="#BAB8B8"/>
</g>
<g clip-path="url(#clip2_619_3582)">
<path d="M148.583 97.0764C148.422 97.0914 148.261 97.0552 148.122 96.9728C148.021 96.8686 147.972 96.7241 147.99 96.5798C147.994 96.4596 148.008 96.3401 148.033 96.2225C148.057 96.0875 148.088 95.954 148.126 95.8223L148.547 94.3716C148.591 94.2284 148.62 94.0811 148.633 93.9321C148.633 93.7713 148.655 93.6605 148.655 93.5962C148.664 93.3097 148.541 93.0346 148.322 92.8495C148.053 92.6427 147.718 92.5411 147.379 92.5636C147.136 92.5673 146.895 92.607 146.664 92.6815C146.412 92.7601 146.146 92.8542 145.868 92.9638L145.746 93.4355C145.828 93.4069 145.928 93.3747 146.043 93.339C146.152 93.3067 146.265 93.2898 146.379 93.289C146.538 93.2717 146.699 93.3108 146.832 93.3997C146.923 93.508 146.966 93.6487 146.95 93.7892C146.95 93.9093 146.937 94.0291 146.911 94.1465C146.886 94.2716 146.854 94.4037 146.814 94.5431L146.389 96.0009C146.355 96.1364 146.328 96.2735 146.307 96.4118C146.29 96.5302 146.282 96.6496 146.282 96.7691C146.28 97.0576 146.412 97.3307 146.639 97.5087C146.913 97.7187 147.253 97.8227 147.597 97.8017C147.839 97.8067 148.081 97.7717 148.312 97.6981C148.514 97.629 148.784 97.5302 149.123 97.4015L149.237 96.9513C149.145 96.9893 149.051 97.0204 148.955 97.0442C148.833 97.072 148.708 97.0828 148.583 97.0764Z" fill="#BAB8B8"/>
<path d="M149.03 90.198C148.836 90.0194 148.58 89.9233 148.316 89.93C148.052 89.9241 147.796 90.02 147.601 90.198C147.244 90.506 147.204 91.0452 147.512 91.4024C147.539 91.4342 147.569 91.464 147.601 91.4915C148.008 91.8554 148.623 91.8554 149.03 91.4915C149.387 91.1804 149.425 90.6388 149.114 90.2816C149.088 90.2518 149.06 90.2239 149.03 90.198Z" fill="#BAB8B8"/>
<path d="M147.533 86C143.191 86 139.672 89.5194 139.672 93.8608C139.672 98.2022 143.191 101.722 147.533 101.722C151.874 101.722 155.393 98.2022 155.393 93.8608C155.393 89.5194 151.874 86 147.533 86ZM147.533 101.007C143.586 101.007 140.386 97.8075 140.386 93.8608C140.386 89.9141 143.586 86.7146 147.533 86.7146C151.479 86.7146 154.679 89.9141 154.679 93.8608C154.679 97.8075 151.479 101.007 147.533 101.007Z" fill="#BAB8B8"/>
</g>
<g clip-path="url(#clip3_619_3582)">
<path d="M505.177 97.0764C505.016 97.0914 504.855 97.0552 504.716 96.9728C504.614 96.8686 504.566 96.7241 504.584 96.5798C504.588 96.4596 504.602 96.3401 504.627 96.2225C504.651 96.0875 504.682 95.954 504.72 95.8223L505.141 94.3716C505.185 94.2284 505.213 94.0811 505.227 93.9321C505.227 93.7713 505.248 93.6605 505.248 93.5962C505.257 93.3097 505.135 93.0346 504.916 92.8495C504.647 92.6427 504.311 92.5411 503.973 92.5636C503.73 92.5673 503.489 92.607 503.258 92.6815C503.006 92.7601 502.74 92.8542 502.461 92.9638L502.34 93.4355C502.422 93.4069 502.522 93.3747 502.636 93.339C502.745 93.3067 502.859 93.2898 502.972 93.289C503.132 93.2717 503.292 93.3108 503.426 93.3997C503.517 93.508 503.559 93.6487 503.544 93.7892C503.544 93.9093 503.53 94.0291 503.505 94.1465C503.48 94.2716 503.447 94.4037 503.408 94.5431L502.983 96.0009C502.949 96.1364 502.921 96.2735 502.901 96.4118C502.884 96.5302 502.876 96.6496 502.876 96.7691C502.874 97.0576 503.006 97.3307 503.233 97.5087C503.506 97.7187 503.847 97.8227 504.191 97.8017C504.433 97.8067 504.674 97.7717 504.905 97.6981C505.108 97.629 505.378 97.5302 505.716 97.4015L505.831 96.9513C505.739 96.9893 505.645 97.0204 505.548 97.0442C505.427 97.072 505.302 97.0828 505.177 97.0764Z" fill="#BAB8B8"/>
<path d="M505.624 90.198C505.43 90.0194 505.173 89.9233 504.909 89.93C504.646 89.9241 504.39 90.02 504.195 90.198C503.838 90.506 503.798 91.0452 504.106 91.4024C504.133 91.4342 504.163 91.464 504.195 91.4915C504.602 91.8554 505.217 91.8554 505.624 91.4915C505.981 91.1804 506.019 90.6388 505.708 90.2816C505.682 90.2518 505.654 90.2239 505.624 90.198Z" fill="#BAB8B8"/>
<path d="M504.126 86C499.785 86 496.266 89.5194 496.266 93.8608C496.266 98.2022 499.785 101.722 504.126 101.722C508.468 101.722 511.987 98.2022 511.987 93.8608C511.987 89.5194 508.468 86 504.126 86ZM504.126 101.007C500.18 101.007 496.98 97.8075 496.98 93.8608C496.98 89.9141 500.18 86.7146 504.126 86.7146C508.073 86.7146 511.273 89.9141 511.273 93.8608C511.273 97.8075 508.073 101.007 504.126 101.007Z" fill="#BAB8B8"/>
</g>
<g clip-path="url(#clip4_619_3582)">
<path d="M682.88 97.0764C682.719 97.0914 682.558 97.0552 682.419 96.9728C682.318 96.8686 682.269 96.7241 682.287 96.5798C682.291 96.4596 682.305 96.3401 682.33 96.2225C682.354 96.0875 682.385 95.954 682.423 95.8223L682.844 94.3716C682.888 94.2284 682.916 94.0811 682.93 93.9321C682.93 93.7713 682.951 93.6605 682.951 93.5962C682.96 93.3097 682.838 93.0346 682.619 92.8495C682.35 92.6427 682.015 92.5411 681.676 92.5636C681.433 92.5673 681.192 92.607 680.961 92.6815C680.709 92.7601 680.443 92.8542 680.164 92.9638L680.043 93.4355C680.125 93.4069 680.225 93.3747 680.34 93.339C680.449 93.3067 680.562 93.2898 680.675 93.289C680.835 93.2717 680.996 93.3108 681.129 93.3997C681.22 93.508 681.263 93.6487 681.247 93.7892C681.247 93.9093 681.234 94.0291 681.208 94.1465C681.183 94.2716 681.151 94.4037 681.111 94.5431L680.686 96.0009C680.652 96.1364 680.624 96.2735 680.604 96.4118C680.587 96.5302 680.579 96.6496 680.579 96.7691C680.577 97.0576 680.709 97.3307 680.936 97.5087C681.21 97.7187 681.55 97.8227 681.894 97.8017C682.136 97.8067 682.377 97.7717 682.608 97.6981C682.811 97.629 683.081 97.5302 683.42 97.4015L683.534 96.9513C683.442 96.9893 683.348 97.0204 683.252 97.0442C683.13 97.072 683.005 97.0828 682.88 97.0764Z" fill="#BAB8B8"/>
<path d="M683.327 90.198C683.133 90.0194 682.876 89.9233 682.612 89.93C682.349 89.9241 682.093 90.02 681.898 90.198C681.541 90.506 681.501 91.0452 681.809 91.4024C681.836 91.4342 681.866 91.464 681.898 91.4915C682.305 91.8554 682.92 91.8554 683.327 91.4915C683.684 91.1804 683.722 90.6388 683.411 90.2816C683.385 90.2518 683.357 90.2239 683.327 90.198Z" fill="#BAB8B8"/>
<path d="M681.83 86C677.488 86 673.969 89.5194 673.969 93.8608C673.969 98.2022 677.488 101.722 681.83 101.722C686.171 101.722 689.69 98.2022 689.69 93.8608C689.69 89.5194 686.171 86 681.83 86ZM681.83 101.007C677.883 101.007 674.683 97.8075 674.683 93.8608C674.683 89.9141 677.883 86.7146 681.83 86.7146C685.776 86.7146 688.976 89.9141 688.976 93.8608C688.976 97.8075 685.776 101.007 681.83 101.007Z" fill="#BAB8B8"/>
</g>
<g clip-path="url(#clip5_619_3582)">
<path d="M862.663 97.0764C862.502 97.0914 862.341 97.0552 862.202 96.9728C862.101 96.8686 862.052 96.7241 862.07 96.5798C862.074 96.4596 862.088 96.3401 862.113 96.2225C862.137 96.0875 862.168 95.954 862.206 95.8223L862.627 94.3716C862.671 94.2284 862.7 94.0811 862.713 93.9321C862.713 93.7713 862.735 93.6605 862.735 93.5962C862.744 93.3097 862.621 93.0346 862.402 92.8495C862.133 92.6427 861.798 92.5411 861.459 92.5636C861.216 92.5673 860.975 92.607 860.744 92.6815C860.492 92.7601 860.226 92.8542 859.948 92.9638L859.826 93.4355C859.908 93.4069 860.008 93.3747 860.123 93.339C860.232 93.3067 860.345 93.2898 860.459 93.289C860.618 93.2717 860.779 93.3108 860.912 93.3997C861.003 93.508 861.046 93.6487 861.03 93.7892C861.03 93.9093 861.017 94.0291 860.991 94.1465C860.966 94.2716 860.934 94.4037 860.895 94.5431L860.469 96.0009C860.435 96.1364 860.408 96.2735 860.387 96.4118C860.37 96.5302 860.362 96.6496 860.362 96.7691C860.36 97.0576 860.492 97.3307 860.719 97.5087C860.993 97.7187 861.333 97.8227 861.677 97.8017C861.919 97.8067 862.161 97.7717 862.392 97.6981C862.594 97.629 862.864 97.5302 863.203 97.4015L863.317 96.9513C863.225 96.9893 863.131 97.0204 863.035 97.0442C862.913 97.072 862.788 97.0828 862.663 97.0764Z" fill="#BAB8B8"/>
<path d="M863.11 90.198C862.916 90.0194 862.66 89.9233 862.396 89.93C862.132 89.9241 861.876 90.02 861.681 90.198C861.324 90.506 861.284 91.0452 861.592 91.4024C861.619 91.4342 861.649 91.464 861.681 91.4915C862.088 91.8554 862.703 91.8554 863.11 91.4915C863.467 91.1804 863.505 90.6388 863.194 90.2816C863.168 90.2518 863.14 90.2239 863.11 90.198Z" fill="#BAB8B8"/>
<path d="M861.613 86C857.271 86 853.752 89.5194 853.752 93.8608C853.752 98.2022 857.271 101.722 861.613 101.722C865.954 101.722 869.474 98.2022 869.474 93.8608C869.474 89.5194 865.954 86 861.613 86ZM861.613 101.007C857.666 101.007 854.467 97.8075 854.467 93.8608C854.467 89.9141 857.666 86.7146 861.613 86.7146C865.559 86.7146 868.759 89.9141 868.759 93.8608C868.759 97.8075 865.559 101.007 861.613 101.007Z" fill="#BAB8B8"/>
</g>
<defs>
<linearGradient id="paint0_linear_619_3582" x1="77.8073" y1="7.59961" x2="77.8073" y2="20.1494" gradientUnits="userSpaceOnUse">
<stop stop-color="#88D7A5"/>
<stop offset="1" stop-color="#30AA88"/>
</linearGradient>
<linearGradient id="paint1_linear_619_3582" x1="146.286" y1="0" x2="146.286" y2="25.9747" gradientUnits="userSpaceOnUse">
<stop stop-color="#88D7A5"/>
<stop offset="1" stop-color="#30AA88"/>
</linearGradient>
<clipPath id="clip0_619_3582">
<rect width="1032.15" height="12.9874" fill="white" transform="translate(0 7.51953)"/>
</clipPath>
<clipPath id="clip1_619_3582">
<rect width="15.7216" height="15.7216" fill="white" transform="translate(311.117 86)"/>
</clipPath>
<clipPath id="clip2_619_3582">
<rect width="15.7216" height="15.7216" fill="white" transform="translate(139.666 86)"/>
</clipPath>
<clipPath id="clip3_619_3582">
<rect width="15.7216" height="15.7216" fill="white" transform="translate(496.252 86)"/>
</clipPath>
<clipPath id="clip4_619_3582">
<rect width="15.7216" height="15.7216" fill="white" transform="translate(673.977 86)"/>
</clipPath>
<clipPath id="clip5_619_3582">
<rect width="15.7216" height="15.7216" fill="white" transform="translate(853.754 86)"/>
</clipPath>
</defs>
</svg>
