<svg width="52" height="51" viewBox="0 0 52 51" fill="none" xmlns="http://www.w3.org/2000/svg">
<mask id="mask0_622_6545" style="mask-type:luminance" maskUnits="userSpaceOnUse" x="5" y="5" width="42" height="41">
<path d="M5.4082 5.09961H46.2082V45.8996H5.4082V5.09961Z" fill="white"/>
</mask>
<g mask="url(#mask0_622_6545)">
<mask id="mask1_622_6545" style="mask-type:luminance" maskUnits="userSpaceOnUse" x="5" y="5" width="42" height="41">
<path d="M25.8102 45.9011C14.5615 45.9011 5.41016 36.7493 5.41016 25.5006C5.41016 14.2519 14.5615 5.10059 25.8102 5.10059C37.0588 5.10059 46.2107 14.2519 46.2107 25.5006C46.2107 36.7493 37.0588 45.9011 25.8102 45.9011ZM25.8102 10.6729C17.6342 10.6729 10.9824 17.3246 10.9824 25.5006C10.9824 33.6765 17.6342 40.3283 25.8102 40.3283C33.9861 40.3283 40.6379 33.6765 40.6379 25.5006C40.6379 17.3246 33.9861 10.6729 25.8102 10.6729Z" fill="white"/>
</mask>
<g mask="url(#mask1_622_6545)">
<path d="M5.41016 5.10059V45.8995H46.2091V5.10059H5.41016Z" fill="url(#paint0_linear_622_6545)"/>
</g>
</g>
<mask id="mask2_622_6545" style="mask-type:luminance" maskUnits="userSpaceOnUse" x="9" y="8" width="34" height="35">
<path d="M9.14844 8.83984H42.4684V42.1598H9.14844V8.83984Z" fill="white"/>
</mask>
<g mask="url(#mask2_622_6545)">
<mask id="mask3_622_6545" style="mask-type:luminance" maskUnits="userSpaceOnUse" x="9" y="8" width="34" height="35">
<path d="M25.8102 8.84863C16.6281 8.84863 9.1582 16.3191 9.1582 25.5007C9.1582 34.6823 16.6281 42.1527 25.8102 42.1527C34.9924 42.1527 42.4623 34.6823 42.4623 25.5007C42.4623 16.3191 34.9924 8.84863 25.8102 8.84863ZM25.8102 40.3284C17.6343 40.3284 10.9825 33.6766 10.9825 25.5007C10.9825 17.3247 17.6343 10.6729 25.8102 10.6729C33.9862 10.6729 40.638 17.3247 40.638 25.5007C40.638 33.6766 33.9862 40.3284 25.8102 40.3284Z" fill="white"/>
</mask>
<g mask="url(#mask3_622_6545)">
<path d="M9.1582 8.84863V42.1527H42.4623V8.84863H9.1582Z" fill="url(#paint1_linear_622_6545)"/>
</g>
</g>
<mask id="mask4_622_6545" style="mask-type:luminance" maskUnits="userSpaceOnUse" x="7" y="32" width="11" height="10">
<path d="M7.24414 32.0957H17.1721V41.8877H7.24414V32.0957Z" fill="white"/>
</mask>
<g mask="url(#mask4_622_6545)">
<mask id="mask5_622_6545" style="mask-type:luminance" maskUnits="userSpaceOnUse" x="7" y="32" width="11" height="10">
<path d="M17.1325 36.3566L10.5795 41.8375C10.3707 42.0123 9.47345 41.3721 8.57351 40.4095C7.6741 39.4463 7.0977 38.5097 7.28842 38.3153L13.2767 32.2256L17.1325 36.3566Z" fill="white"/>
</mask>
<g mask="url(#mask5_622_6545)">
<path d="M22.0117 37.4785L11.7453 47.0161L2.2168 36.7592L12.4827 27.2217L22.0117 37.4785Z" fill="url(#paint2_linear_622_6545)"/>
</g>
</g>
<path d="M13.7572 34.5893C13.6658 34.6759 13.7083 34.8698 13.8517 35.0233C13.9952 35.1768 14.1859 35.2326 14.2783 35.1476C14.3708 35.0616 14.3293 34.8666 14.1848 34.712C14.0403 34.5569 13.8485 34.5022 13.7572 34.5893Z" fill="#FFDC6D"/>
<path d="M13.5016 36.3942C13.4129 36.4744 13.4549 36.6609 13.5946 36.8107C13.7343 36.9605 13.9197 37.0173 14.0095 36.9382C14.0993 36.859 14.0584 36.672 13.9176 36.5206C13.7763 36.3703 13.5903 36.3134 13.5016 36.3942Z" fill="#FFDC6D"/>
<path d="M12.3043 36.6848C12.2363 36.7486 12.2709 36.8957 12.3824 37.0153C12.4935 37.1337 12.639 37.1799 12.7076 37.1173C12.7766 37.054 12.7426 36.9058 12.6305 36.7863C12.519 36.6668 12.3723 36.6216 12.3043 36.6848Z" fill="#FFDC6D"/>
<path d="M12.4615 35.3036C12.4185 35.345 12.4403 35.439 12.5099 35.5145C12.58 35.5894 12.6719 35.617 12.7155 35.5756C12.759 35.5347 12.7373 35.4401 12.6671 35.3647C12.5965 35.2892 12.5046 35.2621 12.4615 35.3036Z" fill="#FFDC6D"/>
<path d="M12.7474 34.1789C12.707 34.2182 12.7272 34.3059 12.7915 34.375C12.8563 34.444 12.9408 34.4685 12.9812 34.4297C13.0215 34.3909 13.0019 34.3027 12.9371 34.2336C12.8722 34.164 12.7872 34.1396 12.7474 34.1789Z" fill="#FFDC6D"/>
<path d="M14.5816 35.9238C14.5131 35.9854 14.5434 36.1262 14.6486 36.2388C14.7543 36.352 14.8951 36.3945 14.9641 36.3334C15.0332 36.2728 15.0034 36.131 14.8977 36.0178C14.7915 35.9047 14.6496 35.8622 14.5816 35.9238Z" fill="#FFDC6D"/>
<path d="M12.8595 38.1859C12.7873 38.2497 12.8234 38.4022 12.9397 38.5265C13.0555 38.6508 13.2091 38.7007 13.2824 38.638C13.3552 38.5753 13.3201 38.4223 13.2032 38.297C13.0858 38.1721 12.9323 38.1222 12.8595 38.1859Z" fill="#FFDC6D"/>
<path d="M11.2381 39.1478C11.1993 39.1823 11.2206 39.2678 11.2859 39.338C11.3513 39.4081 11.4363 39.4368 11.4761 39.4022C11.5154 39.3677 11.4942 39.2822 11.4283 39.212C11.3624 39.1414 11.2774 39.1127 11.2381 39.1478Z" fill="#FFDC6D"/>
<path d="M10.4904 39.9345C10.4304 39.9876 10.4649 40.1194 10.5675 40.2288C10.6695 40.3388 10.8012 40.385 10.8623 40.3319C10.9229 40.2793 10.8889 40.147 10.7858 40.037C10.6827 39.927 10.5505 39.8808 10.4904 39.9345Z" fill="#FFDC6D"/>
<path d="M8.83377 38.4511C8.75567 38.5271 8.80561 38.7098 8.94533 38.8596C9.08505 39.0089 9.26302 39.07 9.34217 38.9951C9.42186 38.9202 9.37245 38.7364 9.23167 38.586C9.09036 38.4352 8.91239 38.3746 8.83377 38.4511Z" fill="#FFDC6D"/>
<path d="M10.1786 37.1479C10.1127 37.2121 10.1515 37.3625 10.2652 37.4836C10.3783 37.6053 10.5244 37.6526 10.5914 37.5893C10.6583 37.5261 10.62 37.3752 10.5058 37.2531C10.3916 37.1309 10.245 37.0836 10.1786 37.1479Z" fill="#FFDC6D"/>
<path d="M10.8565 35.7697C10.7991 35.8266 10.8315 35.9567 10.9287 36.0608C11.026 36.165 11.1519 36.2043 11.2098 36.148C11.2682 36.0911 11.2358 35.9604 11.1381 35.8558C11.0403 35.7511 10.9144 35.7123 10.8565 35.7697Z" fill="#FFDC6D"/>
<path d="M9.30437 39.8435C9.23956 39.903 9.27994 40.0502 9.39416 40.1724C9.50837 40.2946 9.65394 40.3461 9.71928 40.2871C9.78516 40.2282 9.74531 40.0805 9.63003 39.9577C9.51528 39.8345 9.36972 39.7835 9.30437 39.8435Z" fill="#FFDC6D"/>
<path d="M11.0496 37.8504C10.9853 37.9099 11.0209 38.0512 11.1288 38.1665C11.2361 38.2818 11.3753 38.3275 11.4401 38.2685C11.5049 38.2096 11.4698 38.0682 11.3614 37.9519C11.2536 37.8361 11.1133 37.7909 11.0496 37.8504Z" fill="#FFDC6D"/>
<path d="M9.20377 37.4041C9.12461 37.4822 9.17402 37.666 9.31374 37.8153C9.45292 37.9646 9.63089 38.0236 9.71058 37.9465C9.79133 37.8695 9.74246 37.6846 9.60221 37.5343C9.46142 37.3839 9.28292 37.3255 9.20377 37.4041Z" fill="#FFDC6D"/>
<path d="M12.0497 38.9256C11.9828 38.9846 12.0173 39.1275 12.1278 39.2454C12.2378 39.3629 12.3812 39.4112 12.4492 39.3533C12.5167 39.2949 12.4827 39.1514 12.3722 39.0329C12.2612 38.9145 12.1167 38.8667 12.0497 38.9256Z" fill="#FFDC6D"/>
<mask id="mask6_622_6545" style="mask-type:luminance" maskUnits="userSpaceOnUse" x="13" y="6" width="32" height="31">
<path d="M13.0918 6.93555H44.2358V36.5835H13.0918V6.93555Z" fill="white"/>
</mask>
<g mask="url(#mask6_622_6545)">
<mask id="mask7_622_6545" style="mask-type:luminance" maskUnits="userSpaceOnUse" x="13" y="7" width="32" height="30">
<path d="M44.1961 13.7187L17.062 36.4143C16.7762 36.6533 15.6956 35.9329 14.6448 34.8072C13.594 33.6815 12.9512 32.5553 13.2126 32.2896L38.015 7.06641L44.1961 13.7187Z" fill="white"/>
</mask>
<g mask="url(#mask7_622_6545)">
<path d="M58.9489 22.947L27.425 52.2337L-1.80273 20.7731L29.7211 -8.51367L58.9489 22.947Z" fill="url(#paint3_linear_622_6545)"/>
</g>
</g>
<path d="M38.0154 7.06685C37.3407 7.75323 38.1625 9.76188 39.8386 11.5649C41.5137 13.3675 43.4591 14.337 44.197 13.7197C44.9508 13.0891 44.1635 11.0512 42.4242 9.1791C40.6849 7.30591 38.7044 6.36613 38.0154 7.06685Z" fill="white"/>
<path d="M38.3368 7.41271C37.7285 8.02524 38.4638 9.82618 39.9688 11.4454C41.4728 13.0636 43.2174 13.9317 43.8767 13.3744C44.5487 12.807 43.8416 10.9816 42.2861 9.30715C40.7301 7.63212 38.9568 6.78849 38.3368 7.41271Z" fill="#5C2524"/>
<mask id="mask8_622_6545" style="mask-type:luminance" maskUnits="userSpaceOnUse" x="11" y="11" width="30" height="29">
<path d="M11.3242 11.0156H40.2922V39.9836H11.3242V11.0156Z" fill="white"/>
</mask>
<g mask="url(#mask8_622_6545)">
<mask id="mask9_622_6545" style="mask-type:luminance" maskUnits="userSpaceOnUse" x="11" y="11" width="30" height="29">
<path d="M36.2945 39.9263L11.3848 15.016L15.325 11.0752L40.2354 35.9855L36.2945 39.9263Z" fill="white"/>
</mask>
<g mask="url(#mask9_622_6545)">
<path d="M11.3105 11V39.8511H40.1611V11H11.3105Z" fill="url(#paint4_linear_622_6545)"/>
</g>
</g>
<defs>
<linearGradient id="paint0_linear_622_6545" x1="22.7722" y1="2.77894" x2="28.848" y2="48.2209" gradientUnits="userSpaceOnUse">
<stop stop-color="#E52F46"/>
<stop offset="0.0625" stop-color="#E52F46"/>
<stop offset="0.078125" stop-color="#E52F46"/>
<stop offset="0.09375" stop-color="#E42E45"/>
<stop offset="0.109375" stop-color="#E42E45"/>
<stop offset="0.117937" stop-color="#E32E44"/>
<stop offset="0.125" stop-color="#E32E44"/>
<stop offset="0.140625" stop-color="#E32E44"/>
<stop offset="0.15625" stop-color="#E22E43"/>
<stop offset="0.171875" stop-color="#E22D43"/>
<stop offset="0.1875" stop-color="#E12D42"/>
<stop offset="0.203125" stop-color="#E12D42"/>
<stop offset="0.21875" stop-color="#E12D41"/>
<stop offset="0.234375" stop-color="#E02C41"/>
<stop offset="0.25" stop-color="#E02C40"/>
<stop offset="0.265625" stop-color="#DF2C3F"/>
<stop offset="0.28125" stop-color="#DF2C3F"/>
<stop offset="0.296875" stop-color="#DE2B3E"/>
<stop offset="0.3125" stop-color="#DE2B3E"/>
<stop offset="0.328125" stop-color="#DD2B3D"/>
<stop offset="0.34375" stop-color="#DD2B3D"/>
<stop offset="0.359375" stop-color="#DD2B3C"/>
<stop offset="0.375" stop-color="#DC2A3C"/>
<stop offset="0.390625" stop-color="#DC2A3B"/>
<stop offset="0.40625" stop-color="#DB2A3B"/>
<stop offset="0.421875" stop-color="#DB2A3A"/>
<stop offset="0.4375" stop-color="#DA293A"/>
<stop offset="0.453125" stop-color="#DA2939"/>
<stop offset="0.46875" stop-color="#D92939"/>
<stop offset="0.484375" stop-color="#D92938"/>
<stop offset="0.5" stop-color="#D92838"/>
<stop offset="0.515625" stop-color="#D82837"/>
<stop offset="0.53125" stop-color="#D82837"/>
<stop offset="0.546875" stop-color="#D72836"/>
<stop offset="0.5625" stop-color="#D72836"/>
<stop offset="0.578125" stop-color="#D62735"/>
<stop offset="0.59375" stop-color="#D62735"/>
<stop offset="0.609375" stop-color="#D52734"/>
<stop offset="0.625" stop-color="#D52734"/>
<stop offset="0.640625" stop-color="#D52633"/>
<stop offset="0.65625" stop-color="#D42633"/>
<stop offset="0.671875" stop-color="#D42632"/>
<stop offset="0.6875" stop-color="#D32632"/>
<stop offset="0.703125" stop-color="#D32531"/>
<stop offset="0.71875" stop-color="#D22531"/>
<stop offset="0.734375" stop-color="#D22530"/>
<stop offset="0.75" stop-color="#D12530"/>
<stop offset="0.765625" stop-color="#D1252F"/>
<stop offset="0.78125" stop-color="#D1242F"/>
<stop offset="0.796875" stop-color="#D0242E"/>
<stop offset="0.8125" stop-color="#D0242E"/>
<stop offset="0.828125" stop-color="#CF242D"/>
<stop offset="0.84375" stop-color="#CF232D"/>
<stop offset="0.859375" stop-color="#CE232C"/>
<stop offset="0.875" stop-color="#CE232C"/>
<stop offset="0.882063" stop-color="#CD232B"/>
<stop offset="0.890625" stop-color="#CD232B"/>
<stop offset="0.90625" stop-color="#CD222A"/>
<stop offset="0.921875" stop-color="#CD222A"/>
<stop offset="0.9375" stop-color="#CC2229"/>
<stop offset="0.953125" stop-color="#CC2229"/>
<stop offset="0.96875" stop-color="#CB2228"/>
<stop offset="0.984375" stop-color="#CB2128"/>
<stop offset="1" stop-color="#CA2127"/>
</linearGradient>
<linearGradient id="paint1_linear_622_6545" x1="18.7167" y1="45.537" x2="32.9039" y2="5.46441" gradientUnits="userSpaceOnUse">
<stop stop-color="#E52F46"/>
<stop offset="0.125" stop-color="#E52F46"/>
<stop offset="0.140625" stop-color="#E42E45"/>
<stop offset="0.15625" stop-color="#E42E44"/>
<stop offset="0.171875" stop-color="#E32E44"/>
<stop offset="0.1875" stop-color="#E32E43"/>
<stop offset="0.203125" stop-color="#E22D43"/>
<stop offset="0.21875" stop-color="#E22D42"/>
<stop offset="0.234375" stop-color="#E12D42"/>
<stop offset="0.25" stop-color="#E12D41"/>
<stop offset="0.261468" stop-color="#E02D41"/>
<stop offset="0.265625" stop-color="#E02C41"/>
<stop offset="0.28125" stop-color="#E02C40"/>
<stop offset="0.296875" stop-color="#E02C40"/>
<stop offset="0.3125" stop-color="#DF2C3F"/>
<stop offset="0.328125" stop-color="#DF2C3F"/>
<stop offset="0.34375" stop-color="#DE2B3E"/>
<stop offset="0.359375" stop-color="#DE2B3E"/>
<stop offset="0.375" stop-color="#DD2B3D"/>
<stop offset="0.390625" stop-color="#DD2B3D"/>
<stop offset="0.40625" stop-color="#DD2B3C"/>
<stop offset="0.421875" stop-color="#DC2A3C"/>
<stop offset="0.4375" stop-color="#DC2A3B"/>
<stop offset="0.453125" stop-color="#DB2A3B"/>
<stop offset="0.46875" stop-color="#DB2A3A"/>
<stop offset="0.484375" stop-color="#DA293A"/>
<stop offset="0.5" stop-color="#DA2939"/>
<stop offset="0.515625" stop-color="#D92939"/>
<stop offset="0.53125" stop-color="#D92938"/>
<stop offset="0.546875" stop-color="#D92938"/>
<stop offset="0.5625" stop-color="#D82837"/>
<stop offset="0.578125" stop-color="#D82837"/>
<stop offset="0.59375" stop-color="#D72836"/>
<stop offset="0.609375" stop-color="#D72836"/>
<stop offset="0.625" stop-color="#D62735"/>
<stop offset="0.640625" stop-color="#D62735"/>
<stop offset="0.65625" stop-color="#D62734"/>
<stop offset="0.671875" stop-color="#D52734"/>
<stop offset="0.6875" stop-color="#D52633"/>
<stop offset="0.703125" stop-color="#D42633"/>
<stop offset="0.71875" stop-color="#D42632"/>
<stop offset="0.734375" stop-color="#D32632"/>
<stop offset="0.738532" stop-color="#D32631"/>
<stop offset="0.75" stop-color="#D32531"/>
<stop offset="0.765625" stop-color="#D22531"/>
<stop offset="0.78125" stop-color="#D22530"/>
<stop offset="0.796875" stop-color="#D22530"/>
<stop offset="0.8125" stop-color="#D1252F"/>
<stop offset="0.828125" stop-color="#D1242F"/>
<stop offset="0.84375" stop-color="#D0242E"/>
<stop offset="0.859375" stop-color="#D0242E"/>
<stop offset="0.875" stop-color="#CF242D"/>
<stop offset="0.890625" stop-color="#CF242D"/>
<stop offset="0.90625" stop-color="#CF232C"/>
<stop offset="0.921875" stop-color="#CE232C"/>
<stop offset="0.9375" stop-color="#CE232B"/>
<stop offset="0.953125" stop-color="#CD232B"/>
<stop offset="0.96875" stop-color="#CD222A"/>
<stop offset="0.984375" stop-color="#CC222A"/>
<stop offset="1" stop-color="#CC2229"/>
</linearGradient>
<linearGradient id="paint2_linear_622_6545" x1="7.11483" y1="32.2088" x2="16.6436" y2="42.4654" gradientUnits="userSpaceOnUse">
<stop stop-color="#FEC144"/>
<stop offset="0.125" stop-color="#FEC144"/>
<stop offset="0.1875" stop-color="#FEC144"/>
<stop offset="0.21875" stop-color="#FEC144"/>
<stop offset="0.234375" stop-color="#FEC144"/>
<stop offset="0.242188" stop-color="#FEC144"/>
<stop offset="0.25" stop-color="#FDC043"/>
<stop offset="0.257812" stop-color="#FDC043"/>
<stop offset="0.265625" stop-color="#FCBF42"/>
<stop offset="0.273437" stop-color="#FCBE41"/>
<stop offset="0.28125" stop-color="#FBBE41"/>
<stop offset="0.289062" stop-color="#FBBD40"/>
<stop offset="0.296875" stop-color="#FABD40"/>
<stop offset="0.304687" stop-color="#F9BC3F"/>
<stop offset="0.3125" stop-color="#F9BB3E"/>
<stop offset="0.320312" stop-color="#F8BB3E"/>
<stop offset="0.328125" stop-color="#F8BA3D"/>
<stop offset="0.335937" stop-color="#F7BA3C"/>
<stop offset="0.34375" stop-color="#F7B93C"/>
<stop offset="0.351562" stop-color="#F6B83B"/>
<stop offset="0.359375" stop-color="#F6B83A"/>
<stop offset="0.367188" stop-color="#F5B73A"/>
<stop offset="0.375" stop-color="#F4B639"/>
<stop offset="0.382812" stop-color="#F4B639"/>
<stop offset="0.390625" stop-color="#F3B538"/>
<stop offset="0.398438" stop-color="#F3B537"/>
<stop offset="0.40625" stop-color="#F2B437"/>
<stop offset="0.414062" stop-color="#F2B336"/>
<stop offset="0.421875" stop-color="#F1B335"/>
<stop offset="0.429688" stop-color="#F1B235"/>
<stop offset="0.4375" stop-color="#F0B234"/>
<stop offset="0.445312" stop-color="#F0B133"/>
<stop offset="0.453125" stop-color="#EFB033"/>
<stop offset="0.460938" stop-color="#EEB032"/>
<stop offset="0.46875" stop-color="#EEAF32"/>
<stop offset="0.476562" stop-color="#EDAE31"/>
<stop offset="0.484375" stop-color="#EDAE30"/>
<stop offset="0.492188" stop-color="#ECAD30"/>
<stop offset="0.5" stop-color="#ECAD2F"/>
<stop offset="0.507812" stop-color="#EBAC2E"/>
<stop offset="0.515625" stop-color="#EBAB2E"/>
<stop offset="0.523438" stop-color="#EAAB2D"/>
<stop offset="0.53125" stop-color="#E9AA2C"/>
<stop offset="0.539062" stop-color="#E9AA2C"/>
<stop offset="0.546875" stop-color="#E8A92B"/>
<stop offset="0.554688" stop-color="#E8A82B"/>
<stop offset="0.5625" stop-color="#E7A82A"/>
<stop offset="0.570312" stop-color="#E7A729"/>
<stop offset="0.578125" stop-color="#E6A629"/>
<stop offset="0.585938" stop-color="#E6A628"/>
<stop offset="0.59375" stop-color="#E5A527"/>
<stop offset="0.601562" stop-color="#E4A527"/>
<stop offset="0.609375" stop-color="#E4A426"/>
<stop offset="0.625" stop-color="#E3A325"/>
<stop offset="0.75" stop-color="#E3A325"/>
<stop offset="1" stop-color="#E3A325"/>
</linearGradient>
<linearGradient id="paint3_linear_622_6545" x1="43.2587" y1="38.272" x2="12.5113" y2="6.7919" gradientUnits="userSpaceOnUse">
<stop stop-color="#BDBDBC"/>
<stop offset="0.0244402" stop-color="#BDBDBC"/>
<stop offset="0.25" stop-color="#BDBDBC"/>
<stop offset="0.375" stop-color="#BDBDBC"/>
<stop offset="0.378906" stop-color="#BEBEBD"/>
<stop offset="0.382812" stop-color="#C0C0BF"/>
<stop offset="0.386719" stop-color="#C1C1C0"/>
<stop offset="0.390625" stop-color="#C2C2C1"/>
<stop offset="0.394531" stop-color="#C3C3C2"/>
<stop offset="0.398438" stop-color="#C5C5C4"/>
<stop offset="0.402344" stop-color="#C6C6C5"/>
<stop offset="0.40625" stop-color="#C7C7C6"/>
<stop offset="0.410156" stop-color="#C9C9C8"/>
<stop offset="0.414062" stop-color="#CACAC9"/>
<stop offset="0.417969" stop-color="#CBCBCA"/>
<stop offset="0.421875" stop-color="#CCCCCC"/>
<stop offset="0.425781" stop-color="#CECECD"/>
<stop offset="0.429688" stop-color="#CFCFCE"/>
<stop offset="0.433594" stop-color="#D0D0CF"/>
<stop offset="0.4375" stop-color="#D1D1D1"/>
<stop offset="0.441406" stop-color="#D3D3D2"/>
<stop offset="0.445313" stop-color="#D4D4D3"/>
<stop offset="0.449219" stop-color="#D5D5D5"/>
<stop offset="0.453125" stop-color="#D7D7D6"/>
<stop offset="0.457031" stop-color="#D8D8D7"/>
<stop offset="0.460938" stop-color="#D9D9D9"/>
<stop offset="0.464844" stop-color="#DADADA"/>
<stop offset="0.46875" stop-color="#DCDCDB"/>
<stop offset="0.472656" stop-color="#DDDDDC"/>
<stop offset="0.476563" stop-color="#DEDEDE"/>
<stop offset="0.480469" stop-color="#DFDFDF"/>
<stop offset="0.484375" stop-color="#E1E1E0"/>
<stop offset="0.488281" stop-color="#E2E2E2"/>
<stop offset="0.492188" stop-color="#E3E3E3"/>
<stop offset="0.496094" stop-color="#E5E5E4"/>
<stop offset="0.5" stop-color="#E6E6E5"/>
<stop offset="0.503906" stop-color="#E7E7E7"/>
<stop offset="0.507813" stop-color="#E8E8E8"/>
<stop offset="0.511719" stop-color="#EAEAE9"/>
<stop offset="0.515625" stop-color="#EBEBEB"/>
<stop offset="0.519531" stop-color="#ECECEC"/>
<stop offset="0.523438" stop-color="#EDEDED"/>
<stop offset="0.527344" stop-color="#EFEFEF"/>
<stop offset="0.53125" stop-color="#F0F0F0"/>
<stop offset="0.535156" stop-color="#F1F1F1"/>
<stop offset="0.539063" stop-color="#F3F3F2"/>
<stop offset="0.542969" stop-color="#F4F4F4"/>
<stop offset="0.546875" stop-color="#F5F5F5"/>
<stop offset="0.550781" stop-color="#F6F6F6"/>
<stop offset="0.554688" stop-color="#F8F8F8"/>
<stop offset="0.558594" stop-color="#F9F9F9"/>
<stop offset="0.5625" stop-color="#FAFAFA"/>
<stop offset="0.566406" stop-color="#FCFCFB"/>
<stop offset="0.570312" stop-color="#FDFDFD"/>
<stop offset="0.574219" stop-color="#FEFEFE"/>
<stop offset="0.578125" stop-color="white"/>
<stop offset="0.59375" stop-color="white"/>
<stop offset="0.625" stop-color="white"/>
<stop offset="0.75" stop-color="white"/>
<stop offset="0.97556" stop-color="white"/>
<stop offset="1" stop-color="white"/>
</linearGradient>
<linearGradient id="paint4_linear_622_6545" x1="23.5874" y1="9.35867" x2="27.8839" y2="41.4926" gradientUnits="userSpaceOnUse">
<stop stop-color="#E22E43"/>
<stop offset="0.03125" stop-color="#E22D43"/>
<stop offset="0.0625" stop-color="#E12D42"/>
<stop offset="0.09375" stop-color="#E12D41"/>
<stop offset="0.117936" stop-color="#E02C41"/>
<stop offset="0.125" stop-color="#E02C40"/>
<stop offset="0.15625" stop-color="#E02C40"/>
<stop offset="0.1875" stop-color="#DF2C3F"/>
<stop offset="0.21875" stop-color="#DE2B3E"/>
<stop offset="0.25" stop-color="#DE2B3E"/>
<stop offset="0.28125" stop-color="#DD2B3D"/>
<stop offset="0.3125" stop-color="#DC2A3C"/>
<stop offset="0.34375" stop-color="#DC2A3C"/>
<stop offset="0.375" stop-color="#DB2A3B"/>
<stop offset="0.40625" stop-color="#DB2A3A"/>
<stop offset="0.4375" stop-color="#DA2939"/>
<stop offset="0.46875" stop-color="#D92939"/>
<stop offset="0.5" stop-color="#D92938"/>
<stop offset="0.53125" stop-color="#D82837"/>
<stop offset="0.5625" stop-color="#D72836"/>
<stop offset="0.59375" stop-color="#D72836"/>
<stop offset="0.625" stop-color="#D62735"/>
<stop offset="0.65625" stop-color="#D62734"/>
<stop offset="0.6875" stop-color="#D52734"/>
<stop offset="0.71875" stop-color="#D42633"/>
<stop offset="0.75" stop-color="#D42632"/>
<stop offset="0.78125" stop-color="#D32631"/>
<stop offset="0.8125" stop-color="#D22531"/>
<stop offset="0.84375" stop-color="#D22530"/>
<stop offset="0.875" stop-color="#D1252F"/>
<stop offset="0.882064" stop-color="#D0242F"/>
<stop offset="0.90625" stop-color="#D0242E"/>
<stop offset="0.9375" stop-color="#D0242E"/>
<stop offset="0.96875" stop-color="#CF242D"/>
<stop offset="1" stop-color="#CF232C"/>
</linearGradient>
</defs>
</svg>
