<svg width="52" height="52" viewBox="0 0 52 52" fill="none" xmlns="http://www.w3.org/2000/svg">
<path d="M38.6466 9.25953C38.6309 9.27632 38.6114 9.29257 38.5881 9.30936C38.5751 9.31857 38.5529 9.33698 38.5226 9.36515C38.4917 9.39332 38.4576 9.4269 38.4196 9.46644C38.4104 9.47619 38.4018 9.48919 38.3942 9.50653C38.3866 9.52332 38.3828 9.5374 38.3828 9.54715C38.3828 9.5634 38.3888 9.57748 38.4007 9.5894C38.4126 9.60132 38.4294 9.60728 38.4511 9.60728H38.7663C38.7853 9.60728 38.7994 9.6024 38.8086 9.59265C38.8178 9.5829 38.8226 9.57098 38.8226 9.5569C38.8226 9.54119 38.8167 9.52873 38.8048 9.51953C38.7934 9.51032 38.7761 9.50598 38.7539 9.50598H38.5301C38.5372 9.49515 38.5442 9.48594 38.5513 9.47782C38.567 9.45832 38.5968 9.43123 38.6396 9.39603C38.6824 9.36082 38.7132 9.33482 38.7316 9.31857C38.7501 9.30232 38.7679 9.27957 38.7858 9.25032C38.8031 9.22161 38.8118 9.18911 38.8118 9.1539C38.8118 9.13115 38.8075 9.10948 38.7994 9.08836C38.7907 9.06723 38.7788 9.04882 38.7636 9.03311C38.7484 9.01686 38.7311 9.0044 38.7111 8.99519C38.6802 8.98165 38.6428 8.97461 38.5989 8.97461C38.5626 8.97461 38.5312 8.98003 38.5041 8.99086C38.4771 9.00115 38.4549 9.01523 38.437 9.03311C38.4196 9.05044 38.4066 9.06994 38.3974 9.09107C38.3888 9.11273 38.3844 9.13332 38.3844 9.15282C38.3844 9.16961 38.3893 9.18207 38.3985 9.19182C38.4077 9.20103 38.4196 9.2059 38.4343 9.2059C38.4505 9.2059 38.463 9.20048 38.4711 9.19019C38.4792 9.1799 38.4868 9.16528 38.4939 9.14632C38.5004 9.12682 38.5052 9.11544 38.5085 9.11111C38.5296 9.07807 38.5594 9.06182 38.5968 9.06182C38.6141 9.06182 38.6309 9.06561 38.6455 9.07373C38.6607 9.08132 38.6726 9.09269 38.6813 9.10732C38.6899 9.12194 38.6943 9.13819 38.6943 9.15661C38.6943 9.1734 38.6899 9.19073 38.6824 9.20807C38.6742 9.2254 38.6623 9.24273 38.6466 9.25953Z" fill="#802947"/>
<path d="M38.4676 13.9482L38.6518 13.6991V13.9482H38.4676ZM38.6669 14.173C38.6767 14.1839 38.6897 14.1893 38.7054 14.1893C38.7216 14.1893 38.7346 14.1839 38.7444 14.173C38.7541 14.1627 38.759 14.146 38.759 14.1243V14.0441H38.7856C38.8072 14.0441 38.8235 14.0403 38.8343 14.0327C38.8451 14.0252 38.8506 14.0132 38.8506 13.997C38.8506 13.9764 38.8441 13.9634 38.8305 13.9575C38.817 13.9515 38.7996 13.9482 38.7774 13.9482H38.759V13.6162C38.759 13.5669 38.7373 13.542 38.694 13.542C38.6805 13.542 38.6691 13.5463 38.6593 13.555C38.6496 13.5642 38.6377 13.5788 38.6225 13.5989L38.3956 13.9027C38.3891 13.9109 38.3842 13.9179 38.3798 13.9239C38.3755 13.9293 38.3712 13.9358 38.3674 13.9417C38.3631 13.9477 38.3603 13.9537 38.3582 13.9591C38.3566 13.965 38.3555 13.9705 38.3555 13.9759C38.3555 13.997 38.362 14.0138 38.3755 14.0257C38.3891 14.0382 38.4096 14.0441 38.4367 14.0441H38.6518V14.1243C38.6518 14.1454 38.6566 14.1617 38.6669 14.173Z" fill="#802947"/>
<path d="M37.2598 15.4388C37.2598 15.4106 37.2549 15.3835 37.2447 15.3586C37.2344 15.3343 37.2203 15.3126 37.2024 15.2942C37.184 15.2763 37.1634 15.2622 37.139 15.2519C37.1152 15.2416 37.0897 15.2362 37.0621 15.2362C37.028 15.2362 36.9906 15.247 36.95 15.2687L36.9744 15.13H37.178C37.1992 15.13 37.2154 15.1252 37.2262 15.1165C37.2371 15.1073 37.2425 15.0948 37.2425 15.0802C37.2425 15.0461 37.2203 15.0293 37.1759 15.0293H36.9494C36.9245 15.0293 36.9067 15.0347 36.8958 15.0461C36.885 15.0569 36.8779 15.0748 36.8736 15.0997L36.8379 15.305C36.8346 15.3229 36.833 15.3326 36.833 15.3343C36.833 15.3467 36.8384 15.3586 36.8492 15.3684C36.8601 15.3787 36.8725 15.3835 36.8866 15.3835C36.8996 15.3835 36.9159 15.3765 36.9354 15.3613C36.9554 15.3462 36.9706 15.3359 36.9814 15.3299C36.9917 15.324 37.0096 15.3207 37.0339 15.3207C37.054 15.3207 37.0724 15.3256 37.0887 15.3353C37.1049 15.3445 37.1179 15.3592 37.1277 15.3787C37.1374 15.3982 37.1423 15.4215 37.1423 15.4491C37.1423 15.4745 37.1374 15.4973 37.1287 15.5173C37.1195 15.5374 37.1071 15.5531 37.0903 15.5645C37.0735 15.5758 37.0545 15.5813 37.0323 15.5813C37.0085 15.5813 36.9868 15.5742 36.9673 15.5601C36.9478 15.546 36.9321 15.5265 36.9207 15.5005C36.9088 15.4729 36.8915 15.4594 36.8671 15.4594C36.8536 15.4594 36.8417 15.4643 36.8324 15.474C36.8232 15.4843 36.8184 15.4946 36.8184 15.506C36.8184 15.5244 36.8249 15.5455 36.8384 15.5699C36.8514 15.5948 36.8742 15.6159 36.9061 15.6349C36.9381 15.6538 36.9792 15.6636 37.0307 15.6636C37.0762 15.6636 37.1168 15.6533 37.152 15.6333C37.1867 15.6132 37.2138 15.5861 37.2322 15.5525C37.2506 15.5184 37.2598 15.4805 37.2598 15.4388Z" fill="#802947"/>
<path d="M32.6636 15.0293H32.3781C32.3554 15.0293 32.3381 15.0325 32.3256 15.038C32.3131 15.0439 32.3066 15.0564 32.3066 15.0764C32.3066 15.0948 32.3126 15.1084 32.3245 15.117C32.3364 15.1257 32.3543 15.13 32.3781 15.13H32.6078C32.5715 15.1761 32.5406 15.2221 32.5141 15.2682C32.4881 15.3142 32.4664 15.3592 32.4491 15.403C32.4318 15.4469 32.4188 15.4848 32.4112 15.5163C32.4036 15.5477 32.3998 15.5726 32.3998 15.591C32.3998 15.6143 32.4047 15.6327 32.4155 15.6446C32.4258 15.6565 32.4399 15.663 32.4572 15.663C32.4756 15.663 32.4903 15.6571 32.5016 15.6457C32.5125 15.6343 32.5206 15.6143 32.5271 15.585C32.5293 15.5726 32.5325 15.5547 32.5358 15.5309C32.5396 15.507 32.5428 15.4875 32.5455 15.4729C32.5482 15.4578 32.5531 15.4393 32.5601 15.4166C32.5764 15.3657 32.5943 15.3223 32.6138 15.2866C32.6333 15.2514 32.6522 15.2216 32.6706 15.1978C32.6891 15.1739 32.7058 15.1523 32.7199 15.1322C32.7346 15.1127 32.7416 15.097 32.7416 15.0845C32.7416 15.065 32.7356 15.051 32.7232 15.0423C32.7113 15.0336 32.6912 15.0293 32.6636 15.0293Z" fill="#802947"/>
<path d="M39.3742 11.8051C39.3575 11.8138 39.3407 11.8181 39.3228 11.8181C39.2919 11.8181 39.2681 11.8089 39.2507 11.7894C39.234 11.7699 39.2182 11.7407 39.2031 11.7006C39.2009 11.6946 39.196 11.6887 39.1885 11.6838C39.1809 11.6795 39.1733 11.6767 39.1652 11.6767C39.1495 11.6767 39.1359 11.6822 39.1251 11.6919C39.1148 11.7022 39.1094 11.7157 39.1094 11.732C39.1094 11.745 39.1137 11.7612 39.1229 11.7813C39.1316 11.8008 39.1451 11.8197 39.1625 11.8382C39.1803 11.8566 39.2025 11.8723 39.2296 11.8842C39.2567 11.8967 39.2876 11.9026 39.3217 11.9026C39.3558 11.9026 39.3862 11.8977 39.4143 11.8864C39.442 11.8761 39.4663 11.8609 39.4864 11.842C39.507 11.823 39.5221 11.8013 39.533 11.777C39.5432 11.7531 39.5481 11.7277 39.5481 11.7017C39.5481 11.68 39.5443 11.66 39.5367 11.641C39.5292 11.622 39.5178 11.6052 39.5021 11.5901C39.4869 11.5744 39.468 11.5608 39.4457 11.5489C39.469 11.5294 39.4869 11.5094 39.4994 11.4888C39.5113 11.4682 39.5178 11.4438 39.5178 11.4151C39.5178 11.3935 39.5135 11.3734 39.5048 11.3545C39.4967 11.3355 39.4837 11.3192 39.4669 11.3046C39.4501 11.2905 39.43 11.2797 39.4073 11.2721C39.384 11.2645 39.3591 11.2607 39.3315 11.2607C39.2995 11.2607 39.2708 11.2651 39.2453 11.2737C39.2193 11.283 39.1977 11.2949 39.1803 11.31C39.1635 11.3247 39.15 11.3404 39.1413 11.3566C39.1321 11.3729 39.1278 11.3886 39.1278 11.4037C39.1278 11.4189 39.1327 11.4314 39.1419 11.4406C39.1516 11.4498 39.1619 11.4547 39.1733 11.4547C39.183 11.4547 39.1917 11.453 39.1993 11.4498C39.2069 11.446 39.2118 11.4417 39.215 11.4352C39.2193 11.4243 39.2248 11.4124 39.2307 11.4C39.2367 11.3875 39.2426 11.3767 39.2497 11.3691C39.2562 11.361 39.2648 11.3545 39.2762 11.3496C39.2876 11.3447 39.3017 11.3425 39.319 11.3425C39.345 11.3425 39.3656 11.3501 39.3808 11.3664C39.3959 11.3821 39.4035 11.401 39.4035 11.4227C39.4035 11.452 39.3938 11.4742 39.3748 11.4893C39.3558 11.505 39.3331 11.5126 39.3071 11.5126H39.2892C39.2686 11.5126 39.2535 11.517 39.2437 11.5251C39.2334 11.5337 39.228 11.5446 39.228 11.5587C39.228 11.5722 39.2323 11.5836 39.241 11.5912C39.2497 11.5993 39.2616 11.6031 39.2773 11.6031C39.2805 11.6031 39.2887 11.6025 39.3006 11.6015C39.3125 11.6004 39.3212 11.5998 39.3271 11.5998C39.3596 11.5998 39.3851 11.609 39.4035 11.628C39.4219 11.647 39.4306 11.6735 39.4306 11.7071C39.4306 11.7293 39.4257 11.7493 39.4149 11.7667C39.404 11.7835 39.3905 11.7965 39.3742 11.8051Z" fill="#802947"/>
<path d="M30.3664 11.5424C30.3566 11.5603 30.3431 11.5738 30.3274 11.583C30.3111 11.5922 30.2938 11.5971 30.2765 11.5971C30.2472 11.5971 30.2239 11.5857 30.205 11.563C30.186 11.5408 30.1763 11.5105 30.1763 11.4725C30.1763 11.4341 30.186 11.4032 30.205 11.3799C30.2239 11.3566 30.2467 11.3452 30.2738 11.3452C30.2895 11.3452 30.3041 11.3485 30.3171 11.355C30.3306 11.362 30.342 11.3718 30.3512 11.3837C30.361 11.3956 30.3685 11.4097 30.374 11.4265C30.3788 11.4427 30.3815 11.4606 30.3815 11.4801C30.3815 11.504 30.3767 11.5251 30.3664 11.5424ZM30.3176 11.8084C30.303 11.817 30.2873 11.8208 30.271 11.8208C30.2526 11.8208 30.2364 11.816 30.2218 11.8051C30.2071 11.7948 30.1968 11.7813 30.1903 11.764C30.1855 11.7499 30.1779 11.7396 30.1676 11.7325C30.1578 11.7255 30.1465 11.7217 30.134 11.7217C30.1205 11.7217 30.1091 11.7266 30.0999 11.7358C30.0912 11.7455 30.0869 11.7558 30.0869 11.7683C30.0869 11.7878 30.0939 11.8078 30.108 11.829C30.1226 11.8501 30.1432 11.8674 30.1708 11.8815C30.1985 11.8956 30.2304 11.9026 30.2678 11.9026C30.3052 11.9026 30.3393 11.8956 30.3691 11.882C30.3989 11.868 30.4243 11.8468 30.4455 11.8187C30.4666 11.79 30.4828 11.7553 30.4942 11.713C30.505 11.6713 30.511 11.6226 30.511 11.5679C30.511 11.5186 30.5056 11.4747 30.4948 11.4357C30.4845 11.3967 30.4693 11.3647 30.4498 11.3393C30.4297 11.3138 30.4054 11.2943 30.3767 11.2808C30.3474 11.2672 30.3149 11.2607 30.2781 11.2607C30.2461 11.2607 30.2169 11.2656 30.1903 11.277C30.1638 11.2878 30.141 11.303 30.1221 11.3225C30.1026 11.342 30.088 11.3647 30.0777 11.3913C30.0674 11.4173 30.0625 11.4455 30.0625 11.4747C30.0625 11.5023 30.0668 11.5289 30.076 11.5538C30.0853 11.5787 30.0983 11.6004 30.115 11.6193C30.1324 11.6377 30.1524 11.6524 30.1757 11.6632C30.199 11.6735 30.2245 11.6784 30.251 11.6784C30.2792 11.6784 30.3052 11.673 30.3285 11.6616C30.3517 11.6502 30.3729 11.6334 30.3918 11.6112C30.3875 11.6887 30.375 11.7428 30.3545 11.7732C30.3447 11.7883 30.3323 11.8002 30.3176 11.8084Z" fill="#802947"/>
<path d="M30.9755 13.9195C30.995 13.9 31.0193 13.8903 31.0486 13.8903C31.0692 13.8903 31.0876 13.8946 31.1044 13.9033C31.1212 13.9125 31.1336 13.925 31.1428 13.9418C31.152 13.958 31.1564 13.9775 31.1564 13.9997C31.1564 14.0219 31.152 14.042 31.1428 14.0593C31.1336 14.0761 31.1212 14.0896 31.1055 14.0988C31.0892 14.1086 31.0713 14.1129 31.0513 14.1129C31.0313 14.1129 31.0134 14.1086 30.9977 14.0994C30.9814 14.0902 30.969 14.0766 30.9598 14.0598C30.95 14.043 30.9457 14.023 30.9457 14.0008C30.9457 13.9661 30.9554 13.939 30.9755 13.9195ZM30.9841 13.659C31.0009 13.6422 31.0226 13.6341 31.0491 13.6341C31.067 13.6341 31.0827 13.6379 31.0968 13.6455C31.1103 13.653 31.1212 13.6639 31.1288 13.6769C31.1363 13.6904 31.1401 13.7056 31.1401 13.7224C31.1401 13.7354 31.1374 13.7468 31.1336 13.757C31.1293 13.7673 31.1233 13.7765 31.1152 13.7841C31.1071 13.7917 31.0979 13.7977 31.087 13.802C31.0757 13.8063 31.0637 13.8085 31.0502 13.8085C31.0237 13.8085 31.002 13.8004 30.9852 13.7841C30.9684 13.7679 30.9598 13.7478 30.9598 13.7235C30.9598 13.6969 30.9679 13.6758 30.9841 13.659ZM30.8281 14.004C30.8281 14.0403 30.8368 14.0728 30.8536 14.1015C30.8709 14.1308 30.8964 14.1535 30.93 14.1703C30.9641 14.1866 31.0047 14.1953 31.0518 14.1953C31.0979 14.1953 31.1374 14.1866 31.171 14.1703C31.2051 14.1535 31.2306 14.1308 31.2479 14.1015C31.2653 14.0718 31.2739 14.0393 31.2739 14.0035C31.2739 13.9791 31.2701 13.9564 31.262 13.9363C31.2539 13.9163 31.2414 13.8984 31.2257 13.8833C31.2095 13.8675 31.1894 13.8556 31.165 13.8459C31.1937 13.8318 31.2154 13.8139 31.2295 13.7917C31.2441 13.77 31.2512 13.7451 31.2512 13.717C31.2512 13.6948 31.2474 13.6742 31.2387 13.6547C31.2306 13.6352 31.2181 13.6173 31.2008 13.6016C31.1835 13.5864 31.1623 13.574 31.1363 13.5653C31.1109 13.5561 31.0811 13.5518 31.047 13.5518C31.0063 13.5518 30.9711 13.5593 30.9413 13.5745C30.911 13.5897 30.8882 13.6103 30.8725 13.6352C30.8568 13.6606 30.8493 13.6877 30.8493 13.7159C30.8493 13.7755 30.8785 13.8183 30.937 13.8459C30.8644 13.8746 30.8281 13.9277 30.8281 14.004Z" fill="#802947"/>
<path d="M30.9468 9.59535C30.9571 9.60673 30.9712 9.61268 30.9885 9.61268C31.0281 9.61268 31.0476 9.58398 31.0476 9.52656V9.03581C31.0476 9.01523 31.0427 8.99898 31.0335 8.98706C31.0243 8.97568 31.0124 8.96973 30.9972 8.96973C30.9837 8.96973 30.9744 8.97243 30.9696 8.97731C30.9647 8.98219 30.9544 8.99627 30.9382 9.01848C30.9224 9.04068 30.904 9.06073 30.8834 9.07914C30.8629 9.09702 30.8347 9.11435 30.8006 9.1306C30.7773 9.14143 30.761 9.1501 30.7518 9.15714C30.7426 9.16364 30.7383 9.17448 30.7383 9.1891C30.7383 9.20156 30.7426 9.21293 30.7524 9.22268C30.7616 9.23189 30.7719 9.23677 30.7838 9.23677C30.8092 9.23677 30.858 9.2086 30.9306 9.15335V9.54335C30.9306 9.5661 30.936 9.58343 30.9468 9.59535Z" fill="#802947"/>
<path d="M31.3864 9.11283C31.401 9.07492 31.427 9.05596 31.4649 9.05596C31.4909 9.05596 31.5121 9.06463 31.5267 9.08142C31.5413 9.09821 31.5521 9.12367 31.5581 9.15671C31.5646 9.19029 31.5678 9.23308 31.5678 9.28508C31.5678 9.34033 31.5646 9.38529 31.5586 9.41887C31.5527 9.453 31.5424 9.47954 31.5272 9.49742C31.5126 9.51583 31.492 9.52504 31.466 9.52504C31.44 9.52504 31.42 9.51637 31.4053 9.4985C31.3902 9.48117 31.3799 9.45517 31.3734 9.42104C31.3669 9.38637 31.3642 9.3425 31.3642 9.28887C31.3642 9.20979 31.3712 9.15075 31.3864 9.11283ZM31.3496 9.57542C31.3842 9.59979 31.4232 9.61225 31.4666 9.61225C31.5045 9.61225 31.5386 9.60304 31.5695 9.58462C31.6003 9.56621 31.6258 9.54021 31.6448 9.50662C31.6605 9.479 31.6708 9.44867 31.6767 9.41454C31.6821 9.38096 31.6854 9.34087 31.6854 9.29375C31.6854 9.20763 31.6746 9.141 31.6529 9.09387C31.6399 9.06625 31.6247 9.0435 31.6068 9.02508C31.5884 9.00667 31.5673 8.99312 31.5435 8.98337C31.5196 8.97363 31.4926 8.96875 31.4633 8.96875C31.4183 8.96875 31.3804 8.97958 31.3479 9.00125C31.316 9.02292 31.2911 9.05433 31.2743 9.0955C31.2645 9.12042 31.2575 9.15021 31.2531 9.18487C31.2483 9.21954 31.2461 9.258 31.2461 9.30133C31.2461 9.33437 31.2483 9.36579 31.2521 9.3945C31.2564 9.42321 31.2629 9.44921 31.2721 9.47304C31.2894 9.51637 31.3154 9.5505 31.3496 9.57542Z" fill="#802947"/>
<path d="M37.1146 7.555C37.1098 7.55987 37.0989 7.57342 37.0832 7.59617C37.0675 7.61837 37.0486 7.63842 37.028 7.65629C37.0074 7.67471 36.9798 7.6915 36.9451 7.70775C36.9218 7.71858 36.9061 7.72779 36.8969 7.73429C36.8877 7.74133 36.8828 7.75217 36.8828 7.76679C36.8828 7.77925 36.8877 7.79008 36.8969 7.79983C36.9061 7.80958 36.9169 7.81446 36.9289 7.81446C36.9538 7.81446 37.0031 7.78629 37.0756 7.7305V8.12104C37.0756 8.14379 37.0805 8.16112 37.0914 8.17304C37.1022 8.18442 37.1157 8.19037 37.1336 8.19037C37.1726 8.19037 37.1921 8.16167 37.1921 8.10425V7.61296C37.1921 7.59237 37.1878 7.57612 37.1786 7.56475C37.1694 7.55283 37.1569 7.54688 37.1417 7.54688C37.1287 7.54688 37.1195 7.54958 37.1146 7.555Z" fill="#802947"/>
<path d="M32.3154 8.17304C32.3263 8.18442 32.3403 8.19037 32.3577 8.19037C32.3967 8.19037 32.4162 8.16167 32.4162 8.10425V7.61296C32.4162 7.59237 32.4118 7.57612 32.4026 7.56475C32.3934 7.55283 32.381 7.54688 32.3663 7.54688C32.3528 7.54688 32.3436 7.54958 32.3387 7.555C32.3338 7.55987 32.3235 7.57342 32.3073 7.59617C32.2916 7.61837 32.2732 7.63842 32.252 7.65629C32.2315 7.67471 32.2038 7.6915 32.1692 7.70775C32.1464 7.71858 32.1302 7.72779 32.121 7.73429C32.1118 7.74133 32.1074 7.75217 32.1074 7.76679C32.1074 7.77925 32.1118 7.79008 32.121 7.79983C32.1302 7.80958 32.141 7.81446 32.1529 7.81446C32.1778 7.81446 32.2271 7.78629 32.2997 7.7305V8.12104C32.2997 8.14379 32.3051 8.16112 32.3154 8.17304Z" fill="#802947"/>
<path d="M32.8898 7.54688C32.8762 7.54688 32.867 7.54958 32.8622 7.555C32.8578 7.55987 32.847 7.57342 32.8307 7.59617C32.815 7.61837 32.7966 7.63842 32.776 7.65629C32.7554 7.67471 32.7273 7.6915 32.6932 7.70775C32.6699 7.71858 32.6536 7.72779 32.6444 7.73429C32.6352 7.74133 32.6309 7.75217 32.6309 7.76679C32.6309 7.77925 32.6357 7.79008 32.6449 7.79983C32.6542 7.80958 32.6644 7.81446 32.6769 7.81446C32.7018 7.81446 32.7506 7.78629 32.8232 7.7305V8.12104C32.8232 8.14379 32.8286 8.16112 32.8389 8.17304C32.8497 8.18442 32.8638 8.19037 32.8811 8.19037C32.9201 8.19037 32.9402 8.16167 32.9402 8.10425V7.61296C32.9402 7.59237 32.9353 7.57612 32.9261 7.56475C32.9169 7.55283 32.9049 7.54688 32.8898 7.54688Z" fill="#802947"/>
<path d="M34.8959 16.1609C34.8769 16.1848 34.8531 16.1962 34.8244 16.1962C34.7941 16.1962 34.7691 16.1837 34.7491 16.1577C34.7291 16.1322 34.7188 16.0997 34.7188 16.0613C34.7188 16.0374 34.7236 16.0163 34.7339 15.9984C34.7437 15.9806 34.7567 15.967 34.7729 15.9573C34.7886 15.9481 34.806 15.9432 34.8233 15.9432C34.8423 15.9432 34.8591 15.9486 34.8742 15.9584C34.8899 15.9681 34.9018 15.9822 34.9111 16.0012C34.9197 16.0196 34.9241 16.0423 34.9241 16.0683C34.9241 16.1062 34.9148 16.1377 34.8959 16.1609ZM34.9842 15.9204C34.9674 15.902 34.9468 15.8874 34.9241 15.8771C34.9008 15.8668 34.8758 15.8619 34.8488 15.8619C34.8206 15.8619 34.7951 15.8674 34.7718 15.8787C34.7491 15.8896 34.728 15.9069 34.7085 15.9302C34.7123 15.8522 34.7247 15.7986 34.7453 15.7682C34.7556 15.7531 34.7686 15.7417 34.7832 15.7325C34.7984 15.7238 34.8136 15.7195 34.8287 15.7195C34.8477 15.7195 34.8639 15.7249 34.8786 15.7352C34.8926 15.7455 34.9029 15.7596 34.91 15.7764C34.9143 15.7899 34.9219 15.8007 34.9322 15.8083C34.9425 15.8159 34.9538 15.8197 34.9658 15.8197C34.9798 15.8197 34.9907 15.8148 34.9999 15.8051C35.0086 15.7953 35.0129 15.785 35.0129 15.7731C35.0129 15.7536 35.0058 15.7336 34.9918 15.7124C34.9777 15.6913 34.9566 15.6734 34.9289 15.6594C34.9008 15.6447 34.8688 15.6377 34.832 15.6377C34.7941 15.6377 34.7599 15.6447 34.7307 15.6594C34.7009 15.6734 34.6754 15.6946 34.6543 15.7227C34.6337 15.7504 34.6175 15.7861 34.6066 15.8284C34.5953 15.8712 34.5898 15.9194 34.5898 15.9735C34.5898 16.0396 34.5991 16.0959 34.6175 16.1414C34.6359 16.1875 34.6624 16.2222 34.6976 16.2454C34.7323 16.2693 34.7735 16.2807 34.8217 16.2807C34.8634 16.2807 34.9008 16.2714 34.9338 16.253C34.9668 16.2346 34.9928 16.2092 35.0113 16.1761C35.0297 16.1436 35.0389 16.1068 35.0389 16.0667C35.0389 16.0385 35.034 16.012 35.0248 15.9865C35.0151 15.9611 35.0021 15.9394 34.9842 15.9204Z" fill="#802947"/>
<path d="M34.6452 7.44019V6.9489C34.6452 6.92831 34.6404 6.9126 34.6311 6.90069C34.6219 6.88877 34.61 6.88281 34.5949 6.88281C34.5813 6.88281 34.5721 6.88552 34.5672 6.89094C34.5624 6.89581 34.5521 6.90935 34.5358 6.9321C34.5201 6.95431 34.5017 6.97435 34.4811 6.99223C34.4605 7.01065 34.4324 7.02744 34.3982 7.04369C34.3749 7.05452 34.3587 7.06373 34.3495 7.07023C34.3403 7.07727 34.3359 7.0881 34.3359 7.10273C34.3359 7.11519 34.3403 7.12656 34.35 7.13577C34.3592 7.14552 34.3701 7.1504 34.3814 7.1504C34.4069 7.1504 34.4556 7.12223 34.5282 7.06644V7.45698C34.5282 7.47973 34.5336 7.49706 34.5439 7.50898C34.5548 7.52035 34.5689 7.52631 34.5862 7.52631C34.6257 7.52631 34.6452 7.4976 34.6452 7.44019Z" fill="#802947"/>
<path d="M35.2226 7.41419H34.9989C35.0059 7.40335 35.013 7.39415 35.02 7.38656C35.0357 7.36706 35.0655 7.33998 35.1083 7.30477C35.1516 7.26956 35.182 7.24356 35.2004 7.22731C35.2188 7.21106 35.2367 7.18831 35.254 7.15906C35.2719 7.12981 35.2806 7.09785 35.2806 7.0621C35.2806 7.0399 35.2762 7.01769 35.2681 6.99656C35.2594 6.97598 35.2475 6.95756 35.2324 6.94131C35.2172 6.9256 35.1999 6.9126 35.1798 6.90394C35.1489 6.88985 35.1116 6.88281 35.0677 6.88281C35.0314 6.88281 35 6.88823 34.9729 6.89906C34.9458 6.9099 34.9236 6.92398 34.9063 6.94131C34.8884 6.95865 34.8754 6.97815 34.8662 6.99981C34.8575 7.02094 34.8532 7.04206 34.8532 7.06156C34.8532 7.07781 34.8575 7.09081 34.8673 7.10002C34.8765 7.10923 34.8884 7.1141 34.903 7.1141C34.9193 7.1141 34.9317 7.10869 34.9399 7.09894C34.9485 7.08865 34.9561 7.07348 34.9626 7.05452C34.9691 7.03556 34.974 7.02365 34.9767 7.01931C34.9984 6.98681 35.0281 6.97002 35.065 6.97002C35.0829 6.97002 35.0991 6.97381 35.1143 6.98194C35.1294 6.99006 35.1414 7.00144 35.15 7.01606C35.1587 7.03015 35.163 7.0464 35.163 7.06481C35.163 7.0816 35.1592 7.09894 35.1511 7.11627C35.143 7.13415 35.1311 7.15094 35.1154 7.16827C35.0996 7.18452 35.0801 7.20131 35.0569 7.2181C35.0439 7.22677 35.0216 7.24519 34.9913 7.27335C34.9604 7.30152 34.9263 7.33565 34.8884 7.37519C34.8792 7.3844 34.8705 7.39794 34.8629 7.41473C34.8554 7.43206 34.8516 7.4456 34.8516 7.4559C34.8516 7.47215 34.857 7.48569 34.8694 7.4976C34.8814 7.50952 34.8981 7.51548 34.9193 7.51548H35.2351C35.254 7.51548 35.2681 7.5106 35.2773 7.50085C35.2865 7.4911 35.2914 7.47973 35.2914 7.4651C35.2914 7.4494 35.2854 7.43748 35.2735 7.42827C35.2621 7.41906 35.2448 7.41419 35.2226 7.41419Z" fill="#802947"/>
<path d="M34.2009 5.82527C34.1852 5.82689 34.1743 5.84098 34.1759 5.85614L34.2372 6.43844C34.2388 6.45252 34.2507 6.46335 34.2648 6.46335C34.2659 6.46335 34.2669 6.46335 34.268 6.46335C34.2832 6.46173 34.294 6.44765 34.2924 6.43248L34.2312 5.85019C34.2296 5.83502 34.216 5.82419 34.2009 5.82527Z" fill="#802947"/>
<path d="M35.3434 16.6994C35.3277 16.701 35.3169 16.7145 35.3185 16.7302L35.3797 17.3125C35.3814 17.3266 35.3933 17.3375 35.4074 17.3375C35.4084 17.3375 35.4095 17.3375 35.4101 17.3369C35.4252 17.3353 35.4366 17.3217 35.435 17.3066L35.3738 16.7243C35.3721 16.7091 35.3586 16.6977 35.3434 16.6994Z" fill="#802947"/>
<path d="M33.6349 5.94206C33.6316 5.92689 33.617 5.91768 33.6019 5.92039C33.5867 5.92364 33.5775 5.93881 33.5807 5.95398L33.7021 6.52652C33.7048 6.53952 33.7167 6.54818 33.7291 6.54818C33.7313 6.54818 33.7335 6.54818 33.7351 6.54764C33.7503 6.54439 33.76 6.52977 33.7568 6.5146L33.6349 5.94206Z" fill="#802947"/>
<path d="M35.9088 16.6364C35.9056 16.6218 35.891 16.612 35.8758 16.6147C35.8606 16.6185 35.8509 16.6331 35.8541 16.6483L35.976 17.2208C35.9787 17.2338 35.9901 17.243 36.0031 17.243C36.0053 17.243 36.0069 17.2425 36.0091 17.242C36.0242 17.2393 36.0334 17.2241 36.0307 17.2089L35.9088 16.6364Z" fill="#802947"/>
<path d="M33.0525 6.09546C33.0477 6.08084 33.032 6.07271 33.0173 6.07759C33.0027 6.08246 32.9946 6.09817 32.9995 6.1128L33.1804 6.66963C33.1842 6.68101 33.195 6.68859 33.2064 6.68859C33.2096 6.68859 33.2123 6.68805 33.2156 6.68751C33.2302 6.68263 33.2378 6.66692 33.2329 6.6523L33.0525 6.09546Z" fill="#802947"/>
<path d="M36.4312 16.4937C36.4264 16.4791 36.4107 16.4715 36.396 16.4758C36.3814 16.4807 36.3738 16.4964 36.3782 16.511L36.5591 17.0679C36.5634 17.0798 36.5742 17.0868 36.5856 17.0868C36.5889 17.0868 36.5916 17.0868 36.5943 17.0857C36.6089 17.0809 36.617 17.0652 36.6122 17.0505L36.4312 16.4937Z" fill="#802947"/>
<path d="M32.6759 6.86598C32.6807 6.87627 32.691 6.88223 32.7013 6.88223C32.7051 6.88223 32.7089 6.88169 32.7127 6.88006C32.7268 6.87356 32.7333 6.85731 32.7268 6.84323L32.489 6.30861C32.4825 6.29452 32.4662 6.28802 32.4522 6.29452C32.4381 6.30048 32.4316 6.31727 32.4381 6.33136L32.6759 6.86598Z" fill="#802947"/>
<path d="M36.9343 16.2969C36.9278 16.2828 36.9116 16.2763 36.8975 16.2828C36.8834 16.2893 36.8769 16.3056 36.8834 16.3196L37.1212 16.8543C37.1261 16.8646 37.1363 16.8711 37.1466 16.8711C37.1504 16.8711 37.1548 16.87 37.158 16.8683C37.1721 16.8624 37.1786 16.8456 37.1721 16.8315L36.9343 16.2969Z" fill="#802947"/>
<path d="M31.443 6.90596C31.4338 6.8935 31.4165 6.89079 31.404 6.9C31.3915 6.90867 31.3888 6.926 31.398 6.939L31.742 7.41242C31.7474 7.42 31.7561 7.42379 31.7648 7.42379C31.7702 7.42379 31.7761 7.42217 31.781 7.41837C31.7935 7.40971 31.7962 7.39183 31.787 7.37937L31.443 6.90596Z" fill="#802947"/>
<path d="M37.8689 15.7507C37.8597 15.7382 37.8424 15.7355 37.8299 15.7447C37.8174 15.7534 37.8147 15.7713 37.8234 15.7832L38.1679 16.2571C38.1733 16.2647 38.182 16.2685 38.1901 16.2685C38.1961 16.2685 38.202 16.2669 38.2069 16.2631C38.2194 16.2544 38.2221 16.2366 38.2129 16.2241L37.8689 15.7507Z" fill="#802947"/>
<path d="M31.3231 7.75502C31.3285 7.76098 31.3361 7.76423 31.3437 7.76423C31.3502 7.76423 31.3567 7.76207 31.3621 7.75719C31.3735 7.7469 31.3745 7.72902 31.3642 7.71765L30.9726 7.28269C30.9623 7.27132 30.9445 7.27023 30.9331 7.28052C30.9217 7.29082 30.9206 7.30869 30.9309 7.32007L31.3231 7.75502Z" fill="#802947"/>
<path d="M38.2885 15.4079C38.2782 15.396 38.2609 15.3954 38.2495 15.4057C38.2381 15.416 38.237 15.4339 38.2473 15.4453L38.6389 15.8802C38.6444 15.8862 38.6519 15.8894 38.6595 15.8894C38.6666 15.8894 38.6731 15.8867 38.6785 15.8824C38.6899 15.8715 38.6904 15.8542 38.6801 15.8428L38.2885 15.4079Z" fill="#802947"/>
<path d="M30.9403 8.14062C30.9457 8.14549 30.9522 8.14766 30.9593 8.14766C30.9668 8.14766 30.9744 8.14495 30.9798 8.13845C30.9901 8.12707 30.9891 8.1092 30.9777 8.09945L30.5427 7.70728C30.5313 7.69699 30.5135 7.69807 30.5032 7.70945C30.4929 7.72082 30.494 7.7387 30.5053 7.74899L30.9403 8.14062Z" fill="#802947"/>
<path d="M38.6697 15.0229C38.6583 15.0126 38.6404 15.0132 38.6301 15.0251C38.6198 15.0364 38.6209 15.0538 38.6323 15.0641L39.0673 15.4562C39.0727 15.4611 39.0792 15.4633 39.0857 15.4633C39.0933 15.4633 39.1008 15.46 39.1068 15.4541C39.1171 15.4427 39.116 15.4248 39.1046 15.4145L38.6697 15.0229Z" fill="#802947"/>
<path d="M30.602 8.56235C30.6069 8.56615 30.6129 8.56777 30.6183 8.56777C30.6269 8.56777 30.6356 8.56398 30.641 8.5564C30.6502 8.54394 30.6475 8.5266 30.6351 8.5174L30.1617 8.17344C30.1487 8.16423 30.1313 8.16694 30.1227 8.1794C30.1134 8.19185 30.1162 8.20919 30.1286 8.2184L30.602 8.56235Z" fill="#802947"/>
<path d="M39.0074 14.5998C38.9949 14.5911 38.977 14.5938 38.9684 14.6063C38.9592 14.6187 38.9619 14.6361 38.9743 14.6453L39.4483 14.9892C39.4532 14.993 39.4586 14.9946 39.4645 14.9946C39.4732 14.9946 39.4813 14.9903 39.4867 14.9833C39.4959 14.9708 39.4932 14.9529 39.4808 14.9443L39.0074 14.5998Z" fill="#802947"/>
<path d="M29.5322 9.26438L30.0669 9.50218C30.0707 9.5038 30.0744 9.50488 30.0782 9.50488C30.0891 9.50488 30.0988 9.49838 30.1037 9.48809C30.1102 9.47401 30.1037 9.45776 30.0896 9.45126L29.555 9.21347C29.5409 9.20697 29.5241 9.21347 29.5182 9.22755C29.5117 9.24163 29.5182 9.25788 29.5322 9.26438Z" fill="#802947"/>
<path d="M40.0779 13.8985L39.5433 13.6607C39.5292 13.6542 39.5129 13.6607 39.5064 13.6748C39.4999 13.6889 39.5064 13.7051 39.5205 13.7116L40.0551 13.9494C40.0589 13.9511 40.0627 13.9521 40.0665 13.9521C40.0774 13.9521 40.0876 13.9456 40.092 13.9354C40.0985 13.9213 40.092 13.905 40.0779 13.8985Z" fill="#802947"/>
<path d="M29.3181 9.82837L29.875 10.0098C29.8777 10.0104 29.8809 10.0109 29.8836 10.0109C29.895 10.0109 29.9064 10.0033 29.9102 9.99196C29.9145 9.97733 29.9069 9.96108 29.8923 9.95675L29.3355 9.77583C29.3208 9.77096 29.3051 9.77908 29.3002 9.79371C29.2954 9.80833 29.3035 9.82404 29.3181 9.82837Z" fill="#802947"/>
<path d="M40.2907 13.3345L39.7339 13.1536C39.7193 13.1492 39.7036 13.1568 39.6987 13.1714C39.6938 13.1861 39.7019 13.2018 39.7166 13.2066L40.2734 13.3876C40.2761 13.3886 40.2793 13.3892 40.2821 13.3892C40.294 13.3892 40.3048 13.3816 40.3086 13.3697C40.3135 13.3551 40.3053 13.3393 40.2907 13.3345Z" fill="#802947"/>
<path d="M29.1647 10.4114L29.7373 10.5333C29.7394 10.5333 29.741 10.5338 29.7432 10.5338C29.7562 10.5338 29.7676 10.5246 29.7703 10.5116C29.7735 10.4965 29.7638 10.4818 29.7492 10.4786L29.1766 10.3573C29.1615 10.3535 29.1468 10.3632 29.143 10.3784C29.1403 10.3936 29.1495 10.4082 29.1647 10.4114Z" fill="#802947"/>
<path d="M40.4441 12.7524L39.8716 12.6305C39.8564 12.6273 39.8418 12.637 39.8385 12.6522C39.8353 12.6673 39.845 12.682 39.8596 12.6852L40.4327 12.8065C40.4344 12.8071 40.4365 12.8076 40.4381 12.8076C40.4511 12.8076 40.4625 12.7984 40.4658 12.7854C40.4685 12.7703 40.4593 12.7556 40.4441 12.7524Z" fill="#802947"/>
<path d="M29.0738 11.0076L29.6561 11.0688C29.6572 11.0688 29.6583 11.0693 29.6594 11.0693C29.6734 11.0693 29.6854 11.0585 29.687 11.0439C29.6886 11.0287 29.6772 11.0151 29.6621 11.0135L29.0798 10.9523C29.0646 10.9507 29.0511 10.9615 29.0489 10.9772C29.0478 10.9924 29.0587 11.0059 29.0738 11.0076Z" fill="#802947"/>
<path d="M40.5352 12.1561L39.9529 12.0949C39.9377 12.0933 39.9237 12.1041 39.922 12.1198C39.9204 12.135 39.9318 12.1485 39.9469 12.1501L40.5292 12.2113C40.5303 12.2113 40.5314 12.2113 40.5319 12.2113C40.546 12.2113 40.5585 12.2011 40.5596 12.1864C40.5612 12.1713 40.5504 12.1577 40.5352 12.1561Z" fill="#802947"/>
<path d="M29.687 12.1198C29.6854 12.1041 29.6713 12.0933 29.6561 12.0949L29.0738 12.1561C29.0587 12.1577 29.0478 12.1713 29.0489 12.1864C29.0505 12.2011 29.063 12.2113 29.0771 12.2113C29.0782 12.2113 29.0787 12.2113 29.0798 12.2113L29.6621 12.1501C29.6772 12.1485 29.6886 12.135 29.687 12.1198Z" fill="#802947"/>
<path d="M39.922 11.0439C39.9237 11.0585 39.9356 11.0693 39.9497 11.0693C39.9507 11.0693 39.9518 11.0688 39.9529 11.0688L40.5352 11.0076C40.5504 11.0059 40.5612 10.9924 40.5596 10.9772C40.5585 10.9615 40.5444 10.9507 40.5292 10.9523L39.9469 11.0135C39.9318 11.0151 39.9204 11.0287 39.922 11.0439Z" fill="#802947"/>
<path d="M29.7703 12.6522C29.7676 12.637 29.7524 12.6273 29.7373 12.6305L29.1647 12.7524C29.1495 12.7556 29.1403 12.7703 29.143 12.7854C29.1463 12.7984 29.1577 12.8076 29.1707 12.8076C29.1723 12.8076 29.1745 12.8071 29.1766 12.8065L29.7492 12.6852C29.7638 12.682 29.7735 12.6673 29.7703 12.6522Z" fill="#802947"/>
<path d="M39.8385 10.5116C39.8412 10.5246 39.8526 10.5338 39.8656 10.5338C39.8672 10.5338 39.8694 10.5333 39.8716 10.5333L40.4441 10.4114C40.4593 10.4082 40.4685 10.3936 40.4658 10.3784C40.4625 10.3632 40.4474 10.3535 40.4327 10.3573L39.8596 10.4786C39.845 10.4818 39.8353 10.4965 39.8385 10.5116Z" fill="#802947"/>
<path d="M29.9102 13.1714C29.9053 13.1568 29.8896 13.1492 29.875 13.1536L29.3181 13.3345C29.3035 13.3393 29.2954 13.3551 29.3002 13.3697C29.304 13.3816 29.3149 13.3892 29.3268 13.3892C29.3295 13.3892 29.3322 13.3886 29.3355 13.3876L29.8923 13.2066C29.9069 13.2018 29.9145 13.1861 29.9102 13.1714Z" fill="#802947"/>
<path d="M39.6987 9.99196C39.7025 10.0033 39.7133 10.0109 39.7252 10.0109C39.7279 10.0109 39.7312 10.0104 39.7339 10.0098L40.2907 9.82837C40.3053 9.82404 40.3135 9.80833 40.3086 9.79371C40.3037 9.77908 40.288 9.77096 40.2734 9.77583L39.7166 9.95675C39.7019 9.96108 39.6938 9.97733 39.6987 9.99196Z" fill="#802947"/>
<path d="M30.1037 13.6748C30.0977 13.6607 30.0809 13.6542 30.0669 13.6607L29.5322 13.8985C29.5182 13.905 29.5117 13.9213 29.5182 13.9354C29.5225 13.9456 29.5328 13.9521 29.5436 13.9521C29.5474 13.9521 29.5512 13.9511 29.555 13.9494L30.0896 13.7116C30.1037 13.7051 30.1102 13.6889 30.1037 13.6748Z" fill="#802947"/>
<path d="M39.5064 9.48809C39.5108 9.49838 39.5211 9.50488 39.5319 9.50488C39.5357 9.50488 39.5395 9.5038 39.5433 9.50218L40.0779 9.26438C40.092 9.25788 40.0985 9.24163 40.092 9.22755C40.086 9.21347 40.0692 9.20697 40.0551 9.21347L39.5205 9.45126C39.5064 9.45776 39.4999 9.47401 39.5064 9.48809Z" fill="#802947"/>
<path d="M30.641 14.6063C30.6318 14.5938 30.6145 14.5911 30.602 14.5998L30.1286 14.9443C30.1162 14.9529 30.1134 14.9708 30.1227 14.9833C30.1281 14.9903 30.1362 14.9946 30.1449 14.9946C30.1508 14.9946 30.1562 14.993 30.1617 14.9892L30.6351 14.6453C30.6475 14.6361 30.6502 14.6187 30.641 14.6063Z" fill="#802947"/>
<path d="M38.9684 8.5564C38.9738 8.56398 38.9824 8.56777 38.9911 8.56777C38.9965 8.56777 39.0025 8.56615 39.0074 8.56235L39.4808 8.2184C39.4932 8.20919 39.4959 8.19185 39.4867 8.1794C39.4781 8.16694 39.4602 8.16423 39.4483 8.17344L38.9743 8.5174C38.9619 8.5266 38.9592 8.54394 38.9684 8.5564Z" fill="#802947"/>
<path d="M30.9798 15.0251C30.9696 15.0132 30.9517 15.0126 30.9403 15.0229L30.5053 15.4145C30.494 15.4248 30.4929 15.4427 30.5032 15.4541C30.5086 15.46 30.5162 15.4633 30.5243 15.4633C30.5308 15.4633 30.5373 15.4611 30.5427 15.4562L30.9777 15.0641C30.9891 15.0538 30.9901 15.0364 30.9798 15.0251Z" fill="#802947"/>
<path d="M38.6301 8.13845C38.6356 8.14495 38.6431 8.14766 38.6507 8.14766C38.6572 8.14766 38.6643 8.14549 38.6697 8.14062L39.1046 7.74899C39.116 7.7387 39.1171 7.72082 39.1068 7.70945C39.0965 7.69807 39.0786 7.69699 39.0673 7.70728L38.6323 8.09945C38.6209 8.1092 38.6198 8.12707 38.6301 8.13845Z" fill="#802947"/>
<path d="M31.3231 15.4079L30.9309 15.8428C30.9206 15.8542 30.9217 15.8715 30.9331 15.8824C30.9385 15.8867 30.945 15.8894 30.952 15.8894C30.9596 15.8894 30.9672 15.8862 30.9726 15.8802L31.3642 15.4453C31.3745 15.4339 31.3735 15.416 31.3621 15.4057C31.3507 15.3954 31.3328 15.396 31.3231 15.4079Z" fill="#802947"/>
<path d="M38.2679 7.76423C38.2755 7.76423 38.2831 7.76098 38.2885 7.75502L38.6801 7.32007C38.6904 7.30869 38.6899 7.29082 38.6785 7.28052C38.6671 7.27023 38.6492 7.27132 38.6389 7.28269L38.2473 7.71765C38.237 7.72902 38.2381 7.7469 38.2495 7.75719C38.2549 7.76207 38.2614 7.76423 38.2679 7.76423Z" fill="#802947"/>
<path d="M31.742 15.7507L31.398 16.2241C31.3888 16.2366 31.3915 16.2544 31.404 16.2631C31.4094 16.2669 31.4148 16.2685 31.4208 16.2685C31.4289 16.2685 31.4376 16.2647 31.443 16.2571L31.787 15.7832C31.7962 15.7713 31.7935 15.7534 31.781 15.7447C31.7685 15.7355 31.7512 15.7382 31.742 15.7507Z" fill="#802947"/>
<path d="M38.1679 6.90596L37.8234 7.37937C37.8147 7.39183 37.8174 7.40971 37.8299 7.41837C37.8348 7.42217 37.8407 7.42379 37.8462 7.42379C37.8548 7.42379 37.8635 7.42 37.8689 7.41242L38.2129 6.939C38.2221 6.926 38.2194 6.90867 38.2069 6.9C38.1944 6.89079 38.1766 6.8935 38.1679 6.90596Z" fill="#802947"/>
<path d="M32.7127 16.2828C32.6986 16.2763 32.6824 16.2828 32.6759 16.2969L32.4381 16.8315C32.4316 16.8456 32.4381 16.8624 32.4522 16.8683C32.4554 16.87 32.4597 16.8711 32.463 16.8711C32.4738 16.8711 32.4841 16.8646 32.489 16.8543L32.7268 16.3196C32.7333 16.3056 32.7268 16.2893 32.7127 16.2828Z" fill="#802947"/>
<path d="M36.8975 6.88006C36.9013 6.88169 36.9051 6.88223 36.9088 6.88223C36.9191 6.88223 36.9294 6.87627 36.9343 6.86598L37.1721 6.33136C37.1786 6.31727 37.1721 6.30048 37.158 6.29452C37.1439 6.28802 37.1277 6.29452 37.1212 6.30861L36.8834 6.84323C36.8769 6.85731 36.8834 6.87356 36.8975 6.88006Z" fill="#802947"/>
<path d="M33.2156 16.476C33.201 16.4712 33.1853 16.4793 33.1804 16.4939L32.9995 17.0507C32.9946 17.0654 33.0027 17.0811 33.0173 17.0859C33.02 17.087 33.0228 17.087 33.026 17.087C33.0374 17.087 33.0488 17.08 33.0525 17.0681L33.2329 16.5112C33.2378 16.4966 33.2302 16.4809 33.2156 16.476Z" fill="#802947"/>
<path d="M36.5943 6.07759C36.5797 6.07271 36.564 6.08084 36.5591 6.09546L36.3782 6.6523C36.3738 6.66692 36.3814 6.68263 36.396 6.68751C36.3993 6.68805 36.402 6.68859 36.4047 6.68859C36.4166 6.68859 36.4275 6.68101 36.4312 6.66963L36.6122 6.1128C36.617 6.09817 36.6089 6.08246 36.5943 6.07759Z" fill="#802947"/>
<path d="M33.7351 16.6147C33.7199 16.612 33.7053 16.6218 33.7021 16.6364L33.5807 17.2089C33.5775 17.2241 33.5867 17.2393 33.6019 17.242C33.604 17.2425 33.6056 17.243 33.6078 17.243C33.6203 17.243 33.6322 17.2338 33.6349 17.2208L33.7568 16.6483C33.76 16.6331 33.7503 16.6185 33.7351 16.6147Z" fill="#802947"/>
<path d="M36.0091 5.92039C35.9939 5.91768 35.9793 5.92689 35.976 5.94206L35.8541 6.5146C35.8509 6.52977 35.8606 6.54439 35.8758 6.54764C35.8774 6.54818 35.8796 6.54818 35.8812 6.54818C35.8942 6.54818 35.9061 6.53952 35.9088 6.52652L36.0307 5.95398C36.0334 5.93881 36.0242 5.92364 36.0091 5.92039Z" fill="#802947"/>
<path d="M34.268 16.6994C34.2523 16.6977 34.2388 16.7091 34.2372 16.7243L34.1759 17.3066C34.1743 17.3217 34.1852 17.3353 34.2009 17.3369C34.2014 17.3375 34.2025 17.3375 34.2036 17.3375C34.2177 17.3375 34.2296 17.3266 34.2312 17.3125L34.2924 16.7302C34.294 16.7145 34.2832 16.701 34.268 16.6994Z" fill="#802947"/>
<path d="M35.4101 5.82535C35.3949 5.82372 35.3814 5.8351 35.3797 5.85027L35.3185 6.43256C35.3169 6.44772 35.3277 6.46181 35.3434 6.46343C35.3445 6.46343 35.3451 6.46343 35.3461 6.46343C35.3602 6.46343 35.3721 6.4526 35.3738 6.43852L35.435 5.85622C35.4366 5.84106 35.4252 5.82698 35.4101 5.82535Z" fill="#802947"/>
<path d="M34.8056 6.71039C34.8495 6.71039 34.8853 6.67464 34.8853 6.63076V5.76951C34.8853 5.72564 34.8495 5.69043 34.8056 5.69043C34.7623 5.69043 34.7266 5.72564 34.7266 5.76951V6.63076C34.7266 6.67464 34.7623 6.71039 34.8056 6.71039Z" fill="#802947"/>
<path d="M34.8056 16.4521C34.7623 16.4521 34.7266 16.4879 34.7266 16.5318V17.393C34.7266 17.4369 34.7623 17.4721 34.8056 17.4721C34.8495 17.4721 34.8853 17.4369 34.8853 17.393V16.5318C34.8853 16.4879 34.8495 16.4521 34.8056 16.4521Z" fill="#802947"/>
<path d="M32.2614 7.33369C32.2831 7.37161 32.3318 7.38461 32.3697 7.3624C32.4077 7.34074 32.4207 7.29199 32.399 7.25407L31.9684 6.50819C31.9462 6.47082 31.898 6.45728 31.86 6.47949C31.8221 6.50115 31.8091 6.5499 31.8308 6.58782L32.2614 7.33369Z" fill="#802947"/>
<path d="M37.3492 15.8288C37.327 15.7909 37.2788 15.7779 37.2409 15.7995C37.203 15.8217 37.19 15.87 37.2116 15.9079L37.6423 16.6537C37.6645 16.6917 37.7127 16.7047 37.7506 16.683C37.7885 16.6608 37.8015 16.6126 37.7799 16.5747L37.3492 15.8288Z" fill="#802947"/>
<path d="M29.7333 8.74431L30.4787 9.17548C30.5166 9.19715 30.5653 9.18415 30.587 9.14623C30.6092 9.10831 30.5962 9.05956 30.5583 9.0379L29.8124 8.60727C29.7745 8.58561 29.7257 8.59806 29.7041 8.63652C29.6819 8.67444 29.6954 8.72265 29.7333 8.74431Z" fill="#802947"/>
<path d="M39.8784 14.4186L39.1325 13.988C39.0951 13.9663 39.0464 13.9793 39.0241 14.0173C39.0025 14.0552 39.0155 14.1034 39.0534 14.1256L39.7993 14.5562C39.8372 14.5779 39.8859 14.5649 39.9076 14.527C39.9293 14.4891 39.9168 14.4408 39.8784 14.4186Z" fill="#802947"/>
<path d="M29.9335 11.581C29.9335 11.5372 29.8983 11.502 29.8544 11.502H28.9931C28.9493 11.502 28.9141 11.5372 28.9141 11.581C28.9141 11.6249 28.9493 11.6607 28.9931 11.6607H29.8544C29.8983 11.6607 29.9335 11.6249 29.9335 11.581Z" fill="#802947"/>
<path d="M40.6167 11.502H39.7554C39.7115 11.502 39.6758 11.5372 39.6758 11.581C39.6758 11.6249 39.7115 11.6607 39.7554 11.6607H40.6167C40.66 11.6607 40.6957 11.6249 40.6957 11.581C40.6957 11.5372 40.66 11.502 40.6167 11.502Z" fill="#802947"/>
<path d="M30.587 14.0173C30.5653 13.9793 30.5166 13.9663 30.4787 13.988L29.7333 14.4186C29.6954 14.4408 29.6819 14.4891 29.7041 14.527C29.7257 14.5649 29.7745 14.5779 29.8124 14.5562L30.5583 14.1256C30.5962 14.1034 30.6092 14.0552 30.587 14.0173Z" fill="#802947"/>
<path d="M39.0241 9.14623C39.0464 9.18415 39.0951 9.19715 39.1325 9.17548L39.8784 8.74431C39.9168 8.72265 39.9293 8.67444 39.9076 8.63652C39.8859 8.59806 39.8372 8.58561 39.7993 8.60727L39.0534 9.0379C39.0155 9.05956 39.0025 9.10831 39.0241 9.14623Z" fill="#802947"/>
<path d="M32.3697 15.7995C32.3318 15.7779 32.2831 15.7909 32.2614 15.8288L31.8308 16.5747C31.8091 16.6126 31.8221 16.6608 31.86 16.683C31.898 16.7047 31.9462 16.6917 31.9684 16.6537L32.399 15.9079C32.4207 15.87 32.4077 15.8217 32.3697 15.7995Z" fill="#802947"/>
<path d="M37.7506 6.47949C37.7127 6.45728 37.6645 6.47082 37.6423 6.50819L37.2116 7.25407C37.19 7.29199 37.203 7.34074 37.2409 7.3624C37.2788 7.38461 37.327 7.37161 37.3492 7.33369L37.7799 6.58782C37.8015 6.5499 37.7885 6.50115 37.7506 6.47949Z" fill="#802947"/>
<path d="M34.3265 13.6679V9.49543C34.3265 9.45535 34.294 9.42285 34.2539 9.42285H32.7757C32.7362 9.42285 32.7031 9.45535 32.7031 9.49543V13.6679C32.7031 13.708 32.7362 13.7405 32.7757 13.7405H34.2539C34.294 13.7405 34.3265 13.708 34.3265 13.6679Z" fill="#FF528F"/>
<path d="M36.9066 13.6679V9.49543C36.9066 9.45535 36.8735 9.42285 36.834 9.42285H35.3558C35.3157 9.42285 35.2832 9.45535 35.2832 9.49543V13.6679C35.2832 13.708 35.3157 13.7405 35.3558 13.7405H36.834C36.8735 13.7405 36.9066 13.708 36.9066 13.6679Z" fill="#FF528F"/>
<mask id="mask0_622_6335" style="mask-type:luminance" maskUnits="userSpaceOnUse" x="7" y="12" width="23" height="35">
<path d="M7.72656 12.6465H29.7096V46.7726H7.72656V12.6465Z" fill="white"/>
</mask>
<g mask="url(#mask0_622_6335)">
<path d="M25.7646 21.5812C25.9553 22.2393 26.0539 22.9288 26.0539 23.633C26.0539 25.5938 25.2901 27.4377 23.9034 28.8243C22.5168 30.2105 20.6735 30.9742 18.7121 30.9742C16.7513 30.9742 14.908 30.2105 13.5213 28.8243C12.1346 27.4377 11.3709 25.5938 11.3709 23.633C11.3709 21.6722 12.1346 19.8289 13.5213 18.4422C14.908 17.0555 16.7513 16.2918 18.7121 16.2918C20.4861 16.2918 22.1641 16.9169 23.4945 18.0625L25.581 15.0584C24.7934 14.4258 23.9256 13.9079 22.9891 13.5114C21.6333 12.9378 20.1946 12.6475 18.7121 12.6475C17.2301 12.6475 15.7914 12.9378 14.4356 13.5114C13.127 14.065 11.9526 14.8564 10.9441 15.865C9.93602 16.873 9.14356 18.0479 8.59052 19.356C8.01744 20.7118 7.72656 22.151 7.72656 23.633C7.72656 25.115 8.01744 26.5542 8.59052 27.91C9.14356 29.2181 9.93602 30.393 10.9441 31.4016C11.9526 32.4096 13.127 33.201 14.4356 33.7546C15.0553 34.0168 15.6923 34.2199 16.3429 34.3629V38.5413H15.4253C14.1166 38.5413 13.0555 39.6024 13.0555 40.9111C13.0555 42.2198 14.1166 43.2809 15.4253 43.2809H16.3429V44.4059C16.3429 45.7135 17.4029 46.7735 18.711 46.7735H18.7121C20.0213 46.7735 21.0819 45.7124 21.0819 44.4038V43.2809H21.9995C23.3081 43.2809 24.3693 42.2198 24.3693 40.9111C24.3693 39.6024 23.3081 38.5413 21.9995 38.5413H21.0819V34.3629C21.7324 34.2199 22.3694 34.0168 22.9891 33.7546C24.2972 33.201 25.4721 32.4096 26.4801 31.4016C27.4882 30.393 28.2806 29.2181 28.8337 27.91C29.4073 26.5542 29.6982 25.115 29.6982 23.633C29.6982 22.21 29.4301 20.8266 28.9009 19.519L25.7646 21.5812Z" fill="#FF528F"/>
</g>
<mask id="mask1_622_6335" style="mask-type:luminance" maskUnits="userSpaceOnUse" x="24" y="3" width="19" height="17">
<path d="M24.6836 3.50879H42.8787V19.8861H24.6836V3.50879Z" fill="white"/>
</mask>
<g mask="url(#mask1_622_6335)">
<path d="M39.0291 15.8046C37.9009 16.9329 36.4015 17.5536 34.8058 17.5536C33.2961 17.5536 31.8721 16.9973 30.7671 15.9812C30.7048 15.9237 30.6436 15.8647 30.5829 15.8046C30.4356 15.6572 30.2969 15.5034 30.1675 15.3442C29.3035 14.283 28.8339 12.9679 28.8339 11.5817C28.8339 9.986 29.4552 8.48667 30.5829 7.35837C31.7112 6.23008 33.2106 5.60933 34.8058 5.60933C36.4015 5.60933 37.9009 6.23008 39.0291 7.35837C40.1569 8.48667 40.7782 9.986 40.7782 11.5817C40.7782 13.1764 40.1569 14.6763 39.0291 15.8046ZM35.0528 3.51254C30.4085 3.37333 26.6277 7.12708 26.736 11.773C26.7647 13.0188 27.0762 14.1953 27.6086 15.2402C27.6606 15.342 27.6525 15.4639 27.5875 15.5576L24.7194 19.6856C24.6452 19.7923 24.7725 19.9234 24.8814 19.8519L28.7602 17.3007C28.8816 17.221 29.043 17.2357 29.1464 17.3375C30.7005 18.8661 32.8715 19.7696 35.2516 19.6417C39.3704 19.4202 42.6746 16.0933 42.869 11.9734C43.0846 7.42012 39.5259 3.64687 35.0528 3.51254Z" fill="#FF528F"/>
</g>
</svg>
