<svg width="51" height="51" viewBox="0 0 51 51" fill="none" xmlns="http://www.w3.org/2000/svg">
<mask id="mask0_622_6323" style="mask-type:luminance" maskUnits="userSpaceOnUse" x="1" y="2" width="48" height="45">
<path d="M1.20508 2.91113H48.226V46.6596H1.20508V2.91113Z" fill="white"/>
</mask>
<g mask="url(#mask0_622_6323)">
<path fill-rule="evenodd" clip-rule="evenodd" d="M30.7654 46.3408C30.6719 45.9116 30.2204 44.9591 30.0482 44.7147C30.0684 44.7168 30.0828 44.7126 30.0886 44.7046C30.1455 44.6334 30.0057 44.3853 29.8007 44.1409C29.9064 44.1941 29.933 44.1308 29.8899 43.9885C29.8315 43.7866 29.6695 43.4471 29.406 43.1618C29.5536 43.2351 29.586 43.1741 29.5212 43.0195C29.4766 42.8771 29.3326 42.6247 29.0835 42.3926C29.2051 42.4335 29.2253 42.3681 29.1584 42.23C29.1 42.0733 28.9071 41.7801 28.5793 41.5421L28.6096 41.55C28.6457 41.558 28.8487 41.5989 28.863 41.5644C28.8912 41.4911 28.7594 41.2531 28.5565 41.0655C28.4895 41.0066 28.403 40.9476 28.2972 40.8907C28.362 40.8945 28.403 40.8865 28.4109 40.8599C28.4311 40.7866 28.3116 40.6017 28.0927 40.4206C27.9509 40.3005 27.7017 40.1704 27.4239 40.0561C27.5131 40.0705 27.5737 40.0684 27.5822 40.0381C27.5981 39.977 27.4605 39.7937 27.2783 39.6434C27.1524 39.5392 26.9378 39.4256 26.6987 39.3257C26.7024 39.3214 26.7045 39.3198 26.7067 39.3156C26.7189 39.2726 26.6376 39.1424 26.5101 39.0409C26.3741 38.9331 26.2647 38.8699 26.1595 38.8125C25.6304 38.5198 25.4545 38.2839 25.1745 37.8929C24.374 36.7757 26.3985 38.1819 26.6477 38.4342C26.7492 38.5384 26.8565 38.6441 27.0249 38.7657C27.1848 38.88 27.359 38.9331 27.4058 38.9023C27.4079 38.9001 27.4116 38.8964 27.4138 38.8901C27.6045 39.1344 27.8069 39.348 27.9673 39.458C28.2 39.6205 28.4555 39.7204 28.5204 39.68C28.5405 39.6678 28.5405 39.6327 28.5262 39.5844C28.735 39.8447 28.948 40.0668 29.1201 40.1847C29.406 40.3818 29.6652 40.4631 29.7444 40.4142C29.7624 40.4041 29.7667 40.3781 29.7624 40.3436C29.9064 40.5098 30.0461 40.6506 30.1656 40.7399C30.4536 40.9577 30.7272 41.0129 30.8143 40.9476C30.8626 40.9109 30.8223 40.7707 30.7697 40.6384C31.0109 40.9231 31.2536 41.1654 31.4481 41.3056C31.7891 41.5479 32.1068 41.6191 32.2046 41.5543C32.2566 41.5197 32.2125 41.3832 32.1536 41.2467C32.3645 41.4868 32.5733 41.6881 32.7454 41.8125C33.0838 42.0547 33.402 42.1259 33.4992 42.0611C33.5439 42.0303 33.5274 41.9532 33.4891 41.8571C33.4769 41.8268 33.4626 41.7965 33.4504 41.7657C33.5784 41.9081 33.708 42.0244 33.8275 42.0977C34.1537 42.3012 34.5245 42.3883 34.6095 42.3214C34.6505 42.2911 34.5187 42.0303 34.4921 41.9856L34.4698 41.9469C34.9155 42.2991 35.3799 42.4473 35.6125 42.4659C35.8235 42.5047 35.9026 42.4537 35.799 42.3049C36.2086 42.5536 36.5996 42.6513 36.8063 42.6571C37.0374 42.6858 37.108 42.6162 36.954 42.4457C37.4342 42.6938 37.9532 42.7815 38.2433 42.7852C38.4515 42.7894 38.5243 42.7305 38.4133 42.6083C38.8186 42.7894 39.2038 42.8851 39.2782 42.7815C39.2867 42.7692 39.2845 42.7491 39.2766 42.7241C39.6676 42.8627 41.1147 43.1087 41.7246 43.0705C42.217 43.0396 42.1278 42.8606 41.6778 42.6635C41.4021 42.5413 40.8815 42.3294 40.1845 42.1078C39.7871 41.9814 39.5443 41.9102 39.3658 41.8778C39.3903 41.847 39.3855 41.8188 39.3435 41.7923C39.1996 41.7009 38.8649 41.5033 38.3198 41.4666C38.4314 41.4379 38.5164 41.4034 38.5126 41.3466C38.4962 41.1696 37.8619 40.8318 37.0857 40.7808L37.116 40.7765C37.3779 40.7319 37.3694 40.6299 37.1548 40.512C36.8998 40.3738 36.4094 40.1927 35.8702 40.1704L35.8739 40.1682C36.0423 40.1194 36.1884 40.0625 36.2065 39.9935C36.2267 39.9239 36.0891 39.8224 35.7767 39.7491C35.5275 39.6901 35.2295 39.6736 34.9256 39.7002C34.9745 39.6758 35.0229 39.6471 35.0717 39.6205C35.153 39.5738 35.2072 39.527 35.1934 39.4781C35.1589 39.3767 34.8874 39.2465 34.5044 39.2301C34.336 39.2237 34.1134 39.2423 33.87 39.2826C33.9593 39.238 34.0464 39.1913 34.1314 39.1424C34.2207 39.0898 34.2791 39.0388 34.2632 38.9878C34.2265 38.8757 33.9327 38.7355 33.5157 38.7195C33.2416 38.7068 32.8368 38.762 32.4107 38.8598C32.5547 38.7886 32.6986 38.7153 32.8368 38.6356C32.9255 38.583 32.9845 38.532 32.968 38.481C32.9319 38.3689 32.6381 38.2286 32.2205 38.2122C31.9772 38.2021 31.6266 38.2451 31.2536 38.3227C31.3227 38.2818 31.3896 38.2409 31.4566 38.1984C31.5357 38.1452 31.5899 38.0964 31.5761 38.0496C31.548 37.946 31.2967 37.8238 30.936 37.8217C30.7697 37.8196 30.5465 37.8525 30.2995 37.9051C30.334 37.8786 30.3521 37.8499 30.3404 37.8238C30.3255 37.793 30.2852 37.7627 30.2267 37.7341C30.113 37.6793 29.866 37.6384 29.6408 37.6363C29.44 37.6363 29.177 37.6714 28.897 37.7319L28.9034 37.7282C28.9618 37.6974 29.0027 37.665 28.9905 37.6326C28.9799 37.606 28.9496 37.5795 28.9013 37.5529C28.812 37.5024 28.6133 37.4551 28.429 37.4429C28.2547 37.4328 28.0072 37.4573 27.7463 37.5083C27.7601 37.4939 27.7665 37.4817 27.7623 37.4679C27.7564 37.4493 27.7357 37.4307 27.7038 37.4126C27.6427 37.3781 27.5051 37.3473 27.3792 37.3415C26.526 37.3069 26.3359 37.435 25.4805 37.1869C25.6065 37.1523 25.734 37.1178 25.8636 37.0849C27.1726 36.7449 27.3814 36.9467 28.565 36.9547C28.7313 36.9568 28.9135 36.9244 28.9942 36.8835C29.0389 36.8612 29.0675 36.8368 29.0755 36.8123C29.0835 36.7959 29.0755 36.7778 29.0575 36.7592C29.3975 36.8426 29.7199 36.8915 29.9526 36.8872C30.1943 36.8835 30.4594 36.8346 30.5811 36.7757C30.6459 36.7449 30.6884 36.7087 30.7006 36.6758C30.7208 36.6333 30.6703 36.5903 30.5933 36.5435L30.5853 36.5398C30.9498 36.637 31.2945 36.6981 31.558 36.7103C31.8534 36.7247 32.1823 36.6859 32.3337 36.6232C32.415 36.5881 32.4697 36.5499 32.4899 36.5111C32.5063 36.4766 32.4861 36.4399 32.4436 36.4011C32.7635 36.4888 33.0551 36.5435 33.2745 36.552C33.7484 36.5722 34.0868 36.4277 34.1314 36.2933C34.1516 36.2322 34.0847 36.1631 33.9832 36.092C33.8982 36.0309 33.8111 35.9719 33.7218 35.9145C34.2106 36.041 34.6664 36.1201 34.9889 36.1222C35.5376 36.1265 35.9329 35.9597 35.9897 35.8152C36.0142 35.7477 35.9387 35.6786 35.8256 35.6053C35.6492 35.4916 35.467 35.3859 35.2805 35.2818C35.8335 35.4385 36.3643 35.5363 36.7255 35.5384C37.2743 35.5421 37.6695 35.3753 37.7243 35.2308C37.7508 35.166 37.6754 35.0948 37.5601 35.0215C37.4507 34.9519 37.3391 34.8828 37.226 34.818C37.5458 34.8871 37.8358 34.928 38.0563 34.928C38.5631 34.9317 38.9281 34.7792 38.9785 34.6448C39.003 34.5837 38.9318 34.5189 38.8266 34.4515C38.7655 34.4127 38.705 34.3739 38.6417 34.3356C39.0396 34.3925 39.4322 34.3904 39.7627 34.3293C40.1802 34.2522 40.3667 34.1279 40.3465 34.0344C40.3263 33.9425 40.1377 33.8591 39.921 33.7821L39.9125 33.78C40.6244 33.7842 41.2805 33.5786 41.6247 33.4113C41.9148 33.271 41.9328 33.1387 41.5907 33.0638L41.5503 33.0532C42.5772 33.0373 43.4325 32.6341 43.4628 32.4019C43.4729 32.3286 43.364 32.2781 43.22 32.2314C43.9388 32.2186 44.3909 31.9806 44.5875 31.8691C44.6443 31.8361 44.6502 31.7995 44.622 31.7591C44.8574 31.7261 45.1814 31.6512 45.7121 31.5089C46.6445 31.2602 47.3415 31.018 47.7102 30.8756C48.3142 30.6435 48.4438 30.414 47.7973 30.3406C47.001 30.2509 45.08 30.483 44.5551 30.6397C44.5694 30.6073 44.5731 30.5808 44.563 30.5643C44.4701 30.4241 43.9595 30.5239 43.4145 30.7375C43.5686 30.585 43.475 30.4995 43.2015 30.491C42.8184 30.4788 42.1336 30.5601 41.4834 30.8554C41.698 30.6419 41.6088 30.5462 41.3049 30.5701C41.0313 30.5643 40.5107 30.6658 39.9571 30.9691C40.1032 30.78 40.0017 30.7067 39.7223 30.7433C39.4142 30.7534 38.7942 30.9186 38.1865 31.3543C38.1965 31.3378 38.2066 31.3213 38.2183 31.3049C38.255 31.2459 38.4436 30.9123 38.3931 30.8676C38.2831 30.7763 37.7912 30.8655 37.3492 31.112C37.1872 31.2034 37.0108 31.3458 36.8307 31.5248C36.8509 31.486 36.869 31.4472 36.8891 31.4069C36.946 31.2826 36.9725 31.1832 36.9157 31.1423C36.7898 31.0488 36.3685 31.1221 35.9063 31.4191C35.6736 31.57 35.3878 31.8218 35.0919 32.1235C35.1812 31.9503 35.246 31.7734 35.179 31.7246C35.0553 31.6326 34.6319 31.7038 34.1718 32.0029C33.9062 32.174 33.5699 32.4773 33.2336 32.8354C33.3128 32.6643 33.3755 32.4832 33.3106 32.4306C33.2012 32.3408 32.8384 32.3961 32.4474 32.6627C32.2832 32.7743 32.0909 32.9475 31.8901 33.1611C31.9002 33.1143 31.8943 33.0798 31.872 33.0654C31.7705 32.9964 31.4242 33.0861 31.0353 33.3279C30.8021 33.4724 30.5083 33.7491 30.2161 34.0791C30.2384 34.0137 30.2405 33.9691 30.2145 33.9531C30.1311 33.8958 29.7906 34.01 29.4729 34.2071C29.2535 34.3436 28.9762 34.6124 28.7084 34.9195C28.7068 34.9136 28.7026 34.9073 28.6989 34.9036C28.6399 34.8605 28.4045 34.9195 28.1899 35.0597C27.9588 35.2085 27.8127 35.3429 27.673 35.4709C26.8708 36.2099 26.3943 36.33 25.4646 36.6248C25.5273 36.5456 25.6102 36.432 25.675 36.3523C26.508 35.3307 26.7773 35.3652 27.7017 34.6857C27.8313 34.5896 27.9567 34.4616 27.9976 34.3824C28.0194 34.3394 28.0279 34.3048 28.0215 34.2804C28.0178 34.2645 28.0035 34.256 27.979 34.2522C28.2871 34.1178 28.565 33.967 28.743 33.831C28.9294 33.6881 29.11 33.4968 29.1706 33.381C29.203 33.3178 29.2174 33.2673 29.211 33.2344C29.2014 33.1919 29.1382 33.1855 29.0553 33.1956C29.033 33.1977 29.0128 33.202 28.9905 33.2041C29.3534 33.0431 29.6774 32.8641 29.8878 32.7015C30.1152 32.5241 30.3356 32.2903 30.4111 32.1474C30.4515 32.0725 30.4679 32.0093 30.4594 31.9705C30.4594 31.9668 30.4594 31.9647 30.4573 31.9604C30.7452 31.8446 30.9944 31.7203 31.1686 31.5981C31.422 31.4233 31.6611 31.1811 31.7381 31.0302C31.779 30.9489 31.7929 30.8815 31.779 30.8347C31.7626 30.7736 31.6712 30.7619 31.5517 30.7662C31.4746 30.7678 31.3976 30.772 31.3227 30.7779C31.864 30.5951 32.3501 30.3752 32.654 30.1653C32.9563 29.956 33.2416 29.667 33.333 29.488C33.3818 29.3902 33.3999 29.3084 33.3834 29.2537C33.3632 29.1825 33.2543 29.166 33.1104 29.1703C33.0232 29.1746 32.9361 29.1783 32.849 29.1846C33.3351 29.0136 33.7606 28.8245 34.03 28.6433C34.5203 28.3155 34.7535 27.9266 34.7009 27.7598C34.6765 27.6823 34.5591 27.6642 34.4071 27.6663C34.2775 27.6663 34.1479 27.6722 34.0177 27.6786C34.5973 27.4485 35.11 27.194 35.4346 26.9619C35.9834 26.5672 36.2591 26.1135 36.2102 25.9281C36.1884 25.8426 36.0625 25.8266 35.8946 25.8367C35.637 25.8532 35.3777 25.8792 35.1185 25.9116C35.7831 25.6635 36.3845 25.3766 36.7473 25.1163C37.2987 24.7195 37.5718 24.2653 37.5235 24.0804C37.5011 23.9949 37.3758 23.9805 37.2074 23.9906C37.0475 23.9991 36.8876 24.0135 36.7271 24.0315C37.0963 23.8668 37.414 23.6958 37.6371 23.5369C38.1455 23.1704 38.399 22.7512 38.3543 22.5823C38.3341 22.5031 38.2167 22.4888 38.0627 22.4967C37.9734 22.5031 37.8842 22.5111 37.7933 22.5175C38.2327 22.2853 38.6237 21.9942 38.9095 21.693C39.2681 21.3126 39.3674 21.0517 39.2782 20.9747C39.191 20.8993 38.9419 20.9503 38.6704 21.0337L38.6625 21.0358C39.3759 20.5231 39.8843 19.8389 40.1075 19.4197C40.2955 19.0696 40.219 18.923 39.8216 19.0962L39.7749 19.1164C40.7885 18.3535 41.3516 17.3277 41.2156 17.0732C41.171 16.9898 41.0249 17.0201 40.847 17.0796C41.5583 16.5441 41.8377 15.9746 41.9535 15.7217C41.986 15.6484 41.9658 15.6059 41.9068 15.5857C42.1198 15.3844 42.3892 15.0704 42.8168 14.5413C43.5686 13.6153 44.0892 12.8646 44.3569 12.4535C44.7963 11.7719 44.7479 11.46 44.0568 11.8553C43.1956 12.3456 41.4446 13.9755 41.0334 14.5174C41.0249 14.4722 41.009 14.4441 40.9867 14.4361C40.7922 14.3606 40.3529 14.8345 39.9635 15.4449C40.006 15.1809 39.854 15.1623 39.5746 15.3536C39.181 15.6202 38.5551 16.202 38.1195 16.9696C38.178 16.5993 38.0223 16.5685 37.7344 16.8145C37.4586 17.0084 37.0108 17.4902 36.6766 18.1947C36.6846 17.8998 36.5305 17.8998 36.2771 18.14C35.9775 18.3758 35.4771 18.9926 35.1833 19.8697C35.1833 19.8453 35.1812 19.8208 35.1812 19.7985C35.1769 19.713 35.1222 19.2407 35.0393 19.2349C34.8651 19.2205 34.4374 19.67 34.1739 20.2379C34.0767 20.4477 34.0055 20.7181 33.955 21.0273C33.945 20.9747 33.937 20.9216 33.9264 20.869C33.8945 20.7038 33.8499 20.5837 33.7606 20.5837C33.5699 20.5816 33.2012 20.9625 32.9542 21.5952C32.8304 21.9171 32.7252 22.3751 32.6503 22.892C32.6115 22.654 32.551 22.4319 32.4474 22.4319C32.2566 22.4298 31.888 22.8102 31.6409 23.4434C31.5012 23.8079 31.3838 24.3529 31.3068 24.9575C31.2621 24.7317 31.1931 24.5038 31.0916 24.4974C30.9174 24.4873 30.5933 24.8087 30.3967 25.3586C30.3075 25.6067 30.2368 25.9504 30.1901 26.3435C30.1598 26.2739 30.1231 26.2272 30.0806 26.2272C29.9165 26.2213 29.5738 26.6283 29.3751 27.1595C29.2577 27.473 29.1727 27.9367 29.1239 28.4478C29.0957 28.3644 29.0612 28.3054 29.0165 28.3033C28.879 28.2991 28.5931 28.6391 28.4269 29.0826C28.3498 29.2904 28.2871 29.5772 28.2468 29.9008C28.115 29.9698 27.8903 30.2673 27.74 30.6275C27.6385 30.8698 27.5498 31.2215 27.4865 31.6082C27.4706 31.5492 27.4504 31.5147 27.4196 31.5168C27.3245 31.5206 27.1056 31.7872 26.9659 32.1235C26.8708 32.3551 26.7895 32.7074 26.7391 33.084C26.729 33.0532 26.7125 33.0373 26.6945 33.0351C26.6275 33.0373 26.4777 33.2184 26.3863 33.4485C26.287 33.6966 26.2445 33.8857 26.2062 34.0647C25.9709 35.1617 25.6325 35.4651 25.0003 36.3422L24.9801 36.3709C24.9822 36.3055 24.9822 36.2343 24.9822 36.161C24.9838 35.0172 24.8829 34.5492 25.361 33.4665C25.438 33.2875 25.5193 33.1 25.5879 32.8274C25.6527 32.573 25.6367 32.3249 25.5778 32.2818C25.564 32.2696 25.5395 32.276 25.5108 32.2962C25.6994 31.9424 25.8492 31.5901 25.9103 31.3336C25.9996 30.959 25.9773 30.5967 25.8981 30.534C25.8737 30.5133 25.8354 30.5276 25.7865 30.5701C25.9688 30.2004 26.1127 29.8461 26.1754 29.5751C26.2689 29.1724 26.261 28.7793 26.194 28.6391C26.356 28.3357 26.4814 28.0531 26.5425 27.8273C26.6759 27.3471 26.6419 26.8769 26.5223 26.7951C26.4814 26.7664 26.4166 26.7951 26.3396 26.8503C26.6153 26.3844 26.8278 25.9345 26.9213 25.5923C27.0796 25.0186 27.0387 24.4549 26.8974 24.3593C26.8586 24.3327 26.7996 24.3492 26.7311 24.3917C26.9335 24.0251 27.0876 23.6873 27.1625 23.4211C27.3346 22.8266 27.2576 22.3522 27.1019 22.2508C27.0127 22.1939 26.8119 22.3443 26.6334 22.5111C26.9415 21.9474 27.179 21.4082 27.2841 21.0092C27.4664 20.3154 27.3856 19.7597 27.2215 19.6418C27.1322 19.5786 26.9415 19.7311 26.7635 19.9101C27.0185 19.4219 27.213 18.9639 27.3043 18.6138C27.4865 17.92 27.4058 17.3643 27.2416 17.2464C27.1667 17.1917 27.053 17.2645 26.9234 17.3866C26.883 17.4254 26.8427 17.4642 26.8018 17.5046C26.9495 17.2097 27.0573 16.933 27.104 16.6944C27.2294 16.0436 27.1402 15.3939 26.984 15.2967C26.9091 15.2521 26.5728 15.6202 26.516 15.6893C26.5 15.71 26.4835 15.7297 26.4676 15.7504C26.7614 14.8186 26.7146 13.9797 26.6031 13.593C26.5345 13.2291 26.4044 13.1329 26.2285 13.3895C26.3784 12.5799 26.2955 11.8877 26.1797 11.5519C26.0846 11.1631 25.9326 11.0897 25.7541 11.4441C25.8577 10.516 25.6814 9.63093 25.5108 9.15864C25.3892 8.82077 25.2495 8.74161 25.122 8.99183C25.1666 8.22843 25.0837 7.55108 24.8728 7.49371C24.8484 7.48574 24.8181 7.50168 24.7814 7.53249C24.765 6.81583 24.2767 4.3333 23.8454 3.37705C23.4804 2.56689 23.2615 2.90264 23.2211 3.70058C23.1946 4.21696 23.1744 5.18383 23.2435 6.44343C23.2838 7.16221 23.3205 7.59783 23.3752 7.90277C23.3141 7.88258 23.27 7.90489 23.2514 7.99043C23.1946 8.2773 23.0814 8.93871 23.3566 9.83811C23.2413 9.67555 23.1361 9.55921 23.0469 9.60224C22.7733 9.73452 22.6192 10.9617 23.0145 12.2457L22.9863 12.199C22.7552 11.8043 22.599 11.8792 22.5422 12.2967C22.4731 12.7935 22.4854 13.695 22.7775 14.5779L22.7712 14.57C22.5911 14.3298 22.4105 14.1306 22.2888 14.1407C22.1655 14.1529 22.0885 14.4361 22.1613 14.9854C22.2181 15.421 22.3743 15.9114 22.6033 16.3852C22.5321 16.322 22.4593 16.2593 22.3865 16.2004C22.2606 16.0968 22.1512 16.0351 22.0864 16.0883C21.9424 16.2062 21.8999 16.7231 22.1087 17.3521C22.2001 17.6268 22.3658 17.971 22.5789 18.3413C22.4535 18.225 22.3233 18.1134 22.1937 18.0056C22.0561 17.8935 21.9387 17.8265 21.8675 17.8855C21.7113 18.0135 21.6667 18.5735 21.892 19.2551C22.0396 19.7029 22.3743 20.3234 22.7892 20.9503C22.589 20.759 22.3844 20.5757 22.1735 20.401C22.0359 20.2889 21.918 20.2235 21.8473 20.2809C21.6911 20.4089 21.6444 20.9683 21.8718 21.6505C22.003 22.0494 22.2851 22.5865 22.6373 23.1422C22.53 23.0567 22.4227 22.9733 22.3132 22.892C22.1836 22.7942 22.072 22.7369 22.0056 22.7879C21.8574 22.8957 21.8149 23.376 22.0295 23.9582C22.1491 24.2817 22.3945 24.7094 22.7042 25.1572C22.6336 25.0977 22.5624 25.0409 22.4896 24.9841C22.3701 24.8906 22.2686 24.8353 22.2059 24.8842C22.1576 24.9208 22.123 25 22.1045 25.1142C22.0699 25.3262 22.1369 25.7491 22.2649 26.1177C22.3945 26.4859 22.674 26.9762 23.0246 27.4687C22.9619 27.4177 22.8987 27.3672 22.836 27.3184C22.7372 27.2387 22.6495 27.1941 22.5969 27.235C22.5587 27.2652 22.5284 27.3322 22.514 27.4262C22.4854 27.6031 22.5401 27.9596 22.6479 28.2666C22.7228 28.4786 22.8583 28.7411 23.0304 29.0194C23.0288 29.0194 23.0246 29.0216 23.0225 29.0258C22.99 29.054 22.9677 29.1193 22.9555 29.2091C22.9316 29.3759 22.9741 29.7138 23.0591 30.0044C23.1383 30.2774 23.3061 30.6312 23.5149 30.9957C23.499 30.9797 23.4825 30.9633 23.4645 30.9468C23.3996 30.8878 23.3428 30.8512 23.3083 30.8841C23.2822 30.908 23.2615 30.959 23.2514 31.0323C23.2334 31.171 23.2679 31.4456 23.3385 31.6836C23.4055 31.9116 23.5495 32.2128 23.7317 32.5204C23.7094 32.5081 23.6892 32.506 23.6754 32.5182C23.6568 32.5342 23.6424 32.5708 23.6345 32.6197C23.6206 32.7137 23.6467 32.9007 23.6993 33.0638C24.0685 34.2193 24.3214 34.3601 24.4005 35.7498C24.4228 36.1488 24.5466 36.4968 24.2523 36.0367C23.5595 34.9461 23.6754 34.7017 23.3263 33.6291C23.2759 33.4787 23.1946 33.3241 23.134 33.2609C23.1016 33.2264 23.0713 33.2078 23.0469 33.2062C23.0304 33.2062 23.0166 33.2163 23.0065 33.2386C22.9762 32.9087 22.921 32.6016 22.8482 32.3939C22.7733 32.1761 22.6495 31.9482 22.5608 31.8568C22.514 31.8058 22.4715 31.7771 22.4391 31.775C22.3945 31.7692 22.3722 31.826 22.3536 31.9073C22.3499 31.9296 22.3456 31.9503 22.3414 31.9726C22.3031 31.5838 22.2362 31.2236 22.1491 30.9776C22.054 30.7109 21.9042 30.4341 21.7963 30.3199C21.7379 30.2588 21.6853 30.2227 21.6444 30.2185C21.6428 30.2185 21.6385 30.2185 21.6364 30.2185C21.6162 29.9151 21.5759 29.6426 21.5169 29.4428C21.4298 29.1522 21.28 28.8547 21.162 28.7368C21.0993 28.6736 21.0409 28.6391 20.9941 28.6369C20.933 28.6348 20.8927 28.7166 20.8603 28.8303C20.8401 28.9015 20.8199 28.9748 20.8018 29.0481C20.7955 28.4845 20.7407 27.9612 20.6398 27.6153C20.5362 27.2674 20.3556 26.9114 20.2159 26.7706C20.141 26.6957 20.0703 26.6548 20.0156 26.6527C19.9423 26.6506 19.8939 26.7483 19.8551 26.8827C19.8307 26.9661 19.8084 27.0496 19.7882 27.1308C19.7781 26.6261 19.7298 26.1703 19.6448 25.8611C19.4907 25.3033 19.2006 24.9655 19.0306 24.9655C18.9515 24.9639 18.8989 25.0675 18.8521 25.212C18.8139 25.332 18.7794 25.4542 18.747 25.578C18.7103 24.9655 18.6311 24.4082 18.5137 24.0358C18.3135 23.3983 17.9766 23.0014 17.7902 22.9913C17.703 22.9855 17.6505 23.0992 17.6101 23.2601C17.5453 23.5045 17.4905 23.7569 17.4417 24.0113C17.4156 23.3111 17.3306 22.662 17.1989 22.2423C17.0002 21.6058 16.6618 21.2085 16.4753 21.1984C16.3903 21.1925 16.3377 21.3062 16.2947 21.4672C16.2543 21.6196 16.2198 21.7742 16.1853 21.9294C16.147 21.5341 16.0843 21.184 16.0052 20.928C15.8208 20.3399 15.5085 19.9733 15.3363 19.9653C15.2572 19.959 15.2088 20.0652 15.17 20.2113C15.1477 20.2968 15.1275 20.3824 15.1074 20.47C15.0245 19.9876 14.8741 19.534 14.6818 19.1738C14.4385 18.7196 14.2281 18.549 14.1288 18.608C14.0295 18.667 14.0029 18.9151 13.997 19.194V19.2041C13.7378 18.3801 13.257 17.6942 12.9372 17.3585C12.6695 17.0753 12.5095 17.1035 12.5499 17.5269L12.5542 17.5779C12.1547 16.3953 11.3727 15.5549 11.0948 15.6059C11.0061 15.6224 10.9875 15.7663 10.9896 15.9517C10.7102 15.1235 10.2661 14.6884 10.0679 14.503C10.009 14.4478 9.96221 14.4563 9.92767 14.503C9.8023 14.2443 9.59352 13.8963 9.23492 13.3327C8.60274 12.3477 8.06564 11.6311 7.76389 11.255C7.27302 10.6424 6.96117 10.5771 7.11949 11.3522C7.3118 12.3111 8.29036 14.4462 8.66755 14.9955C8.62292 14.9912 8.59264 14.9971 8.57617 15.0157C8.44867 15.1745 8.75467 15.7297 9.20252 16.2795C8.9693 16.1616 8.90661 16.2981 8.99958 16.6174C9.12761 17.0652 9.47611 17.8302 10.0557 18.4736C9.72952 18.3046 9.65408 18.4412 9.79433 18.787C9.88942 19.1042 10.2013 19.67 10.7527 20.1975C10.4812 20.0997 10.4345 20.2442 10.5806 20.5555C10.706 20.9072 11.1278 21.5649 11.8529 22.1063C11.8306 22.0983 11.8062 22.0919 11.7839 22.0856C11.7052 22.0632 11.2489 21.9719 11.2186 22.0473C11.1538 22.2061 11.4396 22.7432 11.8875 23.1645C12.0495 23.3191 12.2806 23.4679 12.552 23.6102C12.5016 23.6023 12.449 23.5938 12.3959 23.5879C12.2338 23.5672 12.1085 23.5736 12.0819 23.6549C12.0213 23.8339 12.2625 24.2961 12.7752 24.7195C13.0344 24.9331 13.4297 25.1711 13.8855 25.4011C13.6544 25.3623 13.4275 25.3522 13.3951 25.4478C13.3362 25.6269 13.5752 26.0891 14.09 26.5125C14.3859 26.7563 14.8561 27.0315 15.3932 27.2875C15.1679 27.2615 14.9374 27.2551 14.9007 27.3486C14.838 27.5096 15.0367 27.9102 15.4883 28.2624C15.6912 28.4212 15.9887 28.5923 16.3393 28.757C16.2665 28.7634 16.2118 28.7836 16.1975 28.8223C16.1428 28.9748 16.4164 29.4205 16.8483 29.7664C17.1033 29.972 17.5086 30.194 17.9665 30.3954C17.8815 30.3954 17.8146 30.4118 17.8003 30.4522C17.754 30.5786 17.983 30.9511 18.3453 31.2422C18.5137 31.3782 18.7613 31.5227 19.0487 31.6613C19.0731 31.8058 19.2798 32.1071 19.5699 32.3573C19.7643 32.5262 20.0639 32.7153 20.4023 32.8928C20.3418 32.8885 20.3051 32.8986 20.2971 32.9273C20.2706 33.0166 20.4533 33.3034 20.7227 33.5377C20.907 33.6966 21.2109 33.8798 21.5456 34.0424C21.5126 34.0445 21.4925 34.0525 21.4866 34.069C21.4664 34.1343 21.5881 34.3293 21.7761 34.486C21.9748 34.6528 22.1369 34.7506 22.293 34.8403C23.2132 35.3817 23.4076 35.7822 23.9893 36.5966C23.9628 36.5866 23.9346 36.5743 23.9059 36.5637C22.8625 36.1812 22.4004 36.1222 21.5759 35.3062C21.4399 35.1718 21.298 35.0337 21.0733 34.877C20.8624 34.7304 20.6292 34.6629 20.5707 34.7038C20.5665 34.7081 20.5622 34.7118 20.5606 34.7181C20.303 34.4026 20.0336 34.1258 19.8206 33.9813C19.5109 33.772 19.1725 33.6456 19.0891 33.7003C19.063 33.7167 19.063 33.7614 19.0832 33.8267C18.8017 33.4867 18.518 33.1998 18.289 33.0474C17.9081 32.7929 17.5655 32.6909 17.4619 32.7562C17.4395 32.7706 17.4337 32.803 17.4395 32.8497C17.2472 32.6319 17.0608 32.4508 16.9009 32.335C16.52 32.0539 16.1571 31.9849 16.0455 32.0725C15.9807 32.1214 16.0355 32.3063 16.1082 32.4795C15.7842 32.1092 15.4601 31.7957 15.2009 31.6146C14.7509 31.3011 14.3291 31.2135 14.2037 31.3011C14.1346 31.3479 14.1936 31.5248 14.2765 31.7017C13.9907 31.3904 13.7134 31.1301 13.486 30.9712C13.0365 30.6578 12.6147 30.5701 12.4894 30.6578C12.4304 30.6987 12.4527 30.7986 12.5053 30.9245C12.5218 30.9654 12.5398 31.0042 12.5584 31.0424C12.3858 30.8591 12.2158 30.7088 12.0553 30.6132C11.6218 30.3507 11.1336 30.245 11.022 30.3343C10.9695 30.3752 11.1458 30.7168 11.1804 30.7763L11.2106 30.8246C10.6188 30.3688 10.0047 30.1818 9.69711 30.1616C9.41927 30.1149 9.31621 30.1855 9.4538 30.3789C8.91246 30.0575 8.39396 29.9374 8.12249 29.9337C7.81861 29.8986 7.72511 29.9906 7.93177 30.2121C7.29374 29.8949 6.61055 29.7908 6.22752 29.7887C5.95392 29.7887 5.85883 29.8684 6.00652 30.0267C5.46996 29.7951 4.96102 29.6771 4.8638 29.8152C4.85371 29.8317 4.85583 29.8583 4.87017 29.8907C4.34902 29.7138 2.44024 29.4163 1.63964 29.4795C0.991518 29.5284 1.11317 29.7626 1.70871 30.0166C2.07367 30.1717 2.76058 30.4384 3.6823 30.7189C4.2093 30.8799 4.53177 30.967 4.76446 31.0058C4.73417 31.0467 4.74002 31.0833 4.79686 31.1179C4.98758 31.2358 5.43117 31.4903 6.15049 31.5269C6.0028 31.5678 5.89336 31.6146 5.89921 31.6895C5.92364 31.9216 6.76461 32.3551 7.78992 32.4083L7.74955 32.4141C7.40317 32.4795 7.41699 32.6139 7.7028 32.7621C8.04121 32.9411 8.68986 33.169 9.40121 33.1897L9.3927 33.1919C9.17383 33.2609 8.98364 33.338 8.95921 33.4299C8.93477 33.5234 9.11911 33.6519 9.53083 33.7433C9.85914 33.8166 10.2544 33.8331 10.6534 33.7901C10.5885 33.8267 10.5259 33.8612 10.4626 33.9C10.3553 33.9632 10.2847 34.0265 10.3049 34.087C10.3516 34.2236 10.7123 34.3882 11.2165 34.4026C11.4375 34.409 11.7291 34.3781 12.0516 34.3213C11.9342 34.3824 11.8205 34.4472 11.709 34.5126C11.5915 34.5816 11.5145 34.6491 11.539 34.7181C11.5894 34.8626 11.9788 35.0438 12.5276 35.0581C12.8883 35.0682 13.4212 34.9891 13.9806 34.8526C13.7904 34.9503 13.6039 35.0496 13.4233 35.1554C13.308 35.225 13.2289 35.2919 13.2533 35.3615C13.3038 35.5076 13.6932 35.6866 14.242 35.701C14.5644 35.7111 15.0224 35.6478 15.5148 35.5384C15.4235 35.5931 15.3363 35.6478 15.2492 35.7073C15.144 35.7764 15.075 35.8412 15.093 35.9044C15.1318 36.0388 15.466 36.1956 15.9404 36.1913C16.1592 36.1913 16.453 36.1446 16.7771 36.0696C16.7325 36.1058 16.7101 36.143 16.7266 36.1775C16.7447 36.2179 16.7973 36.2588 16.8785 36.2954C17.0284 36.3624 17.3545 36.4134 17.6505 36.4112C17.914 36.407 18.2603 36.3586 18.6274 36.2731L18.6195 36.2768C18.5424 36.3199 18.4893 36.3624 18.5079 36.4054C18.5201 36.4378 18.5605 36.4745 18.6232 36.509C18.7427 36.5722 19.0062 36.6312 19.2474 36.6434C19.4806 36.6556 19.8047 36.6168 20.1468 36.5456C20.1287 36.5637 20.1208 36.5823 20.1266 36.5982C20.1351 36.6232 20.1633 36.6476 20.2058 36.6716C20.287 36.7167 20.4671 36.7534 20.6334 36.7571C21.817 36.79 22.0317 36.5966 23.3285 36.9834C23.5208 37.0381 23.7094 37.0992 23.898 37.1539C23.2679 37.3717 22.9417 37.5083 22.1634 37.4206C22.0195 37.4047 21.8696 37.3903 21.6609 37.4025C21.4685 37.4148 21.298 37.4838 21.2821 37.537C21.28 37.5407 21.28 37.5449 21.2821 37.5508C20.9798 37.4817 20.6903 37.4451 20.4958 37.4594C20.2121 37.4817 19.9524 37.5651 19.9285 37.6363C19.92 37.6591 19.9401 37.6852 19.9826 37.716C19.6565 37.6464 19.3526 37.6081 19.1438 37.6241C18.7995 37.6528 18.5461 37.7526 18.5159 37.8419C18.5095 37.8605 18.5201 37.8849 18.5461 37.9094C18.3294 37.8685 18.1328 37.8499 17.983 37.8541C17.626 37.8685 17.3769 37.9965 17.3508 38.1027C17.3344 38.1638 17.4539 38.2451 17.5798 38.3142C17.2127 38.2467 16.8722 38.2122 16.6331 38.2265C16.2177 38.2531 15.926 38.3997 15.8915 38.5118C15.8713 38.5729 15.9908 38.6499 16.1226 38.7169C15.8065 38.6643 15.5185 38.6398 15.3098 38.6542C14.8927 38.6786 14.6027 38.8252 14.5665 38.9368C14.5522 38.9899 14.6112 39.0388 14.702 39.0877C14.7307 39.1041 14.761 39.1201 14.7891 39.1344C14.6005 39.1057 14.4284 39.0978 14.2887 39.1142C13.9078 39.1626 13.5651 39.3299 13.5407 39.4356C13.529 39.4861 13.792 39.6067 13.843 39.6248L13.8834 39.6391C13.3181 39.6471 12.8639 39.8261 12.6695 39.9589C12.483 40.0625 12.4527 40.1518 12.627 40.2028C12.1531 40.2681 11.7881 40.4408 11.624 40.5651C11.4274 40.6894 11.4152 40.7866 11.642 40.8217C11.1113 40.9332 10.6555 41.1941 10.4265 41.3731C10.2624 41.5033 10.2438 41.5946 10.4063 41.6212C9.97655 41.7354 9.62008 41.9044 9.62592 42.0324C9.62592 42.0467 9.64027 42.0611 9.66471 42.0754C9.27105 42.2157 7.99286 42.9382 7.54502 43.3531C7.18217 43.6894 7.36227 43.7722 7.83667 43.6421C8.12621 43.5629 8.66117 43.3961 9.34436 43.1294C9.73324 42.977 9.96646 42.8771 10.1242 42.7894C10.1242 42.8282 10.1444 42.8484 10.1954 42.8426C10.3633 42.8224 10.7485 42.7629 11.1942 42.4473C11.1256 42.5413 11.081 42.6205 11.1193 42.6614C11.243 42.7894 11.9464 42.6513 12.5823 42.1971L12.5621 42.2215C12.3858 42.4234 12.457 42.4962 12.6981 42.4516C12.984 42.399 13.478 42.2279 13.9099 41.9044L13.9078 41.9102C13.8085 42.0531 13.7314 42.1912 13.7596 42.2566C13.7883 42.3235 13.9583 42.3134 14.2483 42.1726C14.4773 42.0632 14.7201 41.8858 14.939 41.6722C14.9172 41.7232 14.8965 41.7737 14.8763 41.8268C14.8417 41.9166 14.8279 41.9878 14.8704 42.0143C14.9613 42.0712 15.2535 42.0021 15.5616 41.77C15.697 41.6701 15.8554 41.5155 16.0211 41.3285C15.9807 41.4199 15.9425 41.5112 15.9058 41.6053C15.8692 41.7009 15.8554 41.7779 15.8995 41.8066C15.9988 41.8693 16.3154 41.7944 16.6496 41.5442C16.8685 41.379 17.15 41.0799 17.4194 40.7361C17.3508 40.8828 17.2876 41.031 17.2292 41.1797C17.1925 41.2754 17.1782 41.3524 17.2228 41.3811C17.3221 41.4443 17.6382 41.3689 17.9729 41.1186C18.1695 40.972 18.4144 40.7181 18.6556 40.4206C18.6274 40.496 18.6009 40.5709 18.5764 40.6464C18.5461 40.7361 18.536 40.8095 18.5748 40.8376C18.662 40.8987 18.9334 40.836 19.215 40.6097C19.3446 40.504 19.4987 40.3393 19.6565 40.1417C19.6485 40.1847 19.6527 40.2171 19.6772 40.2293C19.7075 40.2453 19.7579 40.2437 19.8227 40.2272C19.9444 40.1985 20.1633 40.0747 20.3375 39.9324C20.4937 39.8059 20.678 39.6126 20.8565 39.391L20.8544 39.3947C20.8279 39.458 20.8156 39.5068 20.8459 39.5249C20.8704 39.5392 20.9113 39.5414 20.966 39.5313C21.0653 39.5148 21.2497 39.4234 21.3995 39.3177C21.5435 39.2157 21.7193 39.0388 21.8898 38.8353C21.8877 38.8534 21.892 38.8699 21.9042 38.8757C21.918 38.8858 21.9467 38.8879 21.9849 38.8821C22.054 38.872 22.1772 38.8088 22.2787 38.7333C22.9295 38.2467 23.0225 38.0209 23.7338 37.7038C24.1816 37.5024 24.3012 37.3824 23.9792 37.826C23.7179 38.184 23.5271 38.4141 23.0166 38.6946C22.9072 38.7541 22.7935 38.8167 22.6559 38.9267C22.5241 39.0308 22.4391 39.1647 22.4535 39.2099C22.4551 39.212 22.4572 39.2157 22.4615 39.2178C22.216 39.3198 21.9934 39.4356 21.8633 39.5414C21.6768 39.696 21.535 39.8835 21.5514 39.9467C21.5594 39.977 21.6221 39.9791 21.7135 39.9648C21.4276 40.0827 21.1726 40.2129 21.0244 40.3351C20.8018 40.5205 20.678 40.7096 20.6982 40.785C20.7062 40.8111 20.7492 40.8217 20.814 40.8174C20.7062 40.8743 20.6154 40.9354 20.5484 40.9965C20.3375 41.1856 20.2015 41.4321 20.2323 41.5054C20.2445 41.5399 20.4549 41.5011 20.4916 41.4911L20.524 41.4831C20.1856 41.7269 19.9869 42.0266 19.9263 42.187C19.8573 42.3294 19.8775 42.3968 20.0012 42.3538C19.7441 42.5923 19.5959 42.8505 19.5491 42.995C19.4822 43.1517 19.5167 43.2166 19.6687 43.1416C19.3951 43.4328 19.2293 43.7829 19.1661 43.9885C19.1215 44.1346 19.1502 44.1978 19.2575 44.1446C19.0487 44.3933 18.9031 44.6477 18.9595 44.7226C18.968 44.7311 18.9818 44.7333 19.002 44.7311C18.824 44.9814 18.3575 45.9583 18.2603 46.3956C18.1812 46.752 18.3251 46.7255 18.5562 46.4466C18.6981 46.276 18.9515 45.9498 19.2495 45.5004C19.4195 45.2459 19.5189 45.0871 19.5778 44.967C19.5938 44.9915 19.614 44.9936 19.6426 44.9691C19.7356 44.8857 19.9423 44.6881 20.0783 44.3099C20.0761 44.3954 20.0841 44.4623 20.125 44.4708C20.2525 44.4947 20.6175 44.1144 20.8119 43.573L20.8077 43.5953C20.7875 43.7908 20.8603 43.8052 20.9862 43.6766C21.136 43.5241 21.3628 43.2128 21.4887 42.8362V42.8404C21.4887 42.9685 21.4988 43.0848 21.5435 43.1114C21.5897 43.1395 21.6869 43.062 21.8027 42.8548C21.8935 42.6917 21.9669 42.4824 22.0094 42.2624C22.0173 42.3012 22.0253 42.3416 22.0359 42.3804C22.054 42.4494 22.0742 42.4983 22.1108 42.4962C22.1895 42.4925 22.3355 42.3272 22.4248 42.059C22.4652 41.9426 22.496 41.7843 22.5162 41.6053C22.5263 41.6557 22.5385 41.7046 22.5507 41.7535C22.5688 41.8188 22.5911 41.8656 22.6272 41.8592C22.6538 41.8555 22.6883 41.8311 22.725 41.7901C22.7935 41.711 22.8827 41.5219 22.9353 41.3407C22.99 41.1532 23.0267 40.8865 23.0389 40.6039C23.0448 40.6442 23.0533 40.6851 23.0607 40.7239C23.0713 40.7808 23.0873 40.8217 23.1181 40.8196C23.142 40.8174 23.1728 40.7988 23.2052 40.7643C23.2658 40.7032 23.3529 40.5486 23.4055 40.4004C23.4565 40.258 23.4947 40.0482 23.5149 39.8203C23.5229 39.8346 23.5314 39.8447 23.5436 39.8426C23.5595 39.8426 23.5797 39.8304 23.6042 39.8081C23.6467 39.7656 23.7035 39.6593 23.738 39.5578C23.9468 38.9288 23.9165 38.7131 24.2082 38.2C24.273 38.0884 24.3176 38.005 24.3522 37.9476C24.2284 41.0331 24.3883 43.8498 24.6699 46.2797H25.3164C25.0045 43.9518 24.826 41.243 24.9498 38.2409C25.3366 38.8656 25.2314 38.9735 25.4524 39.6492C25.4848 39.7512 25.5416 39.8548 25.582 39.8957C25.6043 39.918 25.6245 39.9302 25.641 39.9302C25.6527 39.9302 25.6606 39.9217 25.6691 39.9079C25.6872 40.1295 25.7239 40.3351 25.7727 40.4737C25.8232 40.6203 25.9061 40.7686 25.9672 40.8296C25.9996 40.8621 26.0277 40.8806 26.05 40.8828C26.0803 40.8844 26.0968 40.8461 26.1085 40.7909C26.117 40.7521 26.1228 40.7138 26.1292 40.6751C26.1393 40.9497 26.1738 41.21 26.2264 41.3933C26.2769 41.5686 26.364 41.7535 26.431 41.8311C26.4676 41.872 26.5 41.8959 26.526 41.9001C26.5606 41.9065 26.5829 41.8592 26.5994 41.7965C26.6132 41.7492 26.6233 41.7009 26.6355 41.652C26.6541 41.8268 26.6844 41.9814 26.7205 42.0935C26.8081 42.3559 26.9495 42.519 27.0265 42.5227C27.061 42.5249 27.0833 42.476 27.0998 42.4112C27.1099 42.3724 27.1179 42.3336 27.1258 42.2948C27.1667 42.5105 27.2358 42.714 27.3245 42.8728C27.4361 43.0763 27.5333 43.1517 27.5758 43.1252C27.6204 43.097 27.6305 42.9849 27.6326 42.8606V42.8569C27.7543 43.2251 27.9732 43.5305 28.1193 43.6787C28.2404 43.8052 28.3116 43.7908 28.2914 43.5996L28.2893 43.5773C28.4757 44.1064 28.8301 44.4788 28.956 44.4544C28.9942 44.4459 29.0027 44.3811 29.0006 44.2976C29.1318 44.6679 29.3326 44.8613 29.424 44.9426C29.4506 44.967 29.4708 44.9649 29.4867 44.9426C29.5435 45.0589 29.6386 45.2135 29.8028 45.4637C30.0929 45.9031 30.3378 46.2208 30.4759 46.3876C30.6459 46.5953 30.8525 46.7499 30.7654 46.3408Z" fill="#4FAD37"/>
</g>
<mask id="mask1_622_6323" style="mask-type:luminance" maskUnits="userSpaceOnUse" x="4" y="4" width="43" height="43">
<path d="M4.39453 4.44824H46.6225V46.6762H4.39453V4.44824Z" fill="white"/>
</mask>
<g mask="url(#mask1_622_6323)">
<path d="M25.511 7.66904C20.7308 7.66904 16.237 9.53001 12.8566 12.9104C9.47683 16.2907 7.61533 20.7845 7.61533 25.5647C7.61533 30.3444 9.47683 34.8388 12.8566 38.2186C16.237 41.5989 20.7308 43.4599 25.511 43.4599C30.2907 43.4599 34.785 41.5989 38.1649 38.2186C41.5452 34.8388 43.4067 30.3444 43.4067 25.5647C43.4067 20.7845 41.5452 16.2907 38.1649 12.9104C34.785 9.53001 30.2907 7.66904 25.511 7.66904ZM25.511 46.6787C19.8713 46.6787 14.5689 44.4825 10.5808 40.4944C6.59267 36.5064 4.39648 31.2045 4.39648 25.5647C4.39648 19.925 6.59267 14.6226 10.5808 10.6345C14.5689 6.64638 19.8713 4.4502 25.511 4.4502C31.1508 4.4502 36.4532 6.64638 40.4413 10.6345C44.4288 14.6226 46.6255 19.925 46.6255 25.5647C46.6255 31.2045 44.4288 36.5064 40.4413 40.4944C36.4532 44.4825 31.1508 46.6787 25.511 46.6787Z" fill="#EF171F"/>
</g>
<path d="M12.856 40.4947L10.5801 38.2189L38.1642 10.6348L40.4406 12.9106L12.856 40.4947Z" fill="#EF171F"/>
</svg>
