<svg width="102" height="76" viewBox="0 0 102 76" fill="none" xmlns="http://www.w3.org/2000/svg">
<g clip-path="url(#clip0_622_6963)">
<path d="M75.583 37.6943C75.583 58.4044 58.7931 75.1943 38.083 75.1943C32.931 75.1943 28.022 74.157 23.5554 72.2768C22.0086 71.6261 20.5139 70.8759 19.0818 70.0295C17.1807 68.9123 15.3897 67.6318 13.7225 66.2043C10.9415 63.8262 8.50907 61.0465 6.52234 57.9552C2.76424 52.112 0.583008 45.1561 0.583008 37.6943C0.583008 16.9842 17.3729 0.194336 38.083 0.194336C40.8281 0.194336 43.5048 0.489566 46.082 1.04992C49.2624 1.73879 52.2923 2.83404 55.1149 4.27546C57.4837 5.48648 59.7066 6.93947 61.7512 8.6055C62.0059 8.81042 62.256 9.01998 62.5037 9.23416C63.5399 10.1222 64.5264 11.0681 65.4584 12.0637C71.7381 18.7707 75.583 27.7839 75.583 37.6943Z" fill="white"/>
<path d="M37.9723 2.35547C37.757 2.35547 37.5428 2.35778 37.3274 2.36242V5.57753C37.5416 5.57174 37.757 5.57058 37.9723 5.57058C55.7891 5.57058 70.2832 20.0646 70.2832 37.8815C70.2832 55.6983 55.7891 70.1924 37.9723 70.1924C21.9917 70.1924 8.68432 58.5314 6.11177 43.272L2.92676 43.7108C3.07842 44.6359 3.2683 45.5482 3.4929 46.4478C5.78991 55.6983 11.7235 63.5283 19.6819 68.3272C25.0273 71.5516 31.2874 73.4075 37.9735 73.4075C57.5628 73.4075 73.4995 57.4709 73.4995 37.8815C73.4995 18.2921 57.5628 2.35547 37.9723 2.35547Z" fill="#87D7A5"/>
<path d="M14.7474 37.2645C14.7474 33.3771 15.7239 30.4098 19.4799 30.4098C23.2171 30.4098 24.1937 33.3771 24.1937 37.2645C24.1937 41.2083 23.2171 44.1943 19.4799 44.1943C15.7239 44.1943 14.7474 41.2083 14.7474 37.2645ZM22.5035 37.2645C22.5035 34.4475 22.1467 31.9686 19.4799 31.9686C16.7944 31.9686 16.4376 34.4475 16.4376 37.2645C16.4376 40.1942 16.7944 42.6356 19.4799 42.6356C22.1467 42.6356 22.5035 40.1942 22.5035 37.2645ZM33.0753 44.1943V41.1708H26.1267V39.8749L32.7185 30.7479H34.7655V39.6871H36.6435V41.1708H34.7655V44.1943H33.0753ZM28.0986 39.6871H33.1504V32.532L28.0986 39.6871ZM40.3039 43.1427C40.3039 43.8 39.7968 44.307 39.1771 44.307C38.5198 44.307 38.0127 43.8 38.0127 43.1427C38.0127 42.4854 38.5198 41.9783 39.1771 41.9783C39.7968 41.9783 40.3039 42.4854 40.3039 43.1427ZM42.2563 34.0344C42.4253 31.7056 44.1906 30.3535 46.7071 30.3535C49.3551 30.3535 50.8012 31.8934 50.8012 33.8466C50.8012 35.4053 49.8246 36.626 48.3973 36.9453V37.0392C49.9748 37.4148 51.0453 38.5791 51.0453 40.5322C51.0453 42.6356 49.5805 44.2882 46.7447 44.2882C44.1718 44.2882 42.2563 42.9173 42.0497 40.2881H43.7023C43.8713 41.7342 44.923 42.8422 46.7259 42.8422C48.5476 42.8422 49.4114 41.7717 49.4114 40.382C49.4114 38.4664 48.0781 37.734 45.6367 37.734H45.2047V36.3067H45.6554C47.9278 36.288 49.1485 35.5931 49.1485 34.0156C49.1485 32.7198 48.2846 31.8183 46.6508 31.8183C45.0545 31.8183 44.0967 32.7198 43.9277 34.0344H42.2563ZM53.3527 37.2645C53.3527 33.3771 54.3293 30.4098 58.0853 30.4098C61.8225 30.4098 62.7991 33.3771 62.7991 37.2645C62.7991 41.2083 61.8225 44.1943 58.0853 44.1943C54.3293 44.1943 53.3527 41.2083 53.3527 37.2645ZM61.1089 37.2645C61.1089 34.4475 60.7521 31.9686 58.0853 31.9686C55.3998 31.9686 55.0429 34.4475 55.0429 37.2645C55.0429 40.1942 55.3998 42.6356 58.0853 42.6356C60.7521 42.6356 61.1089 40.1942 61.1089 37.2645Z" fill="#87D7A5"/>
</g>
<defs>
<clipPath id="clip0_622_6963">
<rect width="75" height="75" fill="white" transform="translate(0.583008 0.194336)"/>
</clipPath>
</defs>
</svg>
